<svg width="221" height="222" viewBox="0 0 221 222" fill="none" xmlns="http://www.w3.org/2000/svg">
<rect width="221" height="221" rx="12" fill="#FFE082"/>
<path d="M140.187 66.58L129.065 77.97C122.901 71.538 115.799 68.992 109.635 68.992C99.3168 68.992 94.8948 74.486 94.8948 79.712C94.8948 97.266 143.403 92.844 143.403 123.53C143.403 141.218 127.189 153.546 108.429 153.546C90.4728 153.546 78.1448 142.424 74.9288 139.208L86.1848 127.148C92.3488 133.848 100.657 138.136 108.965 138.136C118.613 138.136 125.581 132.24 125.581 125.138C125.581 107.182 77.2068 112.006 77.2068 81.454C77.2068 65.106 91.2768 53.716 109.501 53.716C120.489 53.716 132.683 58.004 140.187 66.58Z" fill="#181C56"/>
</svg>
