<svg width="163" height="129" viewBox="0 0 163 129" fill="none" xmlns="http://www.w3.org/2000/svg">
<path d="M80.6606 10.7302C82.9538 10.1881 84.1417 10.4377 86.464 10.5554C87.5845 10.5558 88.8866 11.0357 89.9632 11.1206C94.9076 11.4495 99.1454 13.673 103.495 15.7617C106.751 17.325 108.818 18.4539 111.71 20.6411C114.221 22.5401 116.87 23.8233 118.995 26.3489C119.905 27.4297 121.203 28.429 122.172 29.5639L122.57 29.4165C124.173 28.7002 128.241 28.1404 130.384 27.5076C133.305 26.4 133.843 24.4384 135.282 22.4931L135.498 22.4709L135.658 22.7757C136.59 25.0943 136.478 26.7284 138.301 28.1031C136.953 30.786 134.105 32.8636 131.302 33.8353C129.746 34.3746 127.99 34.5017 126.404 34.847C126.613 35.674 126.829 36.601 127.083 37.4062C127.559 37.797 128.41 38.458 128.819 38.8694C132.307 38.5683 136.155 35.1389 139.182 33.5444C139.595 33.2434 139.502 33.2063 139.895 33.2514C140.125 33.8847 139.434 36.6099 139.324 37.5991C140.535 38.1128 141.88 38.5774 143.04 39.0887C139.839 41.1514 135.457 44.9337 131.418 45.2417C131.774 45.8168 132.523 49.1492 132.844 50.0684C133.698 52.5594 134.314 55.1516 134.856 57.7212C135.061 58.6947 134.899 59.9729 135.086 60.8867C135.678 63.7848 136.267 66.1515 135.382 69.0741C135.217 69.6211 135.483 71.4607 135.353 72.1377C135.095 74.8773 134.673 77.1803 134.051 79.8505C132.851 84.9834 130.699 89.8448 127.702 94.1813C127.907 94.5005 128.27 95.0288 128.403 95.3564C130.749 95.4098 134.208 95.2606 136.356 95.4926C137.177 95.4804 141.956 95.4218 142.47 95.5571L142.552 95.7185C141.985 96.1568 137.849 96.2656 137.136 96.0698C135.318 96.0831 133.61 96.3261 131.797 96.4604C130.395 96.5642 128.286 96.3966 126.973 96.6209C126.311 97.7012 125.639 97.8753 124.935 98.7593C124.343 99.556 123.802 100.406 123.192 101.189C120.734 104.343 118.133 106.967 114.991 109.444C111.35 112.315 106.818 116.157 102.088 116.893C101.901 117.172 101.422 117.718 101.159 117.945C94.3342 123.828 83.7505 125.005 75.1289 124.715C67.331 124.453 58.3892 123.979 52.3223 118.664C50.5862 117.144 50.6005 115.71 50.6044 113.626C47.927 111.849 45.8134 110.111 43.3966 108.08C40.622 105.748 38.9455 104.55 36.9711 101.439C36.0323 99.9596 34.6503 99.6074 34.1331 97.3945C33.5128 97.2465 30.4569 97.353 29.5157 97.3098C27.7231 97.2276 25.6399 96.9657 23.9102 97.0621C23.4154 96.9604 23.5653 96.9937 23.2002 96.4593C25.5054 96.3256 27.0873 96.4066 29.3661 96.5556C25.9023 94.4525 27.1104 93.2331 29.4262 90.7216C29.2226 90.3349 28.556 88.5776 28.3737 88.0888C27.9242 86.8827 27.0149 85.0948 26.6619 83.9392C26.0156 81.7057 25.2953 79.2988 24.7337 77.0581C23.6528 72.7455 23.4065 68.2163 23.855 63.8035C23.9321 63.0448 23.6897 61.9235 23.8017 61.178C23.9171 60.4103 24.5219 59.8354 24.4509 58.9619C24.6259 57.2234 24.654 55.5084 24.8036 53.7808C24.8913 53.2761 25.3727 52.5749 25.4649 52.108C26.1181 48.7995 27.7472 45.957 29.1532 42.9372C29.7428 41.6709 30.2498 40.0309 31.0203 38.8509C32.4213 36.7051 33.7915 34.4979 35.2792 32.4115C35.8549 31.6113 37.0149 30.571 37.6998 29.7853C40.0798 27.0553 43.7989 23.1483 46.6632 20.9243C49.8284 18.7132 53.2834 16.9286 56.7648 15.2595C58.6482 14.3565 60.9255 13.131 62.9232 12.5494C63.9855 12.2401 65.4551 12.1745 66.5761 11.9291C69.4301 11.3046 72.335 11.0133 75.2074 10.5047C76.8886 10.281 77.2105 10.86 79.402 10.3047C79.8321 10.4177 80.2429 10.5774 80.6606 10.7302Z" fill="#EFF0EA"/>
<path d="M80.6598 10.7302C82.953 10.1881 84.1409 10.4377 86.4632 10.5554C87.5838 10.5558 88.8859 11.0357 89.9625 11.1206C94.9068 11.4495 99.1446 13.673 103.494 15.7617C106.75 17.325 108.818 18.4539 111.709 20.6411C114.22 22.5401 116.869 23.8233 118.995 26.3489C119.904 27.4297 121.202 28.429 122.171 29.5639C119.863 31.106 118.009 33.3698 117.118 36.014C116.902 36.4397 116.508 37.3908 116.281 37.6825C115.929 37.6234 115.315 37.8226 115.058 38.0682C114.519 37.9386 114.028 37.1789 113.604 36.749C111.111 34.2218 106.945 31.488 103.385 30.8664C95.7842 29.5392 87.4786 30.8312 82.0355 36.6332C81.4508 37.265 80.9041 37.931 80.3982 38.6275C79.6181 39.7174 78.2888 42.3877 76.6591 42.3397C75.3921 42.3024 73.4414 42.0933 72.1635 42.456C74.2359 42.6687 74.8599 42.1184 76.9382 42.8136C76.6126 43.0105 74.6128 42.7862 74.4594 43.3013C75.1878 43.2938 75.9937 43.215 76.7258 43.1599C77.2898 43.3388 77.0979 43.2145 77.4865 43.6756L77.4917 43.7809C77.52 44.2819 77.5834 44.409 77.7808 44.8688C77.6736 46.1369 76.3492 46.1563 76.8517 48.0382L76.3571 48.6451L76.2907 48.7551C74.4566 50.9283 74.4909 53.7814 74.0035 56.1285L73.6365 56.3134C72.2908 55.6191 70.9961 54.7932 69.7062 53.9978C68.2286 54.538 61.0631 59.0305 60.2082 60.757C59.8353 61.5102 59.3906 64.1035 59.2043 65.1016C58.384 69.3149 57.7456 73.5616 57.2904 77.8298C57.3379 78.386 57.3561 78.7746 57.3491 79.3325L57.1543 79.4635C52.8659 82.2972 51.6571 82.7307 46.4728 82.7938L46.5241 82.9678C46.2755 83.1763 45.9345 83.1655 45.5925 83.2035C45.5078 83.1983 45.4234 83.191 45.3393 83.1815C43.5832 82.9908 42.1046 82.4389 40.9737 81.0146L40.6831 80.735C40.6572 80.6397 40.7042 79.1831 40.6885 78.8438C40.5977 79.3448 40.6353 79.8588 40.2041 80.1231C38.1022 81.4117 35.0053 82.3684 37.0659 85.4421C37.1862 85.6205 37.3094 85.7969 37.4351 85.9716C35.1414 86.2404 33.9544 87.3795 32.1562 88.7695C31.3912 89.221 29.9316 90.511 29.4254 90.7216C29.2218 90.3349 28.5552 88.5776 28.3729 88.0888C27.9234 86.8827 27.0141 85.0948 26.6611 83.9392C26.0149 81.7057 25.2945 79.2988 24.7329 77.0581C23.652 72.7455 23.4058 68.2163 23.8542 63.8035C23.9313 63.0448 23.689 61.9235 23.8009 61.178C23.9163 60.4103 24.5212 59.8354 24.4501 58.9619C24.6251 57.2235 24.6532 55.5084 24.8028 53.7808C24.8905 53.2761 25.3719 52.5749 25.4641 52.108C26.1173 48.7995 27.7464 45.957 29.1524 42.9372C29.742 41.6709 30.2491 40.0309 31.0195 38.8509C32.4205 36.7051 33.7908 34.4979 35.2784 32.4115C35.8541 31.6113 37.0141 30.571 37.6991 29.7853C40.079 27.0553 43.7981 23.1483 46.6624 20.9243C49.8276 18.7132 53.2826 16.9286 56.764 15.2595C58.6475 14.3565 60.9247 13.131 62.9225 12.5494C63.9847 12.2401 65.4543 12.1745 66.5753 11.9291C69.4293 11.3046 72.3342 11.0133 75.2066 10.5047C76.8879 10.281 77.2097 10.86 79.4012 10.3047C79.8313 10.4177 80.2421 10.5774 80.6598 10.7302Z" fill="#EAEAF1"/>
<path d="M54.2611 57.3018C55.9081 57.6938 58.58 59.2073 59.8182 60.3554C58.6699 63.6702 57.2469 72.4947 57.0713 76.0674C57.0937 76.5201 57.0669 77.4971 57.2913 77.8301C57.3388 78.3863 57.357 78.775 57.35 79.3328L57.1552 79.4638C52.8668 82.2975 51.658 82.731 46.4737 82.7941L46.525 82.9681C46.2765 83.1766 45.9354 83.1659 45.5934 83.2038C45.5088 83.1986 45.4244 83.1913 45.3402 83.1819C43.5841 82.9911 42.1055 82.4392 40.9746 81.015L41.2402 80.8725C41.2235 80.7439 41.1943 80.3094 41.2145 80.1952C42.0894 75.2572 44.7073 65.2397 48.3421 61.8233C50.1821 60.1777 52.1504 58.5916 54.2611 57.3018Z" fill="#EFF0EA"/>
<path d="M41.2402 80.8721C42.2914 82.2325 43.7698 82.4832 45.3886 82.6882C45.7492 82.7335 46.1112 82.7686 46.4737 82.7937L46.525 82.9677C46.2765 83.1762 45.9354 83.1655 45.5934 83.2034C45.5088 83.1982 45.4244 83.1909 45.3402 83.1815C43.5841 82.9907 42.1055 82.4388 40.9746 81.0145L41.2402 80.8721Z" fill="#232652"/>
<path d="M57.0709 76.0674C57.0933 76.5201 57.0665 77.4971 57.2909 77.8302C57.3384 78.3864 57.3566 78.775 57.3497 79.3328L57.1548 79.4638C56.8056 78.6641 56.8771 76.9241 57.0709 76.0674Z" fill="#595A8D"/>
<path d="M76.7259 43.1602C77.2899 43.339 77.0979 43.2147 77.4865 43.6758L77.4917 43.7811C77.5201 44.2821 77.5834 44.4092 77.7808 44.869C77.6736 46.1371 76.3492 46.1565 76.8517 48.0385L76.3572 48.6453L76.2908 48.7553C74.4567 50.9285 74.4909 53.7816 74.0035 56.1287L73.6366 56.3136C72.2909 55.6194 70.9961 54.7935 69.7062 53.998C68.2287 54.5382 61.0631 59.0307 60.2082 60.7572C59.8353 61.5104 59.3906 64.1038 59.2043 65.1019C58.3841 69.3152 57.7456 73.5618 57.2905 77.83C57.066 77.497 57.0928 76.52 57.0704 76.0672C57.246 72.4946 58.669 63.6701 59.8173 60.3553C58.5791 59.2072 55.9073 57.6937 54.2602 57.3017C52.1495 58.5915 50.1812 60.1776 48.3412 61.8232L48.0283 61.4748C48.0008 61.455 47.9877 61.3402 47.9775 61.2926C49.4008 58.9027 54.3218 53.0122 56.405 51.36L56.9709 51.3862C57.0269 51.2841 57.087 51.1844 57.1509 51.0871C59.4791 47.4857 68.4908 44.46 72.626 43.5652L73.1584 43.6168C73.5934 43.517 74.0271 43.412 74.4594 43.3015C75.1878 43.2941 75.9937 43.2152 76.7259 43.1602Z" fill="#EFF0EA"/>
<path d="M76.726 43.1602C77.29 43.339 77.098 43.2147 77.4866 43.6758L77.4918 43.7811C77.5202 44.2821 77.5835 44.4092 77.7809 44.869C77.6737 46.1371 76.3493 46.1565 76.8519 48.0385L76.3573 48.6453L76.2909 48.7553C74.4568 50.9285 74.4911 53.7816 74.0036 56.1287C73.0569 55.636 70.7749 54.1535 69.8661 53.5264C69.8206 50.2486 71.6319 46.468 73.1585 43.6168C73.5935 43.517 74.0272 43.412 74.4596 43.3015C75.1879 43.2941 75.9938 43.2152 76.726 43.1602Z" fill="#EFF0EA"/>
<path d="M76.7259 43.1602C77.2899 43.339 77.0979 43.2147 77.4866 43.6758L77.4917 43.7811C77.5201 44.2821 77.5835 44.4092 77.7809 44.869C77.6737 46.1371 76.3493 46.1565 76.8518 48.0385L76.3572 48.6453C75.087 46.3687 76.6825 46.1108 76.7259 43.1602Z" fill="#272E6D"/>
<path d="M72.626 43.5654L73.1584 43.6171C71.6318 46.4683 69.8205 50.2489 69.866 53.5266C70.7748 54.1538 73.0568 55.6363 74.0035 56.1289L73.6366 56.3139C72.2909 55.6196 70.9961 54.7937 69.7062 53.9983C68.2287 54.5385 61.0631 59.0309 60.2082 60.7575C59.8353 61.5107 59.3906 64.104 59.2043 65.1021C58.3841 69.3154 57.7456 73.5621 57.2905 77.8303C57.066 77.4972 57.0928 76.5203 57.0704 76.0675C57.246 72.4948 58.669 63.6704 59.8173 60.3556C58.5791 59.2074 55.9073 57.694 54.2602 57.3019C52.1495 58.5918 50.1812 60.1778 48.3412 61.8235L48.0283 61.475C48.0008 61.4552 47.9877 61.3405 47.9775 61.2929C49.4008 58.903 54.3218 53.0124 56.405 51.3602L56.9709 51.3864C56.3836 52.975 55.2548 54.8932 54.5263 56.8812C56.6988 57.6058 58.2766 58.6433 60.0993 59.9457C63.0374 57.3256 66.1078 55.6584 69.356 53.5401C69.2544 53.6065 69.7801 50.3376 69.8806 49.972C70.5092 47.6863 71.7928 45.7318 72.626 43.5654Z" fill="#151546"/>
<path d="M56.405 51.3594C56.3583 51.8615 54.6372 55.4207 54.2542 56.7698C51.7561 58.4878 50.3138 59.5162 48.0283 61.4742C48.0008 61.4544 47.9877 61.3396 47.9775 61.292C49.4008 58.9021 54.3218 53.0116 56.405 51.3594Z" fill="#EFF0EA"/>
<path d="M40.6891 78.8441C40.6593 77.7588 41.2549 75.3917 41.5096 74.264C44.5935 60.6133 54.3459 47.2181 68.2881 43.3521C69.5127 43.0125 70.8732 42.517 72.1641 42.4563C74.2365 42.669 74.8605 42.1187 76.9389 42.8139C76.6132 43.0108 74.6135 42.7865 74.46 43.3016C74.0277 43.4121 73.5939 43.5171 73.1589 43.6169L72.6266 43.5652C68.4914 44.4601 59.4797 47.4858 57.1515 51.0872C57.0876 51.1844 57.0275 51.2842 56.9715 51.3863L56.4056 51.36C54.3224 53.0122 49.4014 58.9028 47.9781 61.2927C47.9883 61.3403 48.0014 61.4551 48.0289 61.4748L48.3418 61.8233C44.707 65.2396 42.0891 75.2572 41.2142 80.1952C41.194 80.3093 41.2233 80.7438 41.2399 80.8725L40.9743 81.0149L40.6837 80.7353C40.6579 80.64 40.7049 79.1834 40.6891 78.8441Z" fill="#182168"/>
<path d="M130.383 27.5074C133.305 26.3998 133.843 24.4382 135.281 22.4929L135.498 22.4707L135.658 22.7754C136.59 25.094 136.478 26.7282 138.301 28.1029C136.953 30.7858 134.105 32.8634 131.302 33.835C129.746 34.3744 127.99 34.5015 126.404 34.8468C126.613 35.6738 126.828 36.6007 127.083 37.406C127.559 37.7968 128.409 38.4578 128.819 38.8692C132.307 38.5681 136.154 35.1387 139.182 33.5442C139.595 33.2432 139.502 33.206 139.895 33.2511C140.125 33.8844 139.434 36.6097 139.324 37.5989C140.535 38.1126 141.88 38.5772 143.04 39.0885C139.839 41.1511 135.456 44.9335 131.418 45.2415C131.774 45.8166 132.522 49.149 132.844 50.0681C133.698 52.5592 134.314 55.1514 134.856 57.721C135.061 58.6945 134.898 59.9727 135.086 60.8865C135.678 63.7846 136.266 66.1513 135.382 69.0738C135.217 69.6208 135.483 71.4605 135.353 72.1375C135.095 74.8771 134.673 77.1801 134.051 79.8503C132.851 84.9832 130.698 89.8446 127.701 94.1811C127.907 94.5003 128.269 95.0285 128.403 95.3562C130.749 95.4096 134.208 95.2603 136.356 95.4924C137.177 95.4802 141.956 95.4216 142.47 95.5569L142.551 95.7183C141.985 96.1565 137.849 96.2654 137.136 96.0696C135.318 96.0828 133.61 96.3259 131.797 96.4601C130.395 96.5639 128.286 96.3964 126.973 96.6206C126.311 97.701 125.639 97.8751 124.935 98.7591C124.343 99.5558 123.802 100.406 123.192 101.189C120.734 104.343 118.133 106.967 114.991 109.444C111.35 112.315 106.818 116.156 102.087 116.892C102.196 116.655 102.302 116.416 102.404 116.176C103.251 114.179 102.267 113.282 100.488 112.566C99.6009 109.161 99.096 105.158 98.1497 101.915C97.8727 101.085 97.5588 99.5309 97.3788 98.6555L97.4952 98.3555C97.3746 98.1809 97.1584 97.7562 97.0816 97.591C97.0535 97.5308 96.9935 97.6977 96.7368 97.381C97.589 97.1359 101.175 95.4583 101.541 94.7976C102.73 92.6535 98.225 89.4199 97.1846 87.8508C96.8312 87.3386 96.4162 86.7448 96.1029 86.2137C92.7189 80.4721 87.8095 73.6794 80.4067 73.7191C79.0955 73.7262 77.7272 73.4233 76.3703 73.6435C75.919 73.7167 75.0618 73.8921 74.7168 73.6172C74.9837 72.7117 77.4463 73.0634 78.1151 72.6066C78.2254 72.6268 78.5595 72.6812 78.6471 72.7107L79.1812 72.1542C79.0823 72.0114 79.0328 71.6794 78.9904 71.4893C79.4887 71.0979 80.0413 70.6658 80.6245 70.3869C83.7516 68.8332 87.5374 68.1332 90.9182 69.3065C94.2406 70.4596 97.2717 71.9995 100.895 72.1554C102.92 72.2425 104.203 71.5823 105.944 70.6677C106.352 69.2769 106.83 68.3277 107.434 67.0217C106.487 67.2884 105.238 67.6794 104.291 67.7967C105.035 67.3321 105.904 66.9457 106.69 66.6065C112.885 63.9324 117.943 60.1145 120.063 53.4308C121.036 50.3653 119.207 47.7315 117.784 45.1511C114.855 47.03 110.474 49.0554 107.082 49.6552C105.679 49.6864 104.062 49.4545 102.662 49.2163C98.9749 48.5885 95.325 48.4718 91.8213 50.0002C90.6699 50.5025 88.9717 51.4621 87.7288 51.805C87.6056 51.839 87.1391 51.5739 86.9953 51.4941C86.3236 51.7621 84.0158 51.403 83.2646 51.2357C81.6032 50.9535 79.964 50.2712 78.4091 49.6481C77.8538 49.4255 77.3034 49.1509 76.7073 49.0843C76.6298 49.0382 76.3765 48.824 76.2913 48.7548L76.3577 48.6449L76.8523 48.038C76.3498 46.1561 77.6742 46.1367 77.7814 44.8686C77.584 44.4088 77.5206 44.2817 77.4922 43.7806L77.4871 43.6753C77.0984 43.2143 77.2904 43.3386 76.7264 43.1597C75.9943 43.2148 75.1884 43.2936 74.46 43.3011C74.6134 42.7859 76.6132 43.0103 76.9388 42.8134C74.8605 42.1181 74.2365 42.6685 72.1641 42.4557C73.442 42.0931 75.3927 42.3022 76.6597 42.3395C78.2894 42.3875 79.6187 39.7171 80.3988 38.6273C80.9047 37.9308 81.4514 37.2648 82.0361 36.633C87.4792 30.831 95.7848 29.539 103.386 30.8662C106.946 31.4877 111.112 34.2215 113.605 36.7488C114.029 37.1787 114.52 37.9384 115.059 38.068C115.316 37.8223 115.93 37.6232 116.282 37.6822C116.509 37.3906 116.902 36.4395 117.119 36.0138C118.01 33.3696 119.864 31.1058 122.171 29.5637L122.57 29.4163C124.173 28.7 128.241 28.1402 130.383 27.5074Z" fill="#1E266D"/>
<path d="M119.183 42.4744C119.434 42.366 119.545 42.2772 119.82 42.4401C123.765 44.7796 126.779 45.8325 131.418 45.2416C131.774 45.8167 132.523 49.1491 132.844 50.0682C133.698 52.5593 134.314 55.1515 134.856 57.7211C135.061 58.6946 134.899 59.9728 135.086 60.8866C135.678 63.7847 136.267 66.1514 135.382 69.0739C135.217 69.6209 135.483 71.4606 135.353 72.1376C135.095 74.8772 134.673 77.1802 134.051 79.8504C132.851 84.9833 130.698 89.8447 127.701 94.1812C127.907 94.5004 128.27 95.0286 128.403 95.3563C127.617 95.6478 122.266 95.3824 120.838 95.4948C124.211 93.5963 124.224 93.5817 125.67 89.8398C127.048 86.2759 128.038 83.2675 127.727 79.3478C127.718 76.7151 125.212 74.8457 123.019 73.9922C119.833 72.7523 121.363 73.2133 121.372 70.6221C121.376 69.3083 119.843 67.8394 118.737 66.9531C118.567 66.1772 118.505 65.8712 118.178 65.1305C117.801 65.3196 117.744 65.3584 117.418 65.6285C117.237 64.8001 116.279 63.0219 115.756 62.3516C115.91 62.2432 116.03 62.1246 116.169 61.9982L116.9 61.1538C120.081 57.4599 123.26 52.0524 120.107 47.3555C118.889 45.5409 117.484 44.3915 119.183 42.4744Z" fill="#EAEAF1"/>
<path d="M116.169 61.998C116.901 62.8228 117.879 64.0468 118.178 65.1303C117.801 65.3194 117.744 65.3582 117.418 65.6283C117.237 64.7999 116.279 63.0217 115.756 62.3514C115.91 62.2431 116.03 62.1244 116.169 61.998Z" fill="#272E6D"/>
<path d="M100.99 37.2736C102.392 37.1097 106.098 37.2366 107.576 37.3263C108.884 37.4403 112.008 37.7064 113.161 38.0704C113.679 38.2683 113.475 38.1661 113.832 38.5702C113.818 38.5542 114.406 38.6569 114.51 38.6837C114.342 38.8342 114.054 38.6148 113.973 38.7898L113.685 38.8118C114.827 39.0266 115.02 38.9567 115.901 39.6808C116.31 40.4227 117.494 43.1124 117.461 43.9398C116.923 45.3572 110.332 47.9543 108.629 48.6496C108.263 48.799 107.217 49.0771 106.971 49.2527L107.082 49.6552C105.678 49.6865 104.061 49.4546 102.662 49.2163C98.9746 48.5886 95.3247 48.4718 91.821 50.0003C90.6696 50.5026 88.9714 51.4621 87.7285 51.805C87.6053 51.839 87.1389 51.574 86.995 51.4941C86.3233 51.7622 84.0155 51.403 83.2643 51.2357C81.6029 50.9536 79.9637 50.2713 78.4088 49.6482C77.8535 49.4256 77.3031 49.151 76.707 49.0843C76.6295 49.0382 76.3762 48.824 76.291 48.7549L76.3574 48.6449L76.852 48.0381C76.3495 46.1561 77.6739 46.1367 77.7811 44.8686C77.5837 44.4088 77.5203 44.2817 77.4919 43.7807L77.4868 43.6754C78.6664 41.6819 83.3569 40.9373 85.7658 40.1469C87.8441 39.6604 89.9357 39.2329 92.0381 38.865C92.8026 38.7362 95.5173 38.3878 96.0754 38.204C97.3879 38.1036 98.7031 38.0423 100.019 38.0207C99.7699 37.8713 99.7403 37.8611 99.5512 37.6454C99.7747 37.416 100.332 37.4758 100.886 37.3059L100.99 37.2736Z" fill="#FE6C76"/>
<path d="M87.2168 51.2209C88.2007 50.7868 89.5706 49.9238 90.6047 49.423C94.5689 47.3935 98.5444 47.3026 102.819 48.1712C103.905 48.3922 106.076 49.2583 106.971 49.2528L107.082 49.6553C105.678 49.6865 104.061 49.4546 102.662 49.2163C98.9746 48.5886 95.3247 48.4718 91.821 50.0003C90.6696 50.5026 88.9714 51.4621 87.7285 51.805C87.6053 51.8391 87.1389 51.574 86.995 51.4941C86.3233 51.7622 84.0155 51.403 83.2643 51.2358C81.6029 50.9536 79.9637 50.2713 78.4088 49.6482C77.8535 49.4256 77.3031 49.151 76.707 49.0843C76.6295 49.0382 76.3762 48.8241 76.291 48.7549L76.3574 48.6449L76.852 48.0381C78.2443 49.1175 82.1793 50.2048 83.9605 50.6595C85.6062 51.1119 85.8456 50.9614 87.2168 51.2209Z" fill="#182168"/>
<path d="M100.991 37.2736C102.393 37.1097 106.099 37.2366 107.576 37.3263C107.19 37.6382 107.006 37.6645 106.524 37.7631L106.756 37.815L106.757 37.6839L106.826 37.6603L106.913 37.8253L107.876 37.8757L107.856 38.0607C105.59 38.1472 102.364 38.0335 100.02 38.0207C99.7705 37.8713 99.7408 37.8611 99.5518 37.6454C99.7752 37.416 100.333 37.4758 100.887 37.3059L100.991 37.2736Z" fill="#182168"/>
<path d="M107.575 37.3271C108.883 37.4412 112.008 37.7072 113.161 38.0713C113.679 38.2692 113.475 38.1669 113.832 38.571C113.818 38.555 114.406 38.6577 114.51 38.6845C114.342 38.8351 114.054 38.6156 113.973 38.7906L113.684 38.8127C111.794 38.5233 109.762 38.3064 107.856 38.0616L107.875 37.8765L106.912 37.8261L106.826 37.6611L106.757 37.6848L106.755 37.8158L106.523 37.7639C107.005 37.6654 107.189 37.6391 107.575 37.3271Z" fill="#151546"/>
<path d="M105.579 41.0674C108.51 41.0985 109.275 45.9776 106.814 47.4077C106.757 47.4048 106.7 47.401 106.644 47.3962C104.133 47.1847 103.276 42.8925 105.579 41.0674Z" fill="#232652"/>
<path d="M86.2254 42.7078C89.2147 42.3703 89.6044 47.0403 87.3793 48.942C84.5753 49.3522 83.9322 44.3619 86.2254 42.7078Z" fill="#232652"/>
<path d="M97.4953 98.3563C98.3703 97.984 100.271 97.0948 101.074 96.9739C103.704 96.579 106.128 96.7793 108.745 96.8812C109.967 96.9289 111.614 96.6217 112.875 96.5772C114.036 96.5364 115.52 96.8738 116.623 96.7769C118.163 96.6416 125.694 96.2748 126.973 96.6215C126.311 97.7018 125.639 97.8759 124.935 98.7599C124.343 99.5566 123.802 100.407 123.192 101.19C120.734 104.344 118.133 106.968 114.991 109.444C111.35 112.316 106.818 116.157 102.088 116.893C102.196 116.656 102.302 116.417 102.404 116.177C103.251 114.18 102.267 113.283 100.488 112.567C99.601 109.162 99.0961 105.158 98.1499 101.916C97.8729 101.086 97.5589 99.5318 97.3789 98.6564L97.4953 98.3563Z" fill="#EAEAF1"/>
<path d="M107.48 105.774C108.349 104.831 109.54 104.495 110.793 104.802C111.142 104.98 110.991 104.936 111.443 104.899C112.751 104.761 116.184 106.024 114.724 107.729C113.555 109.095 109 109.048 107.694 107.705C107.386 107.389 107.222 106.959 107.242 106.518C107.252 106.296 107.364 105.959 107.48 105.774Z" fill="#FEBE9C"/>
<path d="M111.443 104.899C112.751 104.761 116.184 106.024 114.724 107.729C113.555 109.095 109 109.048 107.694 107.705C107.386 107.389 107.222 106.959 107.242 106.517C107.252 106.296 107.364 105.959 107.48 105.774L107.727 106.335L107.96 106.094C108.202 107.904 110.003 107.86 111.484 107.876C112.312 107.885 113.881 107.716 114.229 106.831C114.03 105.536 112.353 105.634 111.443 104.899Z" fill="#151546"/>
<path d="M107.48 105.774C108.349 104.831 109.54 104.495 110.794 104.802C109.624 105.216 108.992 105.337 107.96 106.094L107.727 106.335L107.48 105.774Z" fill="#151546"/>
<path d="M114.638 73.2734C115.003 73.072 115.372 72.8467 115.767 72.7197C117.126 72.8444 117.958 73.0037 119.278 73.3884C121.539 74.1496 125.249 75.6465 126.236 77.9406C127.369 80.572 126.332 85.5294 125.277 88.1253C124.439 90.1886 123.955 92.7639 121.715 93.6561C119.036 94.8068 110.821 96.0381 108.985 92.896C108.48 92.0321 109.125 87.3838 109.577 86.3072C109.813 85.6221 110.617 84.3626 111.002 83.8072C110.771 83.4931 110.897 83.5687 110.538 83.5089C109.967 83.0368 110.015 82.8081 110.417 82.1973C112.297 79.3447 113.276 76.3397 114.638 73.2734Z" fill="#EFF0EA"/>
<path d="M110.538 83.5087C111.308 82.5876 112.201 81.4165 113.21 80.8027C112.585 81.662 111.657 83.0281 111.002 83.807C110.771 83.493 110.897 83.5685 110.538 83.5087Z" fill="#272E6D"/>
<path d="M101.384 73.1135C102.199 72.9896 103.032 72.8851 103.855 72.5827C106.844 71.4845 109.432 69.1506 112.624 71.2433C113.051 71.5238 113.572 72.3015 113.536 72.7114C113.313 75.1976 109.727 81.6225 108.276 83.472C107.152 84.9032 101.867 88.5814 100.375 89.5077C99.5381 88.6904 98.0399 87.2811 97.4153 86.358C97.3436 86.0483 97.4061 86.142 97.2031 85.9207C98.4422 84.6418 100.196 78.2989 100.611 76.3829C100.799 75.511 100.82 74.0245 100.796 73.1217L101.384 73.1135Z" fill="#EFF0EA"/>
<path d="M100.796 73.1215L101.384 73.1133C101.272 78.2056 99.9242 81.9609 97.4153 86.3577C97.3436 86.048 97.4061 86.1418 97.2031 85.9204C98.4422 84.6415 100.196 78.2986 100.611 76.3826C100.799 75.5107 100.82 74.0242 100.796 73.1215Z" fill="#151546"/>
<path d="M79.9844 40.9402C83.7664 35.8833 87.019 33.1704 93.4116 32.0061C99.6967 30.8615 104.82 31.4738 110.13 35.266C110.752 35.7104 113.041 37.3725 113.161 38.0703C112.008 37.7062 108.883 37.4401 107.575 37.3261C106.098 37.2364 102.392 37.1096 100.99 37.2735L100.886 37.3057C100.332 37.4757 99.7745 37.4158 99.5511 37.6452C99.7401 37.8609 99.7698 37.8711 100.019 38.0205C98.703 38.0422 97.3878 38.1034 96.0752 38.2038C95.5172 38.3876 92.8025 38.7361 92.0379 38.8648C89.9355 39.2328 87.8439 39.6602 85.7657 40.1468C85.2476 39.7992 85.8278 40.1699 85.631 39.3467C84.3759 39.5816 81.3668 40.5379 79.9844 40.9402Z" fill="#EFF0EA"/>
<path d="M85.6318 39.3469C87.5249 38.6496 93.1373 37.8949 95.3349 37.6201L95.2298 38.0612L95.3517 38.1996C95.581 38.1879 95.8652 38.1509 96.076 38.204C95.5179 38.3878 92.8032 38.7363 92.0387 38.865C89.9363 39.233 87.8447 39.6604 85.7664 40.147C85.2483 39.7994 85.8285 40.1701 85.6318 39.3469Z" fill="#182168"/>
<path d="M95.3346 37.6201C97.3254 37.3998 98.9673 37.2462 100.99 37.2737L100.887 37.3059C100.332 37.4759 99.775 37.416 99.5515 37.6454C99.7406 37.8611 99.7702 37.8713 100.02 38.0207C98.7034 38.0424 97.3882 38.1036 96.0757 38.204C95.8649 38.1509 95.5807 38.1879 95.3514 38.1996L95.2295 38.0612L95.3346 37.6201Z" fill="#1E266D"/>
<path d="M130.383 27.5074C133.304 26.3998 133.842 24.4382 135.281 22.4929L135.498 22.4707L135.658 22.7754C136.59 25.094 136.478 26.7282 138.301 28.1029C136.953 30.7858 134.104 32.8634 131.301 33.835C129.746 34.3744 127.989 34.5015 126.403 34.8468C124.553 34.8658 121.887 36.2629 120.572 37.5608C120.286 37.8434 119.658 38.5448 119.65 38.9688C119.901 38.9463 120.329 38.8888 120.56 38.93L120.466 39.1174L119.588 39.3537C119.519 39.509 119.462 39.6302 119.405 39.7916C119.258 40.3504 119.442 40.9957 119.681 41.5045C119.285 41.7257 119.183 41.6521 118.842 41.4626C118.745 40.9476 118.274 40.1893 118.011 39.7151C117.589 38.9554 117.327 38.7724 116.531 38.4748L116.48 38.3582C115.967 38.2713 115.562 38.1989 115.059 38.068C115.315 37.8223 115.93 37.6232 116.282 37.6822C116.509 37.3906 116.902 36.4395 117.119 36.0138C118.01 33.3696 119.863 31.1058 122.171 29.5637L122.57 29.4163C124.172 28.7 128.24 28.1402 130.383 27.5074Z" fill="#FE6C76"/>
<path d="M135.658 22.7764C136.59 25.095 136.478 26.7291 138.301 28.1038C136.953 30.7867 134.105 32.8643 131.302 33.836C129.746 34.3753 127.99 34.5024 126.404 34.8477C124.553 34.8667 121.887 36.2638 120.572 37.5617C120.286 37.8443 119.658 38.5457 119.65 38.9698L119.557 39.0554C119.16 39.0493 119.087 38.8794 118.709 38.5864C121.641 33.0849 126.571 34.2184 131.511 32.7082C133.929 31.9686 135.999 30.0097 137.902 28.4089C136.289 26.8861 136.23 26.419 135.77 24.1496C135.676 23.6821 135.76 23.4682 135.478 23.0636L135.658 22.7764Z" fill="#1E266D"/>
<path d="M122.57 29.417C123.098 29.9383 122.864 29.6566 123.105 30.174C119.99 32.254 119.349 33.4664 117.716 36.8C117.575 37.1683 117.455 37.4883 117.284 37.8453C117.679 38.0298 118.394 38.3311 118.709 38.5862C119.086 38.8792 119.16 39.049 119.557 39.0552L119.65 38.9695C119.901 38.947 120.329 38.8895 120.56 38.9307L120.466 39.1181L119.588 39.3544C119.519 39.5097 119.462 39.6309 119.405 39.7923C119.258 40.3511 119.442 40.9964 119.681 41.5052C119.285 41.7264 119.183 41.6528 118.842 41.4632C118.745 40.9483 118.274 40.19 118.011 39.7158C117.589 38.9561 117.327 38.7731 116.531 38.4755L116.48 38.3589C115.967 38.272 115.562 38.1996 115.059 38.0687C115.315 37.823 115.93 37.6239 116.282 37.6829C116.509 37.3913 116.902 36.4402 117.119 36.0145C118.01 33.3703 119.863 31.1065 122.171 29.5644L122.57 29.417Z" fill="#272E6D"/>
<path d="M130.384 27.5074C133.305 26.3998 133.843 24.4382 135.281 22.4929L135.498 22.4707L135.658 22.7754L135.478 23.0627L135.411 23.1543C135.196 23.4537 135.042 23.718 134.882 24.0493C133.896 26.0865 132.342 27.5608 130.169 28.2802C128.009 29.2093 125.3 29.3023 123.106 30.1733C122.864 29.6559 123.099 29.9376 122.57 29.4163C124.173 28.7 128.241 28.1402 130.384 27.5074Z" fill="#182168"/>
<path d="M79.1806 72.1542C82.2304 70.2558 85.9512 69.1775 89.5422 69.9865C90.8264 70.2759 92.6393 71.0968 93.936 71.6011C96.1323 72.4527 98.4452 72.9653 100.796 73.1211C100.82 74.0238 100.799 75.5104 100.61 76.3822C100.196 78.2982 98.4419 84.6411 97.2028 85.9201C94.8475 81.9143 93.0078 79.2019 89.3657 76.2556C85.3752 73.0276 83.4507 73.2438 78.6465 72.7107L79.1806 72.1542Z" fill="#EFF0EA"/>
<path d="M139.038 33.9102C139.636 35.9714 136.006 37.7997 141.032 39.4037C136.266 42.4412 132.035 45.1487 126.041 43.9191C124.151 43.5316 121.611 42.2125 119.682 41.5045C119.442 40.9957 119.258 40.3505 119.405 39.7916C121.72 39.7988 124.05 40.013 126.38 40.0603C131.241 40.159 135.501 36.9653 139.038 33.9102Z" fill="#FE6C76"/>
<path d="M113.338 64.2852C113.473 64.4133 115.614 65.7543 115.772 65.8081C116.827 66.6744 118.312 67.4903 118.553 68.748L118.632 68.3829C118.677 68.5623 118.732 68.9106 118.836 69.0234L119.128 68.8089C120.208 69.2727 120.49 71.8726 119.597 72.8852L119.277 73.3885C117.957 73.0037 117.125 72.8445 115.767 72.7198C115.371 72.8468 115.003 73.072 114.637 73.2735L114.519 72.8101C114.353 72.5813 114.25 72.1982 114.1 71.9401C112.317 68.8516 109.269 69.359 106.536 70.3705C107.978 67.7203 110.453 65.2568 113.338 64.2852Z" fill="#EFF0EA"/>
<path d="M109.407 66.7646C111.82 68.2481 114.398 70.0927 116.26 72.2177C117.367 72.4403 118.488 72.6766 119.597 72.885L119.277 73.3882C117.958 73.0035 117.126 72.8443 115.767 72.7196C115.372 72.8465 115.003 73.0718 114.638 73.2732L114.519 72.8099C114.784 72.6054 115.261 72.2626 115.495 72.0544C113.491 70.1095 111.132 68.9681 109.407 66.7646Z" fill="#182168"/>
<path d="M118.554 68.7479L118.633 68.3828C118.678 68.5622 118.733 68.9105 118.837 69.0233C118.784 70.4253 117.216 71.5068 116.193 72.2479C117.291 70.7083 117.824 70.6142 118.554 68.7479Z" fill="#232652"/>
<path d="M119.65 38.9688C119.658 38.5447 120.286 37.8433 120.573 37.5607C121.887 36.2628 124.553 34.8657 126.404 34.8467C126.613 35.6737 126.828 36.6007 127.083 37.4059C127.559 37.7967 128.409 38.4577 128.819 38.8691C125.622 39.3738 122.923 38.6313 120.561 38.93C120.33 38.8888 119.901 38.9462 119.65 38.9688Z" fill="#EFF0EA"/>
<path d="M115.755 62.3516C116.278 63.0219 117.236 64.8 117.418 65.6285C117.055 65.7635 117.206 65.7371 116.756 65.6354L116.614 65.9923C116.141 65.9547 116.233 65.7721 115.773 65.808C115.614 65.7542 113.473 64.4132 113.338 64.285L113.59 63.9234C114.227 63.6804 115.188 62.8182 115.755 62.3516Z" fill="#EFF0EA"/>
<path d="M113.338 64.2855L113.59 63.9238C114.356 64.4141 116.508 65.1459 116.756 65.6359L116.614 65.9927C116.141 65.9552 116.233 65.7725 115.773 65.8084C115.614 65.7546 113.473 64.4136 113.338 64.2855Z" fill="#272E6D"/>
<path d="M116.531 38.4746C117.327 38.7723 117.589 38.9552 118.011 39.715C118.274 40.1891 118.745 40.9474 118.842 41.4624C118.681 41.7671 118.612 41.8687 118.564 42.2169C118.419 42.2424 118.289 42.2393 118.142 42.2437C117.608 41.7751 117.265 40.2 116.893 39.5498C116.74 39.2807 116.358 38.8118 116.16 38.5591L116.531 38.4746Z" fill="#FE6C76"/>
<path d="M136.356 95.4928C137.177 95.4806 141.955 95.422 142.469 95.5573L142.551 95.7187C141.984 96.157 137.848 96.2658 137.135 96.07C136.734 96.0121 136.43 95.9805 136.042 95.8491C136.354 95.8396 136.968 95.8639 137.211 95.7128L137.399 95.7649C137.015 95.5702 136.76 95.7304 136.356 95.4928Z" fill="#182168"/>
<path d="M109.372 83.8408C109.71 83.9594 109.607 83.87 109.783 84.1515C109.758 84.7247 108.638 86.6102 108.462 87.4766C107.687 91.2906 106.466 94.3381 111.174 95.7087C108.685 95.9362 106.772 95.7149 104.302 95.5449C103.666 95.5183 103.183 95.6544 102.568 95.7907L102.496 95.6864C104.006 93.6685 102.42 92.0935 101.201 90.3714C104.576 88.1249 106.552 86.7995 109.372 83.8408Z" fill="#EDEDEF"/>
<path d="M32.157 88.7701C33.06 88.7958 34.6825 87.0277 35.5842 86.6605C36.2244 86.3998 36.6003 86.348 37.2893 86.2686L37.3013 86.3351C35.6025 87.2078 31.9925 89.5413 30.8151 90.9166L30.8247 91.118C31.008 91.017 32.0698 90.1635 32.3048 89.9857C34.6278 88.2285 35.2607 87.3639 38.0435 86.4841C38.9464 87.0102 40.3893 87.9925 41.3068 88.3294C43.9309 89.2925 44.5696 88.706 46.8701 90.4684L47.0681 89.8047C50.0831 91.6874 56.629 93.1342 60.2267 93.5106C62.5342 92.4759 63.3235 92.3777 65.8096 91.8856L66.5281 92.6222C68.2944 92.3516 70.5948 91.9012 72.3135 91.756C78.6633 91.2196 93.3802 92.1305 96.8038 98.4718L97.073 98.3991C97.1527 98.464 97.316 98.5879 97.379 98.6563C97.559 99.5318 97.8729 101.086 98.1499 101.916C99.0962 105.158 99.6011 109.162 100.488 112.567C102.267 113.283 103.251 114.18 102.404 116.177C102.302 116.417 102.196 116.656 102.088 116.893C101.901 117.172 101.422 117.718 101.159 117.945C94.3342 123.828 83.7505 125.005 75.1289 124.715C67.331 124.454 58.3892 123.98 52.3223 118.665C50.5862 117.144 50.6005 115.71 50.6044 113.627C47.927 111.849 45.8134 110.111 43.3966 108.08C40.622 105.749 38.9455 104.551 36.9711 101.439C36.0323 99.9602 34.6503 99.608 34.1331 97.3951C33.5128 97.247 30.4569 97.3536 29.5157 97.3104C27.7231 97.2281 25.6399 96.9662 23.9102 97.0627C23.4154 96.9609 23.5653 96.9943 23.2002 96.4599C25.5054 96.3261 27.0873 96.4072 29.3661 96.5562C25.9023 94.4531 27.1104 93.2337 29.4262 90.7222C29.9324 90.5116 31.3919 89.2216 32.157 88.7701Z" fill="#FEBE9C"/>
<path d="M66.5274 92.6215C68.2937 92.3509 70.5942 91.9006 72.3129 91.7553C78.6626 91.2189 93.3796 92.1298 96.8031 98.4711L97.0723 98.3984C97.1521 98.4633 97.3153 98.5873 97.3783 98.6557C97.5583 99.5311 97.8723 101.086 98.1493 101.915L97.8389 102.42L97.6492 102.406C97.5653 102.195 97.5226 102.039 97.3716 101.868L97.2281 102.061C94.5367 105.683 89.095 107.46 84.8321 108.291C79.9302 109.039 75.8635 109.416 70.9094 108.919C70.1259 108.84 68.413 108.795 67.7561 108.608L66.9976 108.526L67.5021 107.761L65.6073 107.376C62.6306 106.519 60.8132 106.175 58.2316 104.585C52.3064 100.936 54.5949 97.261 59.8111 94.7436C62.4066 93.4909 63.6874 93.1803 66.5274 92.6215Z" fill="#FEBE9C"/>
<path d="M69.5511 107.97C71.4342 108.028 73.6521 108.42 75.5485 108.455C78.3729 108.507 81.3213 108.142 84.1157 107.792C84.3662 108.045 84.4803 108.201 84.8319 108.291C79.93 109.039 75.8633 109.416 70.9092 108.919C70.1257 108.84 68.4128 108.795 67.7559 108.608C68.8491 108.706 68.657 108.618 69.5511 107.97Z" fill="#1E266D"/>
<path d="M96.8034 98.4711L97.0726 98.3984C97.1524 98.4633 97.3157 98.5873 97.3786 98.6557C97.5587 99.5311 97.8726 101.086 98.1496 101.915L97.8392 102.42L97.6495 102.406C97.5656 102.195 97.5229 102.039 97.372 101.868L97.2285 102.061C94.537 105.683 89.0953 107.46 84.8324 108.291C84.4808 108.201 84.3668 108.045 84.1162 107.792C84.4245 107.755 84.7322 107.714 85.0395 107.669C89.4781 107.015 94.5636 104.956 97.3173 101.243C97.2583 100.207 97.0661 99.4623 96.8034 98.4711Z" fill="#151546"/>
<path d="M67.5026 107.761C68.1912 107.821 68.8664 107.876 69.5518 107.97C68.6577 108.618 68.8498 108.706 67.7566 108.607L66.998 108.526L67.5026 107.761Z" fill="#182168"/>
<path d="M65.8086 105.109C67.1853 105.232 68.6368 105.693 70.0288 105.761C72.8618 105.952 75.7408 105.784 78.5694 105.85C81.5953 105.92 83.7854 105.522 86.7003 104.855L87.28 105.154C80.5219 107.298 72.3221 106.882 65.3852 105.742C65.604 105.718 65.8072 105.687 66.0246 105.653C65.8704 105.499 64.8214 105.27 64.5254 105.192C64.8566 105.059 65.1359 105.355 65.8086 105.109Z" fill="#1E266D"/>
<path d="M73.712 101.341C76.3481 101.228 83.0032 101.77 85.3562 102.713L85.3311 102.868C84.2951 102.887 83.0354 102.669 81.984 102.554C79.4998 102.28 77.1038 101.892 74.5939 101.899C72.272 101.898 69.9257 102.348 67.6658 102.837C66.937 102.995 64.2483 104.306 63.8428 103.872C65.3905 102.134 71.3729 101.477 73.712 101.341Z" fill="#FFF2F1"/>
<path d="M56.291 99.8718C56.9989 96.7016 59.7783 96.0308 62.4794 94.9121L62.8242 95.4934C51.6817 99.383 58.6082 103.472 65.8084 105.108C65.1357 105.354 64.8564 105.059 64.5252 105.191C64.8213 105.27 65.8703 105.499 66.0245 105.653C65.807 105.686 65.6038 105.717 65.385 105.742C62.7678 105.086 57.7372 103.655 56.513 100.724C56.4332 100.533 56.3394 100.08 56.291 99.8718Z" fill="#182168"/>
<path d="M63.5479 94.5246C65.1583 94.3349 67.3241 93.6739 68.7319 93.5023C73.127 92.9666 83.8584 92.9726 87.5996 94.9816C85.1428 94.5163 82.5683 93.8454 80.0856 93.7248C75.0973 93.4828 69.2907 93.6077 64.4468 94.9623C63.9908 94.8408 63.927 94.7884 63.5479 94.5246Z" fill="#232652"/>
<path d="M86.7002 104.855C88.6191 104.228 91.0599 103.578 92.5919 102.289C93.1962 101.787 93.7225 101.198 94.1541 100.542C94.3388 100.255 94.4163 99.8837 94.6972 99.9764C94.6864 100.669 93.6293 101.734 93.1416 102.226C91.5485 103.833 89.387 104.474 87.2799 105.154L86.7002 104.855Z" fill="#151546"/>
<path d="M62.4795 94.913L63.5475 94.5254C63.9267 94.7892 63.9905 94.8416 64.4465 94.963C63.9557 95.1134 63.2831 95.2976 62.8243 95.4943L62.4795 94.913Z" fill="#1E266D"/>
<path d="M32.157 88.7701C33.06 88.7958 34.6825 87.0277 35.5842 86.6605C36.2244 86.3998 36.6003 86.348 37.2893 86.2686L37.3013 86.3351C35.6025 87.2078 31.9925 89.5413 30.8151 90.9166L30.8247 91.118C31.008 91.017 32.0698 90.1635 32.3048 89.9857C34.6278 88.2285 35.2607 87.3639 38.0435 86.4841C38.9464 87.0102 40.3893 87.9925 41.3068 88.3294C43.9309 89.2925 44.5696 88.706 46.8701 90.4684L47.0681 89.8047C50.0831 91.6874 56.629 93.1342 60.2267 93.5106C62.5342 92.4759 63.3235 92.3777 65.8096 91.8856L66.5281 92.6222C63.6881 93.181 62.4073 93.4916 59.8118 94.7443C54.5956 97.2617 52.3071 100.937 58.2323 104.586C60.8139 106.176 62.6312 106.52 65.6079 107.377L65.4847 107.518L65.578 107.754C64.83 108.148 64.3851 107.45 63.6026 107.526L63.4959 107.654C59.9209 106.722 57.1912 105.598 54.6751 102.726C54.7848 104.901 54.2309 106.8 54.1033 108.98C53.9726 109.7 54.1872 111.44 53.8979 112.037C53.1966 113.485 51.2402 113.737 51.8898 115.798C52.4099 117.448 54.6187 119.067 56.116 119.842C62.664 123.25 70.1924 123.39 77.3944 123.426C82.1936 123.449 86.8927 123.218 91.5131 121.762C94.9348 120.684 99.5464 118.913 101.433 115.641C102.217 114.282 100.786 113.856 99.7845 113.324C98.5532 111.021 98.2316 103.969 97.2288 102.061L97.3723 101.868C97.5232 102.04 97.5659 102.195 97.6498 102.407L97.8395 102.421L98.1499 101.916C99.0962 105.158 99.6011 109.162 100.488 112.567C102.267 113.283 103.251 114.18 102.404 116.177C102.302 116.417 102.196 116.656 102.088 116.893C101.901 117.172 101.422 117.718 101.159 117.945C94.3342 123.828 83.7505 125.005 75.1289 124.715C67.331 124.454 58.3892 123.98 52.3223 118.665C50.5862 117.144 50.6005 115.71 50.6044 113.627C47.927 111.849 45.8134 110.111 43.3966 108.08C40.622 105.749 38.9455 104.551 36.9711 101.439C36.0323 99.9602 34.6503 99.608 34.1331 97.3951C33.5128 97.247 30.4569 97.3536 29.5157 97.3104C27.7231 97.2281 25.6399 96.9662 23.9102 97.0627C23.4154 96.9609 23.5653 96.9943 23.2002 96.4599C25.5054 96.3261 27.0873 96.4072 29.3661 96.5562C25.9023 94.4531 27.1104 93.2337 29.4262 90.7222C29.9324 90.5116 31.3919 89.2216 32.157 88.7701Z" fill="#182168"/>
<path d="M34.1328 97.395C36.058 97.3685 38.5325 97.574 40.3566 97.4535C45.0256 97.1452 50.0647 97.6383 54.6699 97.2314C53.4963 99.917 53.7616 101.733 53.4245 104.47C53.0822 107.249 52.7083 108.621 52.9066 111.538C52.0816 112.222 51.378 112.891 50.6041 113.627C47.9267 111.849 45.8131 110.111 43.3964 108.08C40.6217 105.749 38.9452 104.55 36.9708 101.439C36.032 99.9601 34.6501 99.6079 34.1328 97.395Z" fill="#EAEAF1"/>
<path d="M30.8246 91.1173C31.0079 91.0163 32.0697 90.1628 32.3047 89.985C34.6277 88.2278 35.2606 87.3632 38.0434 86.4834C38.9463 87.0095 40.3892 87.9918 41.3067 88.3287C43.9308 89.2918 44.5695 88.7052 46.87 90.4677C47.5427 90.8994 48.2309 91.3665 48.9452 91.7197C45.0136 94.3015 43.169 95.6682 38.2156 95.4704C35.6676 95.3688 32.8727 95.7261 30.3241 95.2665C26.4404 94.6065 29.4205 92.4697 30.8246 91.1173Z" fill="#EFF0EA"/>
<path d="M49.9162 92.1777C53.2792 93.467 55.0663 93.7696 58.5692 94.3618C55.8474 95.7696 56.1025 96.0726 52.8615 96.1403C49.9846 96.1251 47.1966 96.2761 44.3174 96.1518C46.672 94.867 47.9377 93.9155 49.9162 92.1777Z" fill="#EDEDEF"/>
<path d="M63.4961 107.654L63.6028 107.526C64.3852 107.45 64.8302 108.148 65.5781 107.754L65.4849 107.518L65.6081 107.377L67.5029 107.762L66.9984 108.526C65.9941 108.308 64.4143 108.021 63.4961 107.654Z" fill="#1E266D"/>
<path d="M54.4648 114.466C55.2358 114.592 56.7782 116.862 58.9523 117.648C63.6518 119.301 68.5749 120.234 73.5537 120.413C74.6608 120.459 79.2652 120.401 79.925 120.602L79.9252 120.762C72.847 121.269 65.7416 120.878 58.9627 118.251C57.4849 117.678 55.0593 116.001 54.4648 114.466Z" fill="#FEF4F4"/>
<path d="M94.7961 106.381C94.8692 106.425 95.0777 106.577 95.0938 106.642C95.5108 108.327 97.8853 113.701 97.7621 115.038C96.5104 114.415 94.6509 107.873 94.7961 106.381Z" fill="#EFF0EA"/>
<path d="M93.8684 110.336C94.3237 110.621 94.4455 111.789 94.4383 112.298C93.7031 111.815 93.5759 111.13 93.8684 110.336Z" fill="#FFCAB8"/>
<path d="M74.0036 56.1283C74.491 53.7812 74.4568 50.9281 76.2909 48.7549C76.376 48.824 76.6294 49.0382 76.7068 49.0843C76.0011 52.4253 74.0806 55.5213 76.3613 58.8695C79.4239 63.3658 86.8012 67.6126 92.2051 67.7712L92.2995 67.9303C91.5717 68.4507 89.3175 68.073 88.4688 67.9832C86.6611 67.7918 84.9945 66.8276 83.4298 66.4022C80.2332 69.5355 76.3119 71.4866 73.085 74.4074C69.0477 78.0617 66.1308 84.0001 61.2052 86.7451C57.9921 88.5358 53.6404 89.7933 49.9824 89.8226C49.3498 89.8278 47.4859 89.5623 47.0674 89.804L46.8694 90.4676C44.569 88.7052 43.9303 89.2917 41.3062 88.3287C40.3887 87.9918 38.9457 87.0094 38.0429 86.4833C35.26 87.3632 34.6271 88.2277 32.3041 89.985C32.0692 90.1628 31.0073 91.0162 30.824 91.1173L30.8145 90.9158C31.9918 89.5405 35.6018 87.2071 37.3006 86.3343L37.2886 86.2678C36.5997 86.3473 36.2238 86.3991 35.5835 86.6597C34.6818 87.0269 33.0594 88.795 32.1564 88.7693C33.9545 87.3793 35.1415 86.2402 37.4353 85.9714C37.3096 85.7968 37.1863 85.6203 37.066 85.4419C35.0054 82.3682 38.1023 81.4115 40.2042 80.1229C40.6355 79.8586 40.5978 79.3446 40.6886 78.8436C40.7044 79.1829 40.6574 80.6396 40.6832 80.7348L40.9738 81.0145C42.1047 82.4387 43.5833 82.9907 45.3394 83.1814C45.4236 83.1908 45.508 83.1981 45.5926 83.2033C45.9347 83.1654 46.2757 83.1761 46.5242 82.9676L46.473 82.7936C51.6573 82.7305 52.866 82.297 57.1544 79.4633L57.3493 79.3323C57.3562 78.7745 57.3381 78.3858 57.2906 77.8296C57.7457 73.5614 58.3842 69.3148 59.2044 65.1015C59.3907 64.1034 59.8354 61.51 60.2083 60.7568C61.0632 59.0303 68.2287 54.5378 69.7063 53.9977C70.9962 54.7931 72.291 55.619 73.6367 56.3132L74.0036 56.1283Z" fill="#272E6D"/>
<path d="M57.2907 77.83C57.7459 73.5618 58.3843 69.3152 59.2045 65.1019C59.3909 64.1038 59.8356 61.5104 60.2084 60.7572C61.0633 59.0307 68.2289 54.5382 69.7065 53.998C70.9963 54.7935 72.2911 55.6194 73.6368 56.3136C73.741 56.3688 73.8704 56.4375 74.0251 56.5193C74.443 57.3304 74.9219 59.13 75.4412 59.8454C76.2333 60.9371 77.5199 61.9561 78.3778 63.021C78.4521 63.1131 78.3704 63.2688 78.3352 63.3539C78.6596 63.6533 78.5618 63.5651 79.0816 63.6131C77.2092 64.268 75.0557 66.0267 73.5526 67.3192C73.4817 67.427 73.3498 67.6057 73.3138 67.7178C68.627 70.451 67.7282 71.4937 64.3493 75.7126L63.9589 76.0705C62.8978 76.9569 61.8092 77.9415 60.7069 78.7683C59.2523 79.8593 56.0519 80.8171 55.2619 82.4788C55.1563 82.295 55.0629 82.2943 54.8424 82.1733C52.7276 83.0622 50.7334 83.4501 48.4425 83.4142C48.1619 83.4098 46.4128 83.3849 46.2651 83.4509L45.7227 83.3861L45.5928 83.2037C45.9348 83.1658 46.2758 83.1765 46.5244 82.968L46.4731 82.794C51.6574 82.7309 52.8662 82.2974 57.1545 79.4637L57.3494 79.3327C57.3563 78.7749 57.3382 78.3862 57.2907 77.83Z" fill="#EFF0EA"/>
<path d="M57.3494 79.3323C62.4363 77.1715 64.7783 73.0148 68.5524 69.4465C69.6803 68.3801 71.4483 67.8911 72.0475 67.3441C74.6227 64.9926 74.8951 64.301 78.3352 63.3535C78.6596 63.6528 78.5618 63.5647 79.0816 63.6127C77.2092 64.2676 75.0557 66.0262 73.5526 67.3188C73.4817 67.4266 73.3498 67.6052 73.3138 67.7173C68.627 70.4505 67.7282 71.4932 64.3493 75.7122L63.9589 76.0701C62.8978 76.9565 61.8092 77.9411 60.7069 78.7679C59.2523 79.8588 56.0519 80.8166 55.2619 82.4784C55.1563 82.2946 55.0629 82.2938 54.8424 82.1729C52.7276 83.0618 50.7334 83.4497 48.4425 83.4138C48.1619 83.4094 46.4128 83.3844 46.2651 83.4504L45.7227 83.3857L45.5928 83.2033C45.9348 83.1653 46.2758 83.1761 46.5244 82.9676L46.4731 82.7936C51.6574 82.7305 52.8662 82.297 57.1545 79.4633L57.3494 79.3323Z" fill="#272E6D"/>
<path d="M55.2622 82.4786C56.0522 80.8169 59.2526 79.8591 60.7073 78.7681C61.8096 77.9413 62.8981 76.9567 63.9592 76.0703C64.0663 77.9067 64.556 79.7003 65.397 81.3363C63.6506 84.1793 57.9736 87.4927 54.6683 87.8566C54.6179 85.6586 54.7705 84.6181 55.2622 82.4786Z" fill="#EFF0EA"/>
<path d="M73.3139 67.7178C74.6346 68.4918 75.1238 69.2459 75.743 70.5732C75.4556 71.3382 72.6665 73.1299 71.8983 73.8909C69.6346 76.1334 67.9522 78.8515 65.6618 81.0491L65.3968 81.3365C64.5557 79.7005 64.0661 77.9069 63.959 76.0705L64.3494 75.7126C67.7283 71.4937 68.6271 70.451 73.3139 67.7178Z" fill="#EFF0EA"/>
<path d="M64.3494 75.7129C64.6786 77.575 64.9119 79.3076 65.6618 81.0494L65.3968 81.3367C64.5557 79.7008 64.0661 77.9072 63.959 76.0708L64.3494 75.7129Z" fill="#232652"/>
<path d="M54.8424 82.1729C55.063 82.2938 55.1564 82.2946 55.2619 82.4784C54.7702 84.6178 54.6177 85.6584 54.6681 87.8563C54.4713 87.9087 54.1955 87.9683 54.0273 88.0643C52.2964 88.8884 46.0891 88.4383 44.1207 87.8113L43.5908 87.7603C44.2264 85.7119 44.4903 85.171 45.7227 83.3856L46.2652 83.4504C46.4128 83.3844 48.162 83.4093 48.4426 83.4137C50.7334 83.4496 52.7276 83.0617 54.8424 82.1729Z" fill="#EFF0EA"/>
<path d="M54.8424 82.1729C55.063 82.2938 55.1563 82.2946 55.2619 82.4784C54.7702 84.6178 54.6177 85.6584 54.6681 87.8563C54.4713 87.9087 54.1955 87.9683 54.0273 88.0643C54.0656 86.3316 54.3674 83.8374 54.8424 82.1729Z" fill="#232652"/>
<path d="M45.7227 83.3857L46.2652 83.4505C45.0499 84.8912 44.5826 86.0282 44.1207 87.8114L43.5908 87.7604C44.2264 85.712 44.4903 85.1711 45.7227 83.3857Z" fill="#151546"/>
<path d="M79.0813 63.6133C80.2519 64.3773 81.5221 65.1556 82.6695 65.9246C81.7533 66.8647 77.4654 69.9189 76.2345 70.5033C76.0218 70.5945 75.9678 70.5794 75.7426 70.5734C75.1234 69.2461 74.6342 68.492 73.3135 67.718C73.3495 67.6059 73.4814 67.4272 73.5523 67.3194C75.0554 66.0269 77.2089 64.2682 79.0813 63.6133Z" fill="#EFF0EA"/>
<path d="M73.3135 67.7179C73.3495 67.6058 73.4814 67.4272 73.5523 67.3193C74.806 68.1164 75.7496 69.0456 76.2345 70.5033C76.0218 70.5945 75.9678 70.5794 75.7426 70.5733C75.1234 69.246 74.6342 68.4919 73.3135 67.7179Z" fill="#232652"/>
<path d="M40.6836 80.7354L40.9742 81.015C42.1051 82.4393 43.5837 82.9912 45.3398 83.1819C45.424 83.1914 45.5084 83.1987 45.593 83.2039L45.7229 83.3863C44.4905 85.1716 44.2266 85.7126 43.591 87.7609C43.1931 87.8256 41.5414 87.1939 41.1273 86.9719C39.5701 86.137 38.3098 85.22 37.4473 83.6481C38.4238 82.3048 39.3596 81.7146 40.6836 80.7354Z" fill="#EFF0EA"/>
<path d="M66.0713 83.3105C67.4257 85.8662 67.8354 86.5199 70.1827 88.3359C69.913 87.1933 69.5183 85.5881 69.4533 84.4427C70.5944 86.8981 71.5346 89.5475 74.4196 90.7485C75.3871 91.1511 77.9774 90.9562 79.1943 91.0524C84.3628 91.4611 89.6489 92.1243 94.0719 95.076C94.9403 95.6555 96.1637 96.4978 96.7369 97.381C96.9937 97.6977 97.0536 97.5308 97.0817 97.591C97.1586 97.7562 97.3748 98.1808 97.4953 98.3554L97.3789 98.6555C97.3159 98.5871 97.1527 98.4631 97.0729 98.3983L96.8037 98.4709C93.3802 92.1297 78.6632 91.2187 72.3135 91.7551C70.5948 91.9004 68.2943 92.3508 66.528 92.6213L65.8096 91.8848C67.4105 91.5529 71.2005 91.2506 72.286 90.8303C72.0062 89.4252 67.2094 89.1121 66.2433 84.2754C66.1804 83.9548 66.1231 83.6332 66.0713 83.3105Z" fill="#182168"/>
<path d="M78.9905 71.4893C79.033 71.6794 79.0825 72.0113 79.1814 72.1542L78.6472 72.7106C78.5597 72.6811 78.2256 72.6267 78.1152 72.6065C78.3318 72.0694 78.5666 71.8949 78.9905 71.4893Z" fill="#272E6D"/>
<path d="M83.0986 54.3254C83.5486 54.3081 83.7323 54.2126 84.0194 54.434C83.7991 55.0235 83.7419 54.9105 83.8546 55.4436C84.7809 56.6032 89.7998 57.5155 91.3 57.6753C97.6734 58.3537 104.833 57.1844 109.992 53.1886C110.163 52.6368 109.69 52.6566 109.958 52.1448C111.157 51.7367 112.733 53.1964 113.513 54.0047C112.691 53.8523 111.818 53.7064 111.012 53.5072C106.454 57.4604 100.175 59.1253 94.1196 59.0761C91.384 59.054 84.9563 57.6336 83.165 55.4393C83.2805 55.3364 83.27 55.3176 83.3507 55.1768C83.2586 54.8955 83.1745 54.6115 83.0986 54.3254Z" fill="#1E266D"/>
<path d="M83.1649 55.4391C82.5859 55.4643 82.5334 56.0121 81.6925 56.2911L81.54 56.1895C81.5689 55.3401 82.4419 54.7068 83.0985 54.3252C83.1743 54.6113 83.2585 54.8952 83.3506 55.1765C83.2698 55.3174 83.2804 55.3362 83.1649 55.4391Z" fill="#182168"/>
<path d="M125.133 114.03C126.092 113.895 128.061 114.106 127.896 115.44C127.501 116.022 126.884 116.103 126.21 116.257C125.241 116.326 123.826 116.273 123.351 115.259C123.433 114.306 124.347 114.214 125.133 114.03Z" fill="#FEBE9C"/>
<path d="M19.9379 97.067C18.258 96.9445 14.5202 97.2876 13.3398 96.6193L13.4385 96.482C13.9918 96.3117 19.6068 96.4493 20.5383 96.4808C20.389 96.6375 20.1025 96.9644 19.9379 97.067Z" fill="#182168"/>
<path d="M20.5379 96.4811C21.6061 96.5686 22.327 96.4172 23.1999 96.4599C23.565 96.9943 23.4151 96.9609 23.9099 97.0627C23.2265 97.3229 20.773 97.3169 19.9375 97.0674C20.1022 96.9647 20.3886 96.6378 20.5379 96.4811Z" fill="#151546"/>
</svg>
