<svg width="505" height="408" viewBox="0 0 505 408" fill="none" xmlns="http://www.w3.org/2000/svg">
<path d="M264.117 29.561C266.992 28.5733 268.852 28.2963 271.81 27.8525C271.785 28.845 271.577 30.179 272.385 30.8133C273.147 30.4755 274.915 29.6365 275.672 30.0768C277.097 30.9058 278.255 30.1915 279.952 30.362C280.93 30.8563 281.55 31.8938 282.24 32.8028C287.447 29.2463 287.272 33.077 290.852 33.483C297.095 34.1913 297.712 32.6435 303.44 36.6205C310.277 37.03 315.452 39.841 321.52 42.7933C321.662 42.8625 322.127 44.3888 322.312 44.766C323.47 45.0993 323.417 44.8538 324.72 44.5073C326.342 44.8413 327.125 46.4765 328.117 47.9063C336.082 48.7135 334.922 50.479 341.102 55.2383C342.232 56.1095 345.05 57.0525 346.445 58.2383C348.32 59.8315 349.737 61.5593 351.68 63.0758C352.847 63.9878 355.792 64.7543 356.727 65.41C360.81 68.3558 364.607 72.096 367.892 75.9103C370.68 79.1438 373.05 82.6015 376.112 85.6433C377.072 86.596 377.775 88.9803 378.95 90.123C382.032 93.1248 385.85 95.5253 388.477 98.934C389.62 100.45 390.802 102.417 391.542 104.186C391.992 105.266 392.66 107.601 393.182 108.471C394.07 109.946 395.022 110.54 395.855 112.321C396.825 114.403 396.795 117.297 397.932 118.928C398.755 120.11 401.257 121.801 402.455 122.608C402.462 123.231 402.455 125.269 402.66 125.767C404.082 129.679 406.432 134.421 407.427 138.415C408.975 144.619 409.332 149.374 413.127 154.788C413.977 155.999 412.562 160.343 413.39 162.166C413.652 163.491 416.712 166.142 416.795 167.22C417.235 173.094 413.082 175.611 418.007 181.317C419.125 182.608 417.39 184.595 417.17 185.767C416.857 187.433 418.352 190.022 418.465 191.749C418.837 194.602 417.717 198.239 419.265 200.642L419.442 200.912C419.41 202.568 417.087 206.616 416.877 209.229C416.64 212.191 418.287 213.996 418.137 215.936C418.037 217.207 416.275 221.091 415.947 222.726C415.565 224.634 415.522 226.514 415.215 228.423C414.617 232.127 413.537 236.219 412.657 239.879C412.44 240.778 410.13 243.063 409.74 244.392C409.232 246.11 410.007 247.167 410.792 248.695C409.87 251.685 407.662 256.6 405.847 259.153C401.882 264.72 401.282 266.628 400.267 273.31C402.447 273.288 404.547 273.14 406.717 273.048C413.145 272.773 419.692 273.053 426.14 273.123C427.865 273.138 431.657 272.933 432.94 273.903C432.322 274.875 428.482 274.743 427.335 274.76C421.425 275.075 415.93 274.868 410.065 274.933C406.727 274.97 401.895 276.233 398.587 276.16C395.247 278.705 390.397 286.18 388.717 290.143C387.55 290.838 386.9 291.21 385.657 291.758C385.34 292.968 384.902 294.833 384.365 295.923C383.61 297.453 381.115 298.65 380.187 299.72C377.82 302.45 377.007 305.643 373.662 307.61C372.89 308.058 372.102 308.475 371.297 308.86C370.925 310.35 369.56 312.323 368.297 313.158C366.67 314.23 364.282 318.055 363.037 318.89C360.345 320.693 356.837 322.83 353.94 324.14C352.637 330.955 351.74 328.535 346.26 330.473C344.185 331.643 343.062 334.218 341.165 335.55C340.047 336.335 337.695 337.025 336.755 337.753C332.595 340.968 329.062 341.628 324.217 343.038C323.107 343.36 321.26 345.308 320.137 345.8C318.182 346.768 315.682 347.513 313.745 348.388C307.995 350.985 302.265 353.578 295.862 353.745C295.092 353.765 293.51 355.06 292.29 355.133C291.522 354.56 291.352 354.088 290.895 353.255C289.992 353.623 288.977 354.2 288.08 354.63C279.375 358.79 269.785 361.075 260.272 362.453C258.217 362.75 256.195 363.283 254.097 363.525C234.547 365.768 214.791 365.545 195.295 362.86C184.68 361.415 176.58 359.91 166.705 355.393C160.545 352.575 155.086 349.375 150.808 343.953C146.415 338.383 146.159 333.185 150.549 327.713C150.345 326.688 150.372 326.418 149.747 325.635C148.609 324.918 147.105 325.038 145.642 324.933C142.502 322.218 139.367 319.298 136.09 316.71C132.706 314.038 129.282 311.835 126.37 308.58C123.911 305.833 122.742 302.24 120.184 299.51C118.385 297.59 115.407 296.038 113.82 294.053C112.689 292.64 111.538 290.605 110.37 289.08C109.01 287.305 107.574 285.515 106.233 283.735C105.677 282.998 105.301 280.57 104.578 279.77C103.563 278.645 101.103 278.56 99.6692 278.398C98.4387 278.093 95.2057 278.053 93.8375 278.033C81.4052 277.833 68.7345 277.798 56.3142 277.703C55.8367 277.428 55.8097 277.423 55.418 277.043L55.728 276.19C64.0617 275.41 71.896 276.448 79.962 275.565C84.4832 275.11 86.862 275.213 91.457 275.568C93.868 275.158 97.3845 275.038 99.8287 274.928C102.75 272.458 99.2242 270.213 98.7567 268.13C97.6592 263.15 95.8322 258.995 92.8082 254.845C89.8915 250.843 90.8307 246.584 90.8002 241.873C89.8767 240.838 88.2497 239.106 87.7865 237.757C87.5267 236.745 87.6972 235.532 87.4022 234.533C84.2957 224.007 84.9805 213.361 83.779 202.5C83.692 201.713 83.1895 199.343 83.2872 198.444C83.3525 197.847 82.7792 197.522 82.358 197.098C82.1497 196.002 83.0757 195.193 83.1982 194.151C83.299 193.292 82.2042 193.007 82.4065 191.991C82.6082 190.976 83.802 189 83.779 188.055C83.6812 184.061 82.3092 182.642 82.539 178.445C87.5655 171.1 84.858 168.25 85.8785 160.091C86.0917 158.386 86.0302 156.815 85.9445 155.127C86.9117 153.185 87.1772 152.944 88.7955 151.627C88.958 150.85 89.7712 146.549 90.0775 146.327C93.1262 144.126 91.4475 142.437 91.521 138.023C92.7805 136.035 93.854 135.47 95.1232 133.752C95.6595 133.026 96.6317 130.391 97.1982 129.348C98.3455 127.236 99.6182 125.257 100.617 123.071C101.305 121.567 101.603 116.712 102.34 115.685C104.215 113.07 106.22 110.712 108.091 107.963C110.721 104.097 112.14 100.799 114.424 96.8228C115.704 94.5943 119.073 90.506 120.875 88.5318C121.521 87.8245 124.95 86.5823 125.687 85.325C126.532 83.884 126.518 82.5415 127.152 81.091C128.068 78.794 131.311 78.49 132.804 76.9505C136.258 73.3883 136.548 71.321 141.386 69.2563C144.147 65.0728 149.159 60.7108 153.454 57.9878C154.23 57.4955 156.501 56.963 156.994 56.6185C160.085 54.4575 159.501 54.2638 163.153 53.1813C165.539 49.9325 166.147 50.9738 169.579 49.1573C170.301 48.775 171.143 47.7133 171.673 47.38C176.488 44.354 182.464 41.9343 187.803 40.015C188.895 39.6228 191.258 39.8255 192.211 39.8963C195.341 32.9033 203.936 35.0103 209.712 34.0898C215.289 33.2005 223.45 29.098 229.076 30.815C234.222 28.6873 237.464 26.5238 242.646 29.6208L242.831 29.6235C249.082 29.661 248.254 26.844 254.435 29.6768C258.977 28.9418 259.175 27.5983 264.117 29.561Z" fill="#161754"/>
<path d="M264.117 29.561C266.992 28.5733 268.852 28.2963 271.81 27.8525C271.785 28.845 271.577 30.179 272.385 30.8133C273.147 30.4755 274.915 29.6365 275.672 30.0768C277.097 30.9058 278.255 30.1915 279.952 30.362C280.93 30.8563 281.55 31.8938 282.24 32.8028C287.447 29.2463 287.272 33.077 290.852 33.483C297.095 34.1913 297.712 32.6435 303.44 36.6205C310.277 37.03 315.452 39.841 321.52 42.7933C321.662 42.8625 322.127 44.3888 322.312 44.766C323.47 45.0993 323.417 44.8538 324.72 44.5073C326.342 44.8413 327.125 46.4765 328.117 47.9063C336.082 48.7135 334.922 50.479 341.102 55.2383C342.232 56.1095 345.05 57.0525 346.445 58.2383C348.32 59.8315 349.737 61.5593 351.68 63.0758C352.847 63.9878 355.792 64.7543 356.727 65.41C360.81 68.3558 364.607 72.096 367.892 75.9103C370.68 79.1438 373.05 82.6015 376.112 85.6433C377.072 86.596 377.775 88.9803 378.95 90.123C382.032 93.1248 385.85 95.5253 388.477 98.934C389.62 100.45 390.802 102.417 391.542 104.186C391.992 105.266 392.66 107.601 393.182 108.471C394.07 109.946 395.022 110.54 395.855 112.321C396.825 114.403 396.795 117.297 397.932 118.928C398.755 120.11 401.257 121.801 402.455 122.608C402.462 123.231 402.455 125.269 402.66 125.767C404.082 129.679 406.432 134.421 407.427 138.415C408.975 144.619 409.332 149.374 413.127 154.788C413.977 155.999 412.562 160.343 413.39 162.166C413.652 163.491 416.712 166.142 416.795 167.22C417.235 173.094 413.082 175.611 418.007 181.317C419.125 182.608 417.39 184.595 417.17 185.767C416.857 187.433 418.352 190.022 418.465 191.749C418.837 194.602 417.717 198.239 419.265 200.642L419.442 200.912C419.41 202.568 417.087 206.616 416.877 209.229C416.64 212.191 418.287 213.996 418.137 215.936C418.037 217.207 416.275 221.091 415.947 222.726C415.565 224.634 415.522 226.514 415.215 228.423C414.617 232.127 413.537 236.219 412.657 239.879C412.44 240.778 410.13 243.063 409.74 244.392C409.232 246.11 410.007 247.167 410.792 248.695C409.87 251.685 407.662 256.6 405.847 259.153C401.882 264.72 401.282 266.628 400.267 273.31C393.552 273.255 387.1 273.175 380.395 272.613C378.737 272.473 376.2 273.143 374.557 273.085C373.362 273.04 371.175 272.425 369.927 272.133C365.55 274.083 353.242 273.663 348.195 273.21C346.622 266.17 339.327 263.723 334.08 258.613C334.805 258.363 335.885 257.87 336.56 258.05C341.48 264.175 344.292 265.733 352.362 266.5C359.902 267.22 380.94 267.593 384.652 259.635C384.467 252.96 381.035 247.774 377.02 242.585C388.16 235.935 382.132 230.54 372.49 228.453C374.285 226.074 375.257 223.788 374.745 220.755C373.557 213.746 368.507 211.875 364.55 208.029C364.462 204.044 361.55 195.792 360.242 191.783C356.392 179.855 351.402 168.459 344.545 157.94C342.51 154.819 340.08 152.129 338.025 149.116C332.345 140.789 324.427 132.277 316.297 126.205C298.78 113.374 277.542 106.627 255.832 106.995C233.307 107.532 215.944 112.281 197.4 125.269C177.349 139.312 164.506 157.395 154.695 179.595C150.062 190.077 148.058 201.065 144.809 211.84C140.738 213.91 137.596 215.364 136.015 220.08C134.964 223.216 135.342 227.151 136.906 230.055C138.137 232.342 139.396 233.371 141.733 234.459C132.268 239.94 124.151 248.709 118.863 258.238C114.277 266.498 110.826 269.99 121.32 274.7C118.956 274.908 101.405 275.43 99.8287 274.928C102.75 272.458 99.2242 270.213 98.7567 268.13C97.6592 263.15 95.8322 258.995 92.8082 254.845C89.8915 250.843 89.0306 248.712 89.0001 244C88.0766 242.966 88.2497 239.106 87.7865 237.757C87.5267 236.745 87.295 235.458 87 234.459C81.7152 216.552 81.5567 196.388 82.539 178.445C87.5655 171.1 84.858 168.25 85.8785 160.091C86.0917 158.386 86.0302 156.815 85.9445 155.127C86.9117 153.185 87.1772 152.944 88.7955 151.627C88.958 150.85 89.7712 146.549 90.0775 146.327C93.1262 144.126 91.4475 142.437 91.521 138.023C92.7805 136.035 93.854 135.47 95.1232 133.752C95.6595 133.026 96.6317 130.391 97.1982 129.348C98.3455 127.236 99.6182 125.257 100.617 123.071C101.305 121.567 101.603 116.712 102.34 115.685C104.215 113.07 106.22 110.712 108.091 107.963C110.721 104.097 112.14 100.799 114.424 96.8228C115.704 94.5943 119.073 90.5061 120.875 88.5318C121.521 87.8246 124.95 86.5823 125.687 85.325C126.532 83.884 126.518 82.5415 127.152 81.091C128.068 78.794 131.311 78.49 132.804 76.9505C136.258 73.3883 136.548 71.321 141.386 69.2563C144.147 65.0728 149.159 60.7108 153.454 57.9878C154.23 57.4955 156.501 56.963 156.994 56.6185C160.085 54.4575 159.501 54.2638 163.153 53.1813C165.539 49.9325 166.147 50.9738 169.579 49.1573C170.301 48.775 171.143 47.7133 171.673 47.38C176.488 44.354 182.464 41.9343 187.803 40.015C188.895 39.6228 191.258 39.8255 192.211 39.8963C195.341 32.9033 203.936 35.0103 209.712 34.0898C215.289 33.2005 223.45 29.098 229.076 30.815C234.222 28.6873 237.464 26.5238 242.646 29.6208L242.831 29.6235C249.082 29.661 248.254 26.844 254.435 29.6768C258.977 28.9418 259.175 27.5983 264.117 29.561Z" fill="#EAEAF1"/>
<path d="M347.705 276.153C353.355 277.168 360.45 276.373 366.292 275.923C369.792 275.653 370.042 273.925 374.15 276.15C375.405 276.83 378.342 275.863 379.56 275.115C384.747 276.088 388.557 275.708 393.737 275.85C395.04 275.885 397.367 275.898 398.587 276.16C395.247 278.705 390.397 286.18 388.717 290.143C387.55 290.838 386.9 291.21 385.657 291.758C385.34 292.968 384.902 294.833 384.365 295.923C383.61 297.453 381.115 298.65 380.187 299.72C377.82 302.45 377.007 305.643 373.662 307.61C372.89 308.058 372.102 308.475 371.297 308.86C370.925 310.35 369.56 312.323 368.297 313.158C366.67 314.23 364.282 318.055 363.037 318.89C360.345 320.693 356.837 322.83 353.94 324.14C352.637 330.955 351.74 328.535 346.26 330.473C344.185 331.643 343.062 334.218 341.165 335.55C340.047 336.335 337.695 337.025 336.755 337.753C332.595 340.968 329.062 341.628 324.217 343.038C323.107 343.36 321.26 345.308 320.137 345.8C318.182 346.768 315.682 347.513 313.745 348.388C307.995 350.985 302.265 353.578 295.862 353.745C295.092 353.765 293.51 355.06 292.29 355.133C291.522 354.56 291.352 354.088 290.895 353.255C291.077 352.873 295.895 350.553 296.802 350.028C301.815 347.13 306.35 341.305 308.49 336.003C307.272 330.49 305.497 329.883 300.79 327.71C299.812 322.08 298.477 316.71 297.325 311.153C296.237 305.913 295.8 300.888 294.002 295.728C293.23 293.508 292.75 290.865 292.005 288.533L291.312 285.238C293.835 285.675 296.385 286.178 298.882 286.703C307.952 288.618 317.02 287.585 326.06 286.063C333.87 284.748 343.895 284.445 347.705 276.153Z" fill="#EAEAF1"/>
<path d="M338.135 305.49C342.163 306.72 349.427 310.867 342.677 315C338.647 317.207 334.69 316.157 330.62 316.327C323.437 316.625 317.26 309.6 325.32 305.357C326.673 304.645 330.95 304.507 332.475 305.415C332.81 305.515 333.152 305.552 333.5 305.607L333.897 305.27C335.325 304.792 336.675 305.172 338.135 305.49Z" fill="#FBBC9A"/>
<path d="M338.135 305.49C342.163 306.72 349.427 310.867 342.677 315C338.647 317.207 334.69 316.157 330.62 316.327C323.437 316.625 317.26 309.6 325.32 305.357C326.673 304.645 330.95 304.507 332.475 305.415C330.65 306.09 322.867 306.57 324.185 310.87C324.475 311.817 326.557 312.762 327.435 312.985C330.927 313.805 340.512 314.607 342.867 311.67C343.49 308.687 339.007 307.232 336.772 306.285L338.135 305.49Z" fill="#161754"/>
<path d="M333.897 305.27C335.325 304.792 336.675 305.172 338.135 305.49L336.772 306.285C335.677 306.002 334.857 305.87 333.897 305.27Z" fill="#161754"/>
<path d="M99.6689 278.398C104.364 277.288 110.17 278.295 114.922 278.605C116.453 278.705 118.684 278.258 120.104 278.433C127.805 279.385 135.106 278.205 142.661 277.958C149.649 277.73 156.283 278.458 163.451 277.763C161.776 279.308 159.589 281.575 158.902 283.838C157.074 289.858 157.012 296.535 156.235 302.745C155.36 309.74 153.581 317.503 154.577 324.578C153.744 325.233 151.157 327.58 150.549 327.713C150.345 326.688 150.371 326.418 149.747 325.635C148.609 324.918 147.105 325.038 145.642 324.933C142.501 322.218 139.367 319.298 136.09 316.71C132.705 314.038 129.282 311.835 126.37 308.58C123.911 305.833 122.742 302.24 120.184 299.51C118.385 297.59 115.407 296.038 113.82 294.053C112.688 292.64 111.537 290.605 110.37 289.08C109.009 287.305 107.573 285.515 106.232 283.735C105.677 282.998 105.301 280.57 104.578 279.77C103.563 278.645 101.103 278.56 99.6689 278.398Z" fill="#EAEAF1"/>
<path d="M79.9622 275.565C84.4835 275.11 86.8622 275.213 91.4572 275.568C89.057 276.16 81.7657 278.165 79.9492 276.49L79.9622 275.565Z" fill="#161754"/>
<path d="M426.14 273.123C427.865 273.138 431.657 272.933 432.94 273.903C432.322 274.875 428.482 274.743 427.335 274.76C426.707 274.495 426.315 274.55 425.802 274.07L425.55 274.17L425.717 274.248L425.252 273.96L425.637 274.098L425.56 273.93C426.632 274.13 428.712 274.735 429.595 274.04C428.465 272.89 425.797 273.995 423.97 273.485C424.68 273.245 425.395 273.205 426.14 273.123Z" fill="#070713"/>
<path d="M206.325 245.704C200.178 244.146 196.056 243.527 189.856 240.931C178.904 236.369 168.741 228.476 163.616 217.57C160.425 210.778 162.379 205.817 163.798 199.048C164.052 196.703 164.043 194.038 164.071 191.695C164.513 155.938 203.042 143.614 231.774 156C242.238 160.511 249.351 167.989 253.69 178.588C258.68 190.777 258.66 205.99 255.773 218.666C255.29 220.599 253.528 224.492 252.67 226.461L253.163 227.192C255.05 224.848 256.315 221.645 257.383 220.492C258.758 221.296 259.26 226.522 261.08 227.881L261.39 227.695C261.923 224.981 259.373 217.709 258.778 214.603C273.423 227.529 282.108 235.946 301.813 240.832C305.535 241.755 310.77 243.226 314.573 243.574C316.995 246.136 319.928 248.386 322.263 250.965C325.92 255.005 329.143 259.225 333.113 263.008C336.808 266.53 342.24 268.228 344.108 273.225C343.538 275.253 342.773 277.575 340.578 278.398C326.57 283.648 305.798 285.3 291.47 281.228C290.84 281.048 290.21 280.855 289.585 280.653C288.505 280.123 287.068 279.025 286.048 278.295C277.085 271.865 276.06 271.568 271.64 260.433C270.54 257.66 267.94 241.759 268.08 241.915L267.693 241.978C266.863 243.617 267.263 250.67 267.353 252.875C260.695 249.329 251.8 248.646 244.904 251.46C236.342 254.953 231.475 256.33 222.264 256.28C209.436 256.21 203.398 251.768 193.313 244.982C196.294 245.827 201.784 246.433 204.893 246.497C205.515 246.343 205.807 246.073 206.325 245.704Z" fill="white"/>
<path d="M206.326 245.704C207.173 246.065 207.477 245.996 207.772 246.613C206.77 246.877 205.934 246.652 204.894 246.496C205.515 246.342 205.807 246.072 206.326 245.704Z" fill="#161754"/>
<path d="M252.67 226.461L253.162 227.191C252.442 228.192 251.55 229.086 250.702 229.987C251.352 228.494 251.775 227.842 252.67 226.461Z" fill="#070713"/>
<path d="M223.643 210.394C226.315 212.769 221.865 216.203 219.643 216.924C215.482 218.272 211.201 218.633 206.962 219.681C203.38 220.567 199.959 222.05 196.336 222.706C190.831 223.691 183.838 218.255 179.56 214.929C178.98 214.399 178.95 214.36 178.497 213.715L178.599 213.31C181.02 213.341 191.238 220.653 194.644 220.321C198.128 219.73 201.347 218.15 204.794 217.131C212.332 214.904 217.989 216.59 223.643 210.394Z" fill="#161754"/>
<path d="M228.532 184.74C235.442 186.669 235.809 197.325 229.16 200.593C223.173 200.257 221.686 188.116 228.532 184.74Z" fill="#161754"/>
<path d="M170.384 184.432C175.553 184.169 177.085 195.429 171.395 199.025C165.883 199.192 164.71 187.849 170.384 184.432Z" fill="#161754"/>
<path d="M183.993 197.135C186.297 197.199 187.424 198.657 187.201 200.915C185.384 200.543 184.018 199.017 183.993 197.135Z" fill="#161754"/>
<path d="M200.644 197.164C201.333 197.907 201.194 197.543 201.216 198.48C200.49 199.875 199.235 200.383 197.865 200.998L197.422 200.375C197.721 199.023 199.517 197.97 200.644 197.164Z" fill="#070713"/>
<path d="M216.032 119.452C230.562 112.473 246.618 110.253 262.63 110.944C266.43 111.122 270.217 111.481 273.985 112.02C276.65 112.419 290.063 115.405 291.44 116.906L291.27 117.349C292.278 117.442 292.58 117.792 293.395 118.4C305.475 120.769 327.49 140.275 334.365 150.458C335.4 152.021 336.413 153.596 337.405 155.184L338.033 156.049C339.515 157.353 341.685 161.039 342.755 162.813C349.738 174.387 354.248 186.388 358.408 199.149C359.285 201.844 361.133 210.896 362.573 212.537C359.008 215.04 349.275 220.32 345.06 220.311L344.71 219.996L344.228 220.42L343.948 220.294C343.908 219.65 343.92 219.151 343.61 218.564C343.622 218.891 343.678 219.326 343.608 219.643C343.468 220.27 343.11 220.505 342.56 220.767C340.425 221.788 336.113 221.996 333.67 222.27C314.355 224.43 311.548 219.251 295.288 212.494C291.205 210.797 286.963 209.906 282.965 208.313C279.535 203.034 272.933 196.272 267.683 192.798C266.903 192.351 266.88 192.336 266.5 191.498C265.773 191.294 260.658 188.1 259.653 187.502C255.925 172.431 250.138 160.814 235.133 153.913C224.152 148.863 215.376 147.997 203.521 148.407C204.893 146.294 206.464 144.33 207.931 142.02C210.547 138.354 213.542 134.934 216.45 131.513C217.42 130.372 221.135 126.419 221.72 125.395C222.835 124.097 223.693 124.439 225.59 124.295C224.388 124.169 223.357 124.408 222.371 123.793L222.415 123.175C221.392 123.02 218.214 120.338 216.032 119.452Z" fill="#FBBC9A"/>
<path d="M338.033 156.049C339.515 157.353 341.685 161.039 342.755 162.813C349.738 174.387 354.248 186.388 358.408 199.149C359.285 201.844 361.133 210.896 362.573 212.537C359.008 215.04 349.275 220.32 345.06 220.311L344.71 219.996L344.228 220.42L343.948 220.294C343.908 219.65 343.92 219.151 343.61 218.564C343.623 218.891 343.678 219.326 343.608 219.643C343.468 220.27 343.11 220.505 342.56 220.767C340.425 221.788 336.113 221.996 333.67 222.27C314.355 224.43 311.548 219.251 295.288 212.494C291.205 210.797 286.963 209.906 282.965 208.313C279.535 203.034 272.933 196.272 267.683 192.798C268.078 190.965 268.67 189.332 269.27 187.564C271.803 179.236 286.608 165.501 291.583 158.162C294.33 156.314 297.475 158.267 300.478 158.65C302.21 159.093 303.95 159.497 305.698 159.862C313.545 161.852 319.988 163.927 327.62 166.604C328.3 166.911 329.09 167.233 329.715 167.624C330.14 167.253 330.375 167.194 330.893 166.968C330.838 166.329 332.468 164.384 332.93 163.773C334.663 161.219 336.363 158.644 338.033 156.049Z" fill="#FBBC9A"/>
<path d="M338.032 156.049C339.515 157.353 341.685 161.039 342.755 162.813C349.737 174.387 354.247 186.388 358.407 199.149C359.285 201.844 361.132 210.896 362.572 212.537C359.007 215.04 349.275 220.32 345.06 220.311L344.71 219.996L344.227 220.42L343.947 220.294C343.907 219.65 343.92 219.151 343.61 218.564C343.512 214.831 342.89 211.953 342.172 208.313C340.5 200.484 333.817 172.927 329.715 167.624C330.14 167.253 330.375 167.194 330.892 166.968C330.837 166.329 332.467 164.384 332.93 163.773C334.662 161.219 336.362 158.644 338.032 156.049Z" fill="#FBBC9A"/>
<path d="M329.715 167.624C330.14 167.253 330.375 167.194 330.892 166.968C334.647 171.371 341.787 197.126 342.42 202.825C341.62 204.446 343.817 207.006 342.562 207.812L342.367 206.838L342.407 207.131C342.157 207.668 342.212 207.72 342.172 208.313C340.5 200.484 333.817 172.928 329.715 167.624Z" fill="#161754"/>
<path d="M342.42 202.824C343.693 207.065 345.09 215.593 344.71 219.996L344.228 220.42L343.948 220.294C343.908 219.65 343.92 219.151 343.61 218.564C343.513 214.831 342.89 211.952 342.173 208.313C342.213 207.719 342.158 207.667 342.408 207.131L342.368 206.837L342.563 207.811C343.818 207.005 341.62 204.445 342.42 202.824Z" fill="#0D0E27"/>
<path d="M293.395 118.4C305.475 120.77 327.49 140.275 334.365 150.459C335.4 152.021 336.413 153.596 337.405 155.184L338.033 156.049C336.363 158.645 334.663 161.22 332.93 163.774C332.468 164.385 330.838 166.329 330.893 166.968C330.375 167.194 330.14 167.253 329.715 167.624C329.09 167.234 328.3 166.911 327.62 166.605C319.988 163.927 313.545 161.853 305.698 159.863C303.95 159.497 302.21 159.093 300.478 158.651C297.475 158.267 294.33 156.314 291.583 158.162C291.978 157.083 292.245 157.166 293.213 156.71L293.338 156.338L293.345 156.349L292.465 156.225L292.25 155.526L292.713 155.699C292.255 152.292 286.213 141.269 284.16 137.998L282.44 135.323C280.91 132.853 278.99 129.661 277.218 127.432L276.15 128.045C275.69 127.475 275.388 127.066 274.985 126.456C275.255 126.098 275.365 125.754 275.545 125.336C278.935 123.917 281.695 122.199 285.283 120.905C287.368 120.442 290.628 119.061 293.395 118.4Z" fill="#FBBC9A"/>
<path d="M308.315 158.915C315.045 160.334 321.322 162.571 327.775 164.82L327.275 165.639C327.39 165.984 327.482 166.267 327.62 166.605C319.987 163.927 313.545 161.852 305.697 159.863C305.567 159.716 305.295 159.291 305.17 159.107L305.56 158.896C306.627 159.058 307.237 159.207 308.315 158.915Z" fill="#161754"/>
<path d="M337.405 155.184L338.032 156.049C336.362 158.644 334.662 161.219 332.93 163.773L331.817 164.326L331.232 163.915C332.95 161.397 335.537 157.379 337.405 155.184Z" fill="#070713"/>
<path d="M292.25 155.525L292.712 155.698C293.385 156.038 298.97 156.741 300.415 157.083C300.482 157.608 300.642 158.215 300.477 158.65C297.475 158.266 294.33 156.314 291.582 158.161C291.977 157.083 292.245 157.165 293.212 156.709L293.337 156.337L293.345 156.348L292.465 156.225L292.25 155.525Z" fill="#161754"/>
<path d="M327.775 164.82C328.515 165.125 328.79 165.217 329.568 165.41C330.403 165.178 330.68 164.627 331.233 163.916L331.818 164.327L332.93 163.773C332.468 164.385 330.838 166.329 330.893 166.968C330.375 167.194 330.14 167.253 329.715 167.624C329.09 167.234 328.3 166.911 327.62 166.605C327.483 166.267 327.39 165.984 327.275 165.639L327.775 164.82Z" fill="#161754"/>
<path d="M300.415 157.084C303.06 157.643 305.693 158.254 308.315 158.915C307.238 159.207 306.628 159.058 305.56 158.896L305.17 159.107C305.295 159.291 305.568 159.716 305.698 159.863C303.95 159.497 302.21 159.093 300.478 158.651C300.643 158.216 300.483 157.608 300.415 157.084Z" fill="#161754"/>
<path d="M274.985 126.455C275.255 126.098 275.365 125.754 275.545 125.336C276.12 126.008 276.75 126.688 277.218 127.431L276.15 128.045C275.69 127.475 275.388 127.065 274.985 126.455Z" fill="#0D0E27"/>
<path d="M216.032 119.452C230.562 112.473 246.618 110.253 262.63 110.944C266.43 111.122 270.217 111.481 273.985 112.02C276.65 112.419 290.062 115.405 291.44 116.906L291.27 117.349C292.277 117.442 292.58 117.792 293.395 118.4C290.627 119.06 287.367 120.441 285.282 120.905C281.695 122.198 278.935 123.917 275.545 125.336C275.365 125.754 275.255 126.098 274.985 126.455C267.797 123.407 247.086 123.291 238.681 123.574C234.66 123.71 230.27 124.39 225.59 124.295C224.388 124.169 223.357 124.408 222.371 123.793L222.414 123.175C221.392 123.02 218.214 120.338 216.032 119.452Z" fill="#FBBC9A"/>
<path d="M274.42 124.61C276.88 123.481 279.938 121.406 282.218 120.577C283.403 120.621 284.125 120.594 285.283 120.905C281.695 122.198 278.935 123.917 275.545 125.336C275.365 125.754 275.255 126.098 274.985 126.455C267.798 123.407 247.087 123.291 238.681 123.574C234.66 123.71 230.27 124.39 225.59 124.295C224.388 124.169 223.357 124.408 222.371 123.793L222.415 123.175C224.519 122.925 227.357 123.044 229.591 122.823C242.795 121.518 261.475 121.26 274.42 124.61Z" fill="#161754"/>
<path d="M291.27 117.35C292.278 117.442 292.58 117.792 293.395 118.4C290.628 119.06 287.368 120.442 285.283 120.905C284.125 120.595 283.403 120.621 282.218 120.577C284.268 119.545 288.973 118.069 291.27 117.35Z" fill="#161754"/>
<path d="M284.16 137.997C286.213 141.268 292.255 152.291 292.713 155.698L292.25 155.525L292.465 156.225L293.345 156.348L293.338 156.337L293.213 156.709C292.245 157.165 291.978 157.083 291.583 158.161C286.608 165.501 271.803 179.236 269.27 187.564C269.305 186.295 269.513 185.754 268.57 184.926C269.313 180.698 281.81 166.714 285.283 163.121C286.615 161.742 290.968 157.207 291.47 155.847C289.303 150.493 285.413 143.435 282.508 138.467L284.16 137.997Z" fill="#161754"/>
<path d="M277.218 127.432C278.99 129.661 280.91 132.853 282.44 135.323L281.918 136.195C281.388 135.946 281.06 135.588 280.625 135.192C279.315 133.382 277.735 130.311 276.15 128.045L277.218 127.432Z" fill="#070713"/>
<path d="M268.57 184.926C269.513 185.754 269.305 186.295 269.27 187.564C268.67 189.332 268.077 190.965 267.682 192.798C266.902 192.351 266.88 192.336 266.5 191.498C266.942 189.587 267.78 186.694 268.57 184.926Z" fill="#0D0E27"/>
<path d="M282.44 135.322L284.16 137.997L282.508 138.467L280.625 135.191C281.06 135.587 281.388 135.945 281.918 136.195L282.44 135.322Z" fill="#0D0E27"/>
<path d="M283.715 301.582C286.71 299.177 287.595 298.432 289.957 295.282C290.275 295.735 290.547 296.202 290.987 296.525L291.465 296.652C292.912 299.722 293.272 307.365 294.112 310.89C295.597 317.135 296.697 323.405 297.772 329.72L298.047 329.935C301.585 332.68 308.817 332.862 301.83 340.635C291.705 351.897 274.762 355.647 260.502 358.682C248.503 361.495 236.051 360.825 223.761 361.127C215.751 361.322 205.921 360.305 197.996 359.272C184.557 357.52 151.56 351.07 151.424 333.415C152.885 330.64 155.845 328.787 158.452 327.042C158.36 323.705 157.993 318.695 158.413 315.507C159.244 309.207 159.924 304.132 159.969 297.742C181.649 322.83 241.299 320.747 269.95 310.495C274.195 308.977 279.29 307.167 282.757 304.227C283.057 303.977 283.34 303.707 283.602 303.42C283.682 303.125 283.92 302.727 284.07 302.44L283.715 301.582Z" fill="#FBBC9A"/>
<path d="M283.715 301.582C286.71 299.177 287.595 298.432 289.958 295.282C290.275 295.735 290.548 296.202 290.988 296.525C288.815 299.28 286.368 301.295 283.603 303.42C283.683 303.125 283.92 302.727 284.07 302.44L283.715 301.582Z" fill="#0D0E27"/>
<path d="M160.006 332.855C161.294 333.093 161.905 334.353 162.847 335.505C164.348 337.338 168.832 341.165 171.043 342.148C186.452 349.005 206.659 351.178 223.485 351.983C226.195 352.083 228.868 351.915 231.563 351.78C233.023 351.708 236.876 350.505 237.676 351.488L237.45 352.03C233.831 353.063 230.454 353.478 226.703 353.548C210.273 353.845 175.771 350.538 163.908 338.94C162.417 337.483 160.02 335.1 160.006 332.855Z" fill="#EDEDEF"/>
<path d="M284.193 309.683C284.723 309.953 285.285 310.118 285.413 310.775C286.953 318.67 290.218 325.743 292.745 333.29C293.02 334.113 293.095 334.753 292.75 335.57C289.733 334.003 282.7 312.185 284.193 309.683Z" fill="#EDEDEF"/>
<path d="M281.945 324.895C282.985 325.66 283.34 327.075 283.007 328.29C282.012 327.97 281.927 327.805 281.5 327.022C281.445 326.015 281.565 325.87 281.945 324.895Z" fill="#EDEDEF"/>
<path d="M283.715 301.583C276.315 307.413 264.65 311.298 255.375 313.033C232.803 317.25 208.514 316.668 186.479 310.1C180.994 308.465 175.589 306.728 170.836 303.425C167.159 300.87 161.704 297.09 160.908 292.375C160.37 289.188 161.056 285.668 162.921 283.018C164.14 281.32 165.619 279.825 167.304 278.588C170.521 276.253 182.133 270.745 186.066 269.72C193.621 267.748 204.984 265.088 212.763 264.68C229.021 263.83 245.16 264.49 260.975 268.498C270.86 271.003 277.333 273.81 285.73 279.758C289.165 282.795 289.635 285.023 290.84 289.38C291 290.49 291.17 291.6 291.355 292.705C290.865 293.798 290.668 294.28 289.958 295.283C287.595 298.433 286.71 299.178 283.715 301.583Z" fill="#FBBC9A"/>
<path d="M266.178 303.692C251.14 309.46 232.715 310.465 216.837 309.905C203.86 309.447 168.228 305.525 165.226 289.89C162.919 277.875 196.527 270.217 205.181 270.005L205.343 270.3C206.306 270.31 208.999 270.055 209.489 270.365L209.384 270.617L205.98 270.985L205.843 271.197L206.433 271.367C198.597 272.555 190.765 273.59 183.39 276.56C178.582 278.495 171.85 280.665 168.742 285.057C162.139 294.39 178.817 300.427 185.129 302.967C185.757 303.152 186.795 303.495 187.401 303.61C200.954 308.157 229.932 309.167 244.354 307.445C251.433 306.55 258.405 304.945 265.163 302.657L266.178 303.692Z" fill="#161754"/>
<path d="M185.129 302.968C186.683 301.455 190.338 299.893 192.301 299.093C202.678 294.863 213.336 293.993 224.433 294.145C230.504 294.228 250.323 295.903 255.21 298.358L255.433 298.745C254.513 299.568 250.545 298.58 249.199 298.355C246.152 297.825 243.095 297.36 240.029 296.96C226.207 295.165 210.446 295.16 197.031 299.48C194.574 300.273 188.897 301.553 187.401 303.61C186.795 303.495 185.757 303.153 185.129 302.968Z" fill="#EDEDEF"/>
<path d="M205.181 270.005C212.809 268.795 227.005 268.585 234.936 269.248C235.147 270.118 235.033 269.82 235.897 270.493C227.153 270.285 218.434 269.948 209.735 270.995C208.635 271.128 207.536 271.27 206.433 271.368L205.843 271.198L205.98 270.985L209.384 270.618L209.488 270.365C208.999 270.055 206.306 270.31 205.343 270.3L205.181 270.005Z" fill="#161754"/>
<path d="M234.936 269.247C242.429 269.612 249.257 270.722 256.478 272.682C257.995 273.095 260.9 273.562 261.963 274.627C261.64 274.9 261.198 274.987 260.8 274.865C252.563 272.302 244.53 271.17 235.897 270.492C235.033 269.82 235.147 270.117 234.936 269.247Z" fill="#161754"/>
<path d="M265.162 302.657C269.17 301.265 272.607 300.235 276.117 297.692C280.132 294.787 280.655 293.822 282.332 289.327L282.762 289.462C283.08 290.29 282.68 291.792 282.285 292.52C279.01 298.552 272.105 301.542 266.177 303.692L265.162 302.657Z" fill="#0D0E27"/>
<path d="M162.864 224.256C171.07 234.422 176.638 238.976 188.58 243.957C189.028 244.144 192.924 248.091 193.932 248.908C191.606 249.029 188.715 249.436 186.478 250.12L186.11 249.991L185.848 250.192C185.096 250.152 184.688 250.21 184.062 249.795C181.444 255.17 175.283 264.435 170.298 267.717C159.17 275.047 143.021 273.54 130.379 272.235C127.242 271.91 119.814 271.507 118.438 268.447C118.19 264.835 126.115 253.47 128.95 250.275C133.374 245.293 140.067 239.549 145.777 236.108C152.97 231.775 156.616 230.696 162.864 224.256Z" fill="white"/>
<path d="M184.062 249.795C184.494 248.576 184.809 247.311 185.701 246.404L186.219 246.202C186.887 247.14 186.348 248.919 186.11 249.991L185.848 250.193C185.096 250.153 184.688 250.21 184.062 249.795Z" fill="#161754"/>
<path d="M281.258 212.242C281.575 211.885 282.158 211.053 282.475 211.14C290.135 213.24 298.888 217.829 306.155 221.094C308.41 222.109 312.958 224.549 314.243 224.71C315.145 224.773 315.098 224.765 315.863 225.26C317.733 229.627 316.388 235.89 315.165 240.281L314.955 240.462C314.1 240.561 314.43 240.688 313.878 240.251C311.185 239.301 305.953 238.549 302.913 237.648C291.625 234.302 283.09 231.03 274.15 223.431C276.383 219.641 278.993 216.025 281.258 212.242Z" fill="#FBBC9A"/>
<path d="M314.243 224.71C315.145 224.773 315.098 224.765 315.863 225.26C317.733 229.627 316.388 235.89 315.165 240.281L314.955 240.462C314.1 240.561 314.43 240.688 313.878 240.251C314.833 235.12 315.23 229.873 314.243 224.71Z" fill="#161754"/>
<path d="M216.033 119.452C218.214 120.338 221.392 123.02 222.415 123.175L222.371 123.794C223.357 124.409 224.388 124.169 225.591 124.295C223.693 124.44 222.835 124.098 221.72 125.395C221.135 126.419 217.42 130.372 216.45 131.513C213.542 134.935 210.547 138.354 207.931 142.02C206.464 144.331 204.894 146.295 203.521 148.408C203.109 148.591 202.75 148.527 202.264 148.529C196.478 149.427 191.492 150.463 185.98 152.544C184.308 153.176 178.907 156.488 178.046 156.626L178.277 156.979C177.72 157.743 177.178 157.819 176.241 157.799C174.964 157.603 173.59 157.329 172.309 157.1L172.756 155.836C173.265 154.85 176.05 151.327 176.769 150.336C185.122 138.818 201.397 125.569 214.51 120.071C215.211 119.404 214.917 119.607 216.033 119.452Z" fill="#FBBC9A"/>
<path d="M220.884 124.264C221.119 124.567 221.548 125.082 221.72 125.395C221.135 126.419 217.42 130.372 216.45 131.513C213.542 134.934 210.547 138.354 207.931 142.02C207.456 141.594 207.34 141.463 206.946 140.993C210.736 134.871 215.765 129.297 220.884 124.264Z" fill="#161754"/>
<path d="M216.032 119.452C218.214 120.338 221.392 123.02 222.415 123.175L222.371 123.794C223.357 124.409 224.388 124.169 225.59 124.295C223.693 124.44 222.835 124.098 221.72 125.395C221.548 125.082 221.118 124.568 220.883 124.264C220.273 123.531 215.865 121.094 214.51 120.071C215.211 119.404 214.917 119.607 216.032 119.452Z" fill="#161754"/>
<path d="M206.946 140.993C207.339 141.463 207.456 141.594 207.931 142.02C206.463 144.33 204.893 146.294 203.52 148.407C203.108 148.591 202.75 148.526 202.264 148.528C203.605 146.063 205.432 143.419 206.946 140.993Z" fill="#070713"/>
<path d="M172.756 155.836C174.457 156.138 176.339 156.524 178.046 156.626L178.277 156.979C177.72 157.743 177.178 157.819 176.241 157.799C174.964 157.603 173.59 157.329 172.309 157.1L172.756 155.836Z" fill="#161754"/>
<path d="M364.033 235.431C367.713 235.926 385.303 256.825 379.693 260.048C375.78 262.293 361.228 263.295 356.048 263.235C347.075 262.935 345.11 261.625 338.99 256.35C346.163 252.655 353.425 246.903 358.575 240.661C360.513 238.311 361.548 237.162 364.033 235.431Z" fill="white"/>
<path d="M192.377 251.855C193.321 251.8 195.558 251.6 196.347 251.912C203.247 254.647 209.084 258.527 216.823 259.14C221.963 259.545 228.937 259.797 234.018 258.447C247.728 254.81 253.02 249.3 267.33 255.745C268.755 260.122 269.462 263.512 271.175 268.207C269.645 268.085 268.3 267.93 266.777 267.725C261.985 267.312 257.045 264.76 252.532 264.337C247.165 263.832 241.468 262.767 236.19 262.337C222.967 261.29 209.664 262.05 196.646 264.595C191.643 262.64 187.897 261.142 183.141 258.697C186.618 253.412 184.696 252.56 192.377 251.855Z" fill="#FBBC9A"/>
<path d="M315.863 225.26C316.858 224.692 322.653 225.698 324.478 225.668C329.543 225.626 334.553 225.439 339.548 224.539C341.713 224.149 344.213 223.2 346.335 223.032C349.928 226.224 351.293 233.218 351.248 237.849C343.25 241.257 334.133 241.955 325.53 241.335C322.27 241.101 318.3 240.408 315.165 240.281C316.388 235.89 317.733 229.627 315.863 225.26Z" fill="#FBBC9A"/>
<path d="M259.8 190.75C261.592 191.796 262.91 192.601 264.6 193.794C267.867 196.101 279.527 206.949 280.587 210.061C280.745 210.379 280.925 210.908 281.17 211.042L281.237 211.536L281.017 211.704L281.257 212.242C278.992 216.025 276.382 219.641 274.15 223.431C273.465 223.015 273.76 223.296 273.39 222.424C271.605 222.034 262.247 213.489 259.927 211.704C261.205 203.922 261.127 198.47 259.8 190.75Z" fill="#FBBC9A"/>
<path d="M280.587 210.062C280.745 210.38 280.925 210.908 281.17 211.043L281.237 211.536L281.017 211.704L281.257 212.242C278.992 216.025 276.382 219.641 274.15 223.431C273.465 223.016 273.76 223.296 273.39 222.424C275.362 217.366 277.51 214.499 280.587 210.062Z" fill="#161754"/>
<path d="M364.045 212.977C368.61 215.694 373.272 220.703 369.532 226.121C365.702 231.666 358.56 234.979 352.487 237.52L351.247 237.849C351.292 233.218 349.927 226.224 346.335 223.032L347.572 222.539C353.767 220.183 359.362 218.068 364.045 212.977Z" fill="#FBBC9A"/>
<path d="M347.572 222.539C351.512 225.956 352.537 232.573 352.487 237.52L351.247 237.849C351.292 233.218 349.927 226.224 346.335 223.032L347.572 222.539Z" fill="#070713"/>
<path d="M172.309 157.1C173.59 157.329 174.964 157.603 176.241 157.799L176.473 157.978C176.649 158.69 175.113 159.717 174.623 160.11C163.364 169.131 160.895 183.341 161.086 196.924C161.102 198.099 158.712 204.63 158.349 207.36C154.978 209.097 152.721 211.049 149.012 212.149C150.959 203.916 153.257 195.77 155.901 187.733C157.659 182.531 168.496 158.993 172.309 157.1Z" fill="#FBBC9A"/>
<path d="M153.226 214.545C154.508 212.413 156.198 211.467 158.276 210.123C158.779 215.435 159.219 216.805 161.39 221.525C159.754 222.951 156.013 226.91 154.161 227.305C153.525 228.028 153.898 227.801 153.053 228.09C152.192 228.811 149.627 230.186 148.54 230.629C141.843 233.363 137.501 225.997 140.462 220.428C142.547 216.508 147.812 215.585 151.779 214.521C152.373 214.494 152.64 214.441 153.226 214.545Z" fill="#FBBC9A"/>
<path d="M153.227 214.545C154.509 212.413 156.199 211.467 158.277 210.123C158.78 215.435 159.219 216.805 161.391 221.525C159.755 222.951 156.014 226.91 154.162 227.305C152.509 223.771 152.208 218.265 153.227 214.545Z" fill="#FBBC9A"/>
<path d="M151.779 214.521C152.373 214.494 152.64 214.441 153.226 214.545C152.208 218.265 152.508 223.771 154.161 227.305C153.525 228.028 153.899 227.801 153.053 228.09C151.05 223.121 150.671 219.796 151.779 214.521Z" fill="#0D0E27"/>
<path d="M319.66 244.101C322.28 244.485 324.92 244.703 327.568 244.754C329.265 244.8 338.005 244.415 338.838 244.739C339.748 244.523 339.3 244.513 340.228 244.831C339.088 247.306 337.508 250.995 336.06 253.172C335.293 253.812 335.635 253.625 334.573 253.77C333.75 254.82 332.86 255.325 331.753 256.067C327.743 251.875 324.573 247.541 319.66 244.101Z" fill="#FBBC9A"/>
<path d="M338.837 244.739C339.747 244.523 339.3 244.513 340.227 244.831C339.087 247.306 337.507 250.995 336.06 253.172C335.292 253.812 335.635 253.625 334.572 253.77C335.982 251.107 337.53 247.523 338.837 244.739Z" fill="#070713"/>
<path d="M340.227 244.831C340.342 244.66 340.655 244.378 340.862 244.331C344.53 243.489 347.732 242.852 351.215 241.353C351.595 241.932 351.582 241.883 351.622 242.572L352.067 243.024C348.35 246.275 340.98 251.595 336.417 253.313L336.06 253.173C337.507 250.995 339.087 247.307 340.227 244.831Z" fill="#FBBC9A"/>
<path d="M370.32 230.938C373.367 231.139 377.932 233.845 380.365 235.568C379.042 236.894 377.355 238.293 375.927 239.537C375.477 240.011 375.475 240.011 374.917 240.352C372 237.936 370.265 235.934 366.982 233.509C368.302 232.592 369.102 231.983 370.32 230.938Z" fill="white"/>
<path d="M181.033 261.905C181.472 262.013 183.672 263.165 184.356 263.483C186.326 264.398 187.754 264.89 189.826 265.523C181.854 266.965 178.863 269.06 171.598 272.908C170.16 273.763 169.019 274.363 167.515 275.103C166.553 274.825 165.458 274.685 164.461 274.523C173.403 271.988 175.643 269.435 181.033 261.905Z" fill="#EDEDEF"/>
<path d="M351.215 241.352C352.727 240.82 354.245 240.307 355.767 239.812C354.795 240.695 353.09 242.338 352.067 243.024L351.622 242.572C351.582 241.883 351.595 241.931 351.215 241.352Z" fill="#F6DBBD"/>
<path d="M374.897 331.55C379.457 331.125 381.287 331.65 384.407 335.13C382.667 336.953 381.222 337.458 378.895 338.148C376.645 338.668 367.875 339.018 369.69 333.875C370.182 332.483 373.377 331.895 374.897 331.55Z" fill="#FBBC9A"/>
<path d="M56.3141 277.703C54.0169 277.873 51.1041 278.208 48.8896 277.498L48.9829 277.255C51.5496 276.655 53.0996 276.363 55.7279 276.19L55.4179 277.043C55.8096 277.423 55.8366 277.428 56.3141 277.703Z" fill="#070713"/>
</svg>
