<svg width="221" height="221" viewBox="0 0 221 221" fill="none" xmlns="http://www.w3.org/2000/svg">
<rect width="221" height="221" rx="12" fill="#FFE082"/>
<path d="M52.6912 54H38.4398C37.4771 54 36.786 54.9239 37.0608 55.8433L51.322 103.556C51.4989 104.148 51.2758 104.786 50.7682 105.14L42.8473 110.666C41.9445 111.296 42.058 112.661 43.0524 113.135L56.398 119.485C56.7777 119.665 57.059 120.003 57.1679 120.408L69.6784 166.937C69.847 167.564 70.417 168 71.0683 168H90.3917C91.0669 168 91.6512 167.532 91.7968 166.875L108.529 91.35C108.859 89.8597 110.986 89.8466 111.335 91.3327L129.059 166.892C129.211 167.541 129.791 168 130.46 168H149.844C150.474 168 151.03 167.592 151.218 166.994L165.86 120.304C165.967 119.96 166.201 119.669 166.514 119.489L177.775 113.01C178.594 112.538 178.742 111.421 178.073 110.754L172.432 105.133C172.069 104.77 171.927 104.242 172.06 103.747L184.95 55.8051C185.195 54.8944 184.506 54 183.56 54H167.131C166.48 54 165.91 54.4359 165.741 55.0628L143.127 139.17C142.746 140.587 140.729 140.587 140.348 139.17L117.733 55.0628C117.565 54.4359 116.995 54 116.344 54H105.071C104.419 54 103.849 54.4359 103.681 55.0628L81.0221 139.336C80.6443 140.741 78.6497 140.757 78.2487 139.359L54.0748 55.04C53.8983 54.4244 53.3337 54 52.6912 54Z" fill="black" stroke="black" stroke-width="2"/>
</svg>
