<svg width="512" height="512" viewBox="0 0 512 512" fill="none" xmlns="http://www.w3.org/2000/svg">
<path d="M93.4984 359.912C85.9184 352.125 81.0954 341.46 76.8077 331.622C74.8879 327.217 72.2599 322.97 70.5547 318.52C69.0189 314.512 68.1224 309.977 66.8164 305.87C61.2304 286.44 58.1549 266.145 59.8447 245.92C60.2142 241.498 60.0397 237.055 60.4699 232.412C62.0952 214.868 65.9747 197.989 71.5537 181.301C72.0614 179.783 72.8834 178.233 73.5647 176.781C79.5434 164.624 85.3229 152.489 93.2527 141.443C95.0324 138.951 97.2727 136.683 99.1112 134.252C103.509 128.438 106.981 121.579 112.907 117.139C113.751 116.417 114.831 115.697 115.581 114.885C127.297 102.192 141.433 90.5986 156.753 82.5391C160.97 80.4291 164.902 77.8199 169.014 75.5361C171.129 74.3614 173.979 73.6889 176.087 72.5414C189.076 65.4684 204.059 62.8576 218.141 58.7659C219.421 58.2159 222.101 58.7389 223.179 58.4239C229.692 56.5204 235.995 56.4731 242.566 55.8631C264.535 53.8241 286.537 55.5721 307.907 61.0731C310.285 61.6851 312.895 63.2734 315.325 63.9004C319.04 64.7479 322.93 64.8514 326.387 66.7316C331.522 69.1891 336.85 71.6634 342.045 73.9374C347.547 76.3451 352.9 78.3199 357.845 81.7869C360.22 83.5526 363.307 85.1106 365.572 86.9761C373.52 93.5251 382.345 99.0024 389.615 106.372C393.367 110.175 396.7 114.203 400.337 118.065C404.592 122.582 409.072 126.895 412.98 131.711C415.592 134.916 417.677 138.413 419.89 141.89C423.785 147.464 427.022 152.514 430.455 158.384C432.467 161.474 433.285 165.192 434.765 168.484C437.02 173.233 438.76 178.162 440.592 183.06C443.657 191.254 446.97 198.415 448.427 207.15C449.397 212.97 450.785 219.125 451.957 224.945C453.05 230.359 453.135 234.94 453.375 240.418C454.48 266.147 450.855 291.862 442.677 316.282C440.552 322.635 438.052 327.82 435.32 333.89C433.945 336.397 432.977 340.22 431.592 342.605C429.342 346.477 426.81 350.882 425.697 355.5C425.592 356.685 425.695 355.442 425.697 356.622C425.7 360.857 426.725 366.457 425.852 370.512C425.545 371.952 425.037 373.015 424.145 374.16L424.315 374.48C426.09 374.917 428.202 374.572 430.027 374.542C434.007 374.48 452.29 373.532 454.302 376.35C454.645 376.83 454.62 377.54 454.47 378.085C454.34 378.555 454.132 378.6 453.765 378.88C449.307 379.692 444.562 379.56 440.047 379.525C432.81 379.47 425.385 379.137 418.167 379.602C414.52 379.837 411.52 381.28 407.992 381.917C403.035 382.81 397.9 382.955 392.877 383.282C388.435 389.5 385.655 390.662 380.142 395.207C361.047 410.725 339.095 422.342 315.525 429.405C310.94 430.767 306.247 431.505 301.627 432.675C299.447 433.225 297.472 434.525 295.257 434.912C289.62 435.895 283.677 436.672 277.965 436.98C274.4 437.17 270.82 437.03 267.25 437.15C264.565 437.24 261.875 437.495 259.187 437.497C256.415 437.497 253.642 437.257 250.875 437.167C237.84 436.745 224.589 435.67 211.879 432.57C206.85 431.342 201.905 429.535 196.968 427.98C192.229 426.487 187.435 425.042 182.801 423.247C170.272 418.4 158.607 411.897 147.345 404.64C143.549 402.192 139.547 399.927 135.909 397.252C130.824 393.517 125.485 387.937 121 383.5C116.163 380.595 113.158 386.297 104.774 379.155C104.765 377.52 104.499 376.145 104.009 374.595L104.711 374.482C105.276 373.602 105.319 369.125 105.599 367.75L105.685 367.34C102.775 366.015 95.3692 362.262 93.4984 359.912Z" fill="#111754"/>
<path d="M93.4984 359.912C85.9184 352.125 81.0954 341.46 76.8077 331.622C74.8879 327.217 72.2599 322.97 70.5547 318.52C69.0189 314.512 68.1224 309.977 66.8164 305.87C61.2304 286.44 58.1549 266.145 59.8447 245.92C60.2142 241.498 60.0397 237.055 60.4699 232.412C62.0952 214.868 65.9747 197.989 71.5537 181.301C72.0614 179.783 72.8834 178.233 73.5647 176.781C79.5434 164.624 85.3229 152.489 93.2527 141.443C95.0324 138.951 97.2727 136.683 99.1112 134.252C103.509 128.438 106.981 121.579 112.907 117.139C113.751 116.417 114.831 115.697 115.581 114.885C127.297 102.192 141.433 90.5986 156.753 82.5391C160.97 80.4291 164.902 77.8199 169.014 75.5361C171.129 74.3614 173.979 73.6889 176.087 72.5414C189.076 65.4684 204.059 62.8576 218.141 58.7659C219.421 58.2159 222.101 58.7389 223.179 58.4239C229.692 56.5204 235.995 56.4731 242.566 55.8631C264.535 53.8241 286.537 55.5721 307.907 61.0731C310.285 61.6851 312.895 63.2734 315.325 63.9004C319.04 64.7479 322.93 64.8514 326.387 66.7316C331.522 69.1891 336.85 71.6634 342.045 73.9374C347.547 76.3451 352.9 78.3199 357.845 81.7869C360.22 83.5526 363.307 85.1106 365.572 86.9761C373.52 93.5251 382.345 99.0024 389.615 106.372C393.367 110.175 396.7 114.203 400.337 118.065C404.592 122.582 409.072 126.895 412.98 131.711C415.592 134.916 417.677 138.413 419.89 141.89C423.785 147.464 427.022 152.514 430.455 158.384C432.467 161.474 433.285 165.192 434.765 168.484C437.02 173.233 438.76 178.162 440.592 183.06C443.657 191.254 446.97 198.415 448.427 207.15C449.397 212.97 450.785 219.125 451.957 224.945C453.05 230.359 453.135 234.94 453.375 240.418C454.48 266.147 450.855 291.862 442.677 316.282C440.552 322.635 438.052 327.82 435.32 333.89C433.945 336.397 432.977 340.22 431.592 342.605C429.342 346.477 426.81 350.882 425.697 355.5C425.5 355 425 354.5 424.367 352.97C423.572 351.12 422.967 349.227 422.207 347.392C418.55 338.595 416.852 328.712 412.897 320C417 316.467 422.725 310.385 424.49 305.097C427.17 297.067 421.35 290.762 414.565 287.387C412.912 283.697 411.237 280.012 409.99 276.165C408.932 272.9 408.28 269.487 407.357 266.172C405.382 259.04 403.067 252.007 400.422 245.095C388.94 214.614 367.955 188.636 340.572 170.997C333.902 166.611 326.785 161.923 319.212 159.248C315.715 158.013 311.585 155.908 308.402 154.908C277.752 145.276 247.248 144.629 217.368 157.542C212.021 159.853 207.222 163.106 202.379 165.302C198.741 162.232 195.89 159.243 191.973 156.47C187.501 153.305 183.668 151.801 178.98 149.553C166.429 143.535 153.312 140.487 139.358 141.817C136.186 142.119 128.07 143.169 125.051 144.038C110.524 148.217 97.8157 155.283 88.1237 166.978C75.4217 182.304 66.1527 205.366 68.0674 225.406C69.9384 246.837 80.4532 266.582 97.1907 280.097C103.816 285.545 114.16 291.792 122.458 294.02C121.635 298.025 121.261 302.485 120.377 306.215C98.6092 305.912 86.6301 331.612 90.6492 350.522C90.9954 352.152 93.6497 358.74 93.5 359.5L93.4984 359.912Z" fill="#EAEAF1"/>
<path d="M124.911 378.062C129.527 379.73 136.821 378.997 141.805 378.987C150.94 378.975 160.279 378.552 169.396 379.022C172.661 379.19 175.526 380.647 178.605 381.582C183.95 383.207 189.68 383.872 195.256 383.772C199.838 383.69 204.798 382.815 209.153 381.402C211.46 380.652 213.665 379.242 216.105 379.057C223.168 378.527 230.565 378.957 237.664 378.955L280.49 378.98C280.427 384.827 279.8 391.322 284.202 395.927C289.445 401.41 304.107 401.545 311.377 401.767C319.977 402.032 333.515 400.89 339.96 394.575C343.742 390.872 343.402 383.96 343.54 379C349.757 378.907 355.985 378.955 362.205 378.945C366.025 378.937 370.157 378.615 373.93 379.185C377.492 379.72 380.737 381.74 384.37 382.295C386.982 382.692 390.54 382.112 392.877 383.282C388.435 389.5 385.655 390.662 380.142 395.207C361.047 410.725 339.095 422.342 315.525 429.405C310.94 430.767 306.247 431.505 301.627 432.675C299.447 433.225 297.472 434.525 295.257 434.912C289.62 435.895 283.677 436.672 277.965 436.98C274.4 437.17 270.82 437.03 267.25 437.15C264.565 437.24 261.875 437.495 259.187 437.497C256.415 437.497 253.642 437.257 250.875 437.167C237.84 436.745 224.589 435.67 211.879 432.57C206.85 431.342 201.905 429.535 196.968 427.98C192.229 426.487 187.435 425.042 182.801 423.247C170.272 418.4 158.607 411.897 147.345 404.64C143.549 402.192 139.547 399.927 135.909 397.252C130.824 393.517 125.485 387.937 121 383.5C120.88 383.307 121.146 383.737 121.056 383.542C120.513 382.367 123.273 381.002 123.953 380.122C124.402 379.54 124.654 378.745 124.911 378.062Z" fill="#EAEAF1"/>
<path d="M217.338 181.571C228.146 176.656 243.487 179.415 254.667 182.455C273.265 187.512 286.917 195.715 295.012 213.852C297.35 219.115 299.08 224.627 300.17 230.282C303.705 249.665 300.537 270.93 291.275 288.01C285.955 297.817 280.43 302.365 270.112 306.945C268.772 307.577 263.532 310.197 263.597 311.817C266.737 315.37 278.102 307.495 281.477 305.652C283.07 304.785 284.815 303.632 286.277 302.55L286.557 302.347L286.722 302.225C295.16 309.887 302.49 315.68 312.275 321.667C314.55 323.06 325.347 328.135 326.265 329.187C334.902 339.065 338.01 361.747 339.402 374.465C339.49 379.632 340.115 386.945 336.157 390.937C331.212 395.957 324.327 397.697 317.44 397.667C309.242 397.632 300.712 397.792 292.82 395.21C286.68 393.202 284.15 387.077 284.157 381.062C284.162 375.56 284.81 370.032 284.527 364.515C284.257 357.985 282.895 351.757 281.64 345.37C281.02 342.225 281.175 338.842 279.79 335.862C275.185 333.095 277.22 345.822 277.407 347.805C272.057 348.6 266.51 349.757 260.997 350.075C237.879 351.4 213.198 348.232 191.202 341.08C189.965 340.677 188.814 340.192 187.594 339.795C188.334 338.607 189.374 337.237 189.245 335.827L188.799 335.435C185.971 336.105 181.749 341.212 179.438 343.47C164.561 357.995 149.516 368.76 127.839 366.16C128.481 363.305 129.453 359.455 129.886 356.652C137.945 356.072 140.814 354.69 146.391 348.632C155.668 338.555 152.186 324.62 142.392 316.372C141.319 315.47 140.116 314.54 139.049 313.617C145.859 311.6 160.763 306.627 166.295 302.54C170.026 304.687 174.133 306.497 177.98 308.455C189.467 314.305 201.557 320.12 214.797 319.555C216.223 319.495 221.091 319.34 220.523 317.315C219.621 316.445 206.486 314.905 203.768 314.015C191.807 310.092 178.329 304.747 167.94 297.617C167.317 296.882 166.728 296.062 166.146 295.287C169.92 293.775 174.126 291.74 177.9 290.412C185.539 287.73 191.055 284.542 197.843 280.177C205.068 287.502 209.305 289.332 219.972 290.012C224.14 290.277 256.515 287.057 251.362 279.495C250.467 279.07 249.245 279.087 248.375 279.562C243.622 282.167 239.499 282.992 234.355 284.077C220.966 286.905 211.937 285.77 200.674 277.967C202.56 274.995 205.114 273.217 207.605 270.732C215.626 262.737 221.687 249.851 224.855 239.061C227.976 228.43 227.656 214.801 225.728 204.031C224.076 195.637 221.298 188.99 217.338 181.571Z" fill="white"/>
<path d="M265.572 234.024C267.125 233.905 268.515 233.867 269.93 234.619C272.285 235.871 273.572 238.17 274.28 240.662C275.462 244.835 275.437 250.032 273.217 253.862C271.887 256.16 270.265 257.272 267.75 257.965C266.502 258.067 265.202 258.115 264.022 257.637C261.81 256.737 260.362 254.892 259.535 252.695C257.962 248.514 258.365 243.083 260.2 239.045C261.375 236.455 262.92 234.98 265.572 234.024Z" fill="#111754"/>
<path d="M141.688 147.177C181.747 145.584 215.487 176.817 216.985 216.879C218.483 256.942 187.17 290.607 147.104 292.01C107.173 293.41 73.6442 262.222 72.1512 222.295C70.6579 182.368 101.764 148.765 141.688 147.177Z" fill="#808CA7"/>
<path d="M140.429 155.629C175.612 153.183 206.135 179.679 208.661 214.856C211.186 250.035 184.759 280.617 149.588 283.222C114.303 285.835 83.6004 259.305 81.0672 224.015C78.5339 188.725 105.133 158.082 140.429 155.629Z" fill="#111754"/>
<path d="M142.148 159.596C154.069 158.426 166.133 162.183 176.108 168.579C188.625 176.605 200.078 192.169 203.15 206.738C205.643 218.56 203.281 231.322 198.883 242.38C197.727 245.288 196.535 248.186 194.812 250.812C184.094 267.157 171.926 274.74 152.836 278.785C151.446 279.01 150.053 279.217 148.657 279.402C139.606 280.595 131.644 277.88 123.595 274.065C120.277 272.49 117.075 270.945 114.156 268.687C103.89 260.75 99.0272 252.385 94.6597 240.359C93.4309 236.975 92.0877 233.657 91.6499 230.058C89.4972 212.396 94.4322 194.6 105.374 180.569C115.607 167.521 125.575 161.566 142.148 159.596Z" fill="white"/>
<path d="M174.33 206.529C176.933 206.26 179.457 206.359 181.83 207.597C184.793 209.143 186.773 212.035 187.76 215.168C189.799 221.645 188.714 230.466 185.57 236.441C183.759 239.883 181.353 242.296 177.583 243.477C175.274 243.583 173.213 243.485 171.05 242.531C168.004 241.188 165.926 238.586 164.751 235.533C162.544 229.8 162.862 220.595 165.432 215.025C167.268 211.047 170.21 208.071 174.33 206.529Z" fill="#111754"/>
<path d="M100.575 178.736L101.005 179.288C90.6867 193.697 84.4177 210.982 87.4814 228.839C89.3307 239.617 95.0764 252.837 101.878 261.407L101.575 262.04C94.6364 254.922 89.0062 244.128 86.8447 234.408C83.4829 219.291 86.4384 202.998 93.6229 189.378C95.7647 185.318 98.2314 182.463 100.575 178.736Z" fill="#9199BD"/>
<path d="M100.575 178.736C101.703 177.196 103.408 174.915 104.883 173.704C104.142 175.322 102.129 177.83 101.005 179.288L100.575 178.736Z" fill="#5A5D94"/>
<path d="M101.878 261.407C103.356 263.01 104.641 264.375 105.955 266.13C104.444 264.947 102.756 263.56 101.575 262.04L101.878 261.407Z" fill="#5A5D94"/>
<path d="M260.122 152.354C269.652 151.762 279.315 152.827 288.667 154.653C296.905 156.26 305.647 158.449 313.432 161.593C316.635 162.886 319.702 164.597 322.767 166.186C337.672 173.912 348.575 181.406 360.877 192.984C363.2 195.169 365.665 197.332 367.795 199.702C371.257 203.556 374.375 207.933 377.262 212.233C374.037 219.622 372.95 227.736 368.607 234.696C364.805 234.901 360.957 234.58 357.147 234.526C351.047 234.439 344.937 234.484 338.835 234.486C335.107 234.486 331.187 234.264 327.505 234.86C325.495 227.653 312.212 207.919 307.095 201.639C303.89 197.716 301.005 193.558 297.352 190.02C302.142 185.516 306.845 181.2 312.29 177.478C316.832 174.371 322.692 172.077 326.485 168.106C313.305 171.397 303.482 179.761 293.882 188.905C288.502 186.934 284.025 187.714 278.75 186.768C276.415 186.35 274.192 185.217 272.032 184.283C266.542 181.909 260.99 179.557 255.242 177.882C242.998 174.314 227.123 172.839 215.02 177.636C212.766 174.329 210.573 170.769 207.558 168.099C213.429 165.599 218.824 161.97 224.681 159.425C233.122 155.758 250.645 152.993 260.122 152.354Z" fill="#FDC19A"/>
<path d="M356.467 237.637C360.767 237.506 365.072 237.454 369.377 237.481C378.102 254.315 389.18 282.79 389.542 301.747C386.552 302.53 383.645 303.452 380.587 303.98C369.015 305.977 355.62 305.187 344.307 302.005C335.277 299.632 326.452 294.617 318.885 289.187C315.432 286.712 312.152 284.025 308.617 281.662C312.255 277.337 314.47 272.115 316.917 267.095C321.16 258.4 326.79 247.712 327.607 237.982C337.23 238.025 346.85 237.91 356.467 237.637Z" fill="#FDC19A"/>
<path d="M408.932 323.747L409.297 323.867C410.107 325.922 410.7 328.092 411.457 330.175C414.387 338.22 423.225 361.01 420.12 368.767C418.742 372.21 415.56 374.455 412.225 375.757C409.74 376.725 407.077 377.31 404.437 377.655C399.54 378.295 387.617 378.522 382.972 377.52C381.76 377.257 380.672 376.807 379.547 376.307C370.422 370.87 369.755 359.167 365.42 350.597C365.377 350.51 365.33 350.422 365.285 350.337C372.387 347.78 378.032 344.132 383.652 339.07C386.185 336.787 388.617 334.27 391.42 332.32C393.502 330.872 395.812 330.01 398.09 328.932C401.712 327.22 405.29 325.425 408.932 323.747Z" fill="white"/>
<path d="M117.452 311.1C119.065 310.982 120.805 311.195 122.398 311.442C127.802 312.287 131.575 314.64 135.54 318.267C136.66 319.292 137.72 320.475 138.949 321.37C140.475 322.48 142.807 323.09 143.867 324.637C143.945 324.75 144.015 324.87 144.092 324.985C145.417 326.942 146.373 329.125 146.914 331.425C147.878 335.37 147.257 338.852 145.126 342.28C141.707 347.78 136.472 351.715 130.2 353.175C132.347 347.975 135.134 342.537 134.126 336.792C135.23 336.477 136.31 336.082 137.356 335.61C139.749 334.507 141.914 332.552 142.797 330.022C143.479 328.07 143.279 326.125 142.278 324.307C141.991 323.787 141.983 323.697 141.397 323.515C138.792 325.61 139.375 329.17 136.018 330.955C131.937 333.125 126.563 332.632 122.316 331.317L117.67 329.467C120.276 333.512 126.035 336.385 130.548 337.66C130.003 339.775 129.488 341.942 128.627 343.952C124.971 352.502 117.199 352.52 109.685 355.65L109.244 355.837C108 356.5 109.111 358.982 108.588 361.22C108.433 361.713 108.016 362.914 107.361 362.955C105.725 363.06 102.892 360.89 101.618 359.917C97.6844 356.91 95.7222 352.107 95.1259 347.305C94.0049 338.27 97.0637 326.822 102.677 319.635C106.345 314.937 111.544 311.82 117.452 311.1Z" fill="white"/>
<path d="M378.962 214.149C380.467 215.747 382.33 219.881 383.587 222.003C385.177 224.685 386.897 227.287 388.487 229.97C394.325 239.826 398.792 251.382 401.707 262.447C402.97 267.242 403.89 272.092 404.952 276.93C405.76 280.607 407.632 285.997 406.575 289.727C405.345 294.065 400.48 296.807 396.862 298.942C395.482 299.85 394.047 300.31 392.477 300.745C392.42 280.495 381.297 252.7 370.997 235.531C374.945 229.299 378.107 221.504 378.962 214.149Z" fill="#FDC19A"/>
<path d="M184.731 344.242C186.982 344.635 189.16 345.335 191.386 345.845C196.391 346.945 201.386 348.085 206.373 349.262C209.461 350.025 212.497 350.992 215.605 351.67C216.1 353.287 216.688 354.942 217.019 356.602C217.995 361.49 215.482 369.39 212.687 373.41C209.96 377.33 206.87 377.74 202.557 378.48C198.928 378.972 195.269 379.332 191.602 379.235C185.815 379.085 177.28 377.887 173.157 373.327C171.479 371.472 170.792 369.157 170.968 366.68C171.12 364.55 171.858 362.617 172.574 360.632C173.249 358.757 173.86 356.73 174.797 354.97C176.829 351.147 181.482 347.115 184.731 344.242Z" fill="white"/>
<path d="M280.98 189.079C284.32 188.962 291.72 189.885 294.597 191.459C298.885 193.804 322.755 228.78 324.585 234.841C326.485 241.138 314.865 264.155 311.482 270.517C309.872 273.645 307.805 276.502 306.2 279.627C304.992 278.91 303.685 278.187 302.762 277.105C302.37 276.642 302.057 276.1 302.05 275.477C302.025 272.72 303.267 269.325 303.777 266.57C304.52 262.542 305.04 258.415 305.492 254.347C307.38 237.376 305.212 224.241 297.357 208.991C295.58 205.537 293.875 202.028 291.43 198.981C290.2 197.447 288.872 195.826 287.41 194.512C286.192 193.418 281.717 190.191 281.117 189.329C281.062 189.251 281.027 189.162 280.98 189.079Z" fill="#FDC19A"/>
<path d="M328.677 301.232C333.532 302.982 338.265 304.972 343.245 306.352C348.442 307.795 353.96 308.635 359.022 310.48C359.955 313.772 360.007 317.39 359.717 320.777C359.342 325.122 358.42 328.675 354.942 331.577C353.382 331.137 351.772 330.922 350.172 330.662C344.167 330.012 336.002 327.465 330.43 325.132C326.052 323.302 321.755 321.12 317.245 319.63C317.385 319.55 317.522 319.472 317.66 319.39C323.422 315.965 327.165 307.467 328.677 301.232Z" fill="#FDC19A"/>
<path d="M391.637 306.045L392.085 306.065C392.782 306.845 393.187 308.077 393.59 309.035C395.64 313.932 397.047 318.965 396.98 324.31C390.642 329.172 373.362 331.82 365.312 332.24C363.282 332.29 361.387 332.197 359.38 331.87C359.442 331.81 359.502 331.75 359.562 331.69C359.655 331.597 359.742 331.502 359.832 331.41C360.06 331.18 360.16 331.107 360.342 330.877C364.017 326.3 362.947 315.252 362.397 309.745C371.997 309.507 382.51 309.167 391.637 306.045Z" fill="#FDC19A"/>
<path d="M221.906 359.092C230.515 361.475 241.912 363.782 250.825 364.355C260.41 364.97 270.065 364.395 279.635 363.937C280.355 367.58 280.455 371.257 280.447 374.957L277.562 375L217.709 374.972C219.731 371.295 221.293 363.362 221.906 359.092Z" fill="#EAEAF1"/>
<path d="M299.725 280.84C302.332 282.172 304.765 284.197 307.095 285.955C312.82 290.272 320 296.322 326.297 299.337C323.645 306.595 322.157 311.627 315.975 316.76C315.382 317.097 314.92 317.39 314.22 317.437C307.677 314.682 294.867 303.735 289.747 298.69C293.872 293.955 297.962 286.915 299.725 280.84Z" fill="#FDC19A"/>
<path d="M333.805 331.505C338.317 332.515 342.682 334.08 347.237 334.992C355.835 336.717 363.8 336.32 372.447 335.617C375.672 335.355 378.93 335.175 382.13 334.702C378.515 337.707 374.887 340.85 370.835 343.247C361.157 348.272 350.765 351.757 340.345 354.88C340.422 353.685 340.472 352.562 340.235 351.38C339.777 349.125 336.662 342.32 337.025 340.732C337.782 337.402 334.267 334.67 333.805 331.505Z" fill="#FDC19A"/>
<path d="M361.162 352.76C361.7 353.422 362.15 354.98 362.505 355.81C365.277 362.272 366.57 369.335 371.005 374.952C364.78 375.082 358.537 375 352.312 375.005H343.54C343.517 369.85 343.285 364.222 341.895 359.222C348.367 357.19 354.852 355.26 361.162 352.76Z" fill="#EAEAF1"/>
<path d="M411.147 291.185C411.48 291.2 411.485 291.192 411.875 291.257C414.635 291.707 416.587 293.285 418.142 295.535C419.767 297.887 420.935 300.7 420.35 303.6C419.042 310.077 408.955 317.135 403.66 320.605L400.855 322.265C400.012 315.845 398.357 310.862 395.067 305.257C400.22 302.965 404.317 300.167 407.835 295.695C408.942 294.29 409.777 292.707 410.972 291.372C411.03 291.31 411.087 291.247 411.147 291.185Z" fill="#FDC19A"/>
<path d="M222.19 351.922C227.949 352.365 233.771 354.127 239.61 354.63C242.985 354.92 246.519 354.675 249.906 354.607C259.42 354.505 268.92 353.852 278.357 352.652C278.725 354.702 279.047 356.62 279.062 358.71C278.85 359.115 278.727 359.267 278.412 359.575C275.42 360.387 271.622 360.087 268.515 360.15C252.787 360.462 237.949 359.775 222.924 354.515C222.62 353.68 222.425 352.782 222.19 351.922Z" fill="#FDC19A"/>
<path d="M167.149 360.745L167.44 360.802C167.76 361.31 166.613 367.745 166.548 368.985C166.438 371.07 166.611 372.972 166.981 375.022L127.687 374.995C127.337 374.972 127.043 374.9 126.703 374.815C126.245 373.74 127.002 372.102 127.338 371.02C146.137 370.81 150.368 368.792 167.149 360.745Z" fill="#EAEAF1"/>
<path d="M125.06 353.75L125.364 353.91C125.224 355.87 124.44 357.932 124.066 359.877C123.145 364.68 122.908 370.175 121.113 374.72C120.485 376.312 119.411 377.795 117.778 378.452C115.66 379.302 113.48 378.675 111.476 377.842C111.122 377.522 110.736 377.192 110.456 376.802C109.908 376.04 109.903 374.875 109.939 373.98C110.036 371.557 110.75 369.11 111.182 366.73C111.722 363.75 112.134 360.74 112.633 357.752C116.729 356.315 120.934 355.105 125.06 353.75Z" fill="#808CA7"/>
<path d="M204.654 172.967L205.293 172.539C211.425 179.845 213.955 183.506 217.498 192.355C222.066 203.767 223.366 213.964 222 226.214C220.655 245.364 212.609 261.517 197.767 273.985C197.022 274.61 196.27 275.225 195.511 275.832L195.239 275.415C218.694 257.225 226.207 219.22 215.545 192.298C212.969 185.793 209.222 178.305 204.654 172.967Z" fill="#828BAF"/>
<path d="M158.073 296.597C158.538 296.577 161.16 299.225 161.855 299.752C155.798 303.387 149.385 305.312 142.671 307.28L138.956 308.232L139.93 298.002C145.631 298.302 152.438 297.495 158.073 296.597Z" fill="#EAEAF1"/>
<path d="M127.104 295.192C130.012 295.43 132.692 296.477 135.565 296.855C135.439 300.45 134.969 307.14 133.864 310.392C130.971 310.315 128.007 309.18 125.448 307.902C125.314 303.995 125.816 298.88 127.104 295.192Z" fill="#808CA7"/>
<path d="M161.786 294.677C163.126 294.782 164.997 294.757 166.146 295.287C166.728 296.062 167.317 296.882 167.94 297.617C165.646 298.462 163.349 296.202 161.786 294.677Z" fill="#323C84"/>
<path d="M204.654 172.967C203.147 171.235 201.36 169.297 200.095 167.414L200.221 167.306C202.402 169.187 203.601 170.236 205.293 172.539L204.654 172.967Z" fill="#5A5D94"/>
<path d="M195.511 275.832C194.937 276.597 191.988 278.992 191.029 279.352L190.747 279.222C191.192 278.265 194.264 276.025 195.239 275.415L195.511 275.832Z" fill="#323C84"/>
<path d="M104.774 379.155C99.2769 379.96 93.1642 379.53 87.5874 379.535C81.2984 379.537 74.6387 379.93 68.4039 379.215C67.3062 379.09 66.1334 378.82 65.1662 378.265C64.5644 377.922 64.2517 377.57 64.0444 376.9C64.1589 376.33 64.3937 376.037 64.8092 375.652C65.2782 375.217 65.7574 375.167 66.3702 375.097C69.9574 374.697 73.8372 374.912 77.4647 374.807C86.2934 374.555 95.1809 374.215 104.009 374.595C104.499 376.145 104.765 377.52 104.774 379.155Z" fill="#111754"/>
</svg>
