<svg width="1414" height="1113" viewBox="0 0 1414 1113" fill="none" xmlns="http://www.w3.org/2000/svg">
<path d="M431.629 84.6519C438.979 84.0222 448.216 78.7016 455.396 75.9716C466.938 71.6687 478.547 67.5496 490.219 63.6166C546.036 45.277 603.621 34.9009 661.935 30.7674C666.181 30.4663 670.363 29.685 674.68 29.5014C732.518 27.5284 790.383 32.5876 847.005 44.5681C853.212 45.9216 859.668 46.6601 865.903 47.9514C867.85 48.3552 869.382 50.2253 871.15 50.6343C919.466 61.7905 966.968 80.4402 1010.85 103.4C1018.92 107.624 1028.03 114.026 1036.51 115.953C1040.07 120.635 1068.11 135.953 1075.36 141.051C1096.46 155.713 1116.76 171.519 1136.14 188.399C1235.23 275.53 1299.69 395.391 1317.75 526.103C1321.38 552.267 1323.32 578.451 1322.48 604.836C1322.19 614.256 1322.6 623.415 1321.86 632.862C1318.38 674.8 1310.46 716.248 1298.23 756.515C1292.21 775.813 1285.12 793.993 1277.34 812.628C1274.57 819.228 1266.57 831.926 1266.3 837.933C1265.56 840.46 1265.16 840.853 1262.51 841.668C1261.07 844.906 1261.35 848.034 1260.08 850.844C1227.85 922.064 1164.29 973.771 1094.96 1006.81C1086.4 1010.89 1078.51 1015.58 1069.6 1019.3C1019.45 1040.33 967.485 1056.72 914.35 1068.24C768.918 1098.45 618.685 1096.88 473.921 1063.65C354.573 1035.46 214.883 980.972 153.567 866.282C149.564 858.791 145.969 849.691 142.668 841.772C140.197 840.246 140.262 839.942 139.456 837.719C138.909 833.307 132.143 821.362 129.871 816.411C125.926 807.974 122.282 799.399 118.945 790.699C110.513 768.991 103.526 746.752 98.0315 724.126C68.5212 604.564 81.2914 478.474 134.174 367.257C188.566 252.667 283.411 160.049 395.435 103.204C401.453 100.15 414.753 94.7055 418.745 90.6015L426.316 89.5168L431.629 84.6519Z" fill="#EAEAF1"/>
<path d="M433.946 560.141C446.691 497.391 483.917 442.307 537.386 407.079C593.455 370.3 662.724 356.913 729.004 362.735C809.923 369.842 883.598 409.135 928.366 477.965C944.715 502.986 955.921 531.014 961.327 560.413C1014.79 582 1009.62 617.813 959.249 638.78C981.039 640.589 1002.84 648.304 1017.31 665.414C1027.61 677.376 1032.54 693.043 1030.94 708.743C1029.37 725.245 1023.33 735.629 1012.9 747.802C1046.66 770.69 1059.54 796.996 1062.5 836.78L1168.64 836.628C1185.17 836.621 1208.65 836.041 1224.68 836.904C1229.66 837.677 1238.8 836.531 1241.86 839.39L1241.7 841.026C1236.45 842.345 1231.11 840.888 1225.13 842.241C1237.31 842.58 1251.49 841.192 1262.51 841.668C1261.07 844.906 1261.35 848.034 1260.08 850.844C1227.85 922.064 1164.29 973.771 1094.96 1006.81C1086.4 1010.89 1078.51 1015.58 1069.6 1019.3C1019.45 1040.33 967.486 1056.72 914.35 1068.25C768.918 1098.45 618.685 1096.88 473.921 1063.65C354.573 1035.46 214.883 980.973 153.567 866.283C149.564 858.791 145.97 849.691 142.668 841.772C140.198 840.246 140.262 839.942 139.456 837.719C146.536 837.049 155.926 837.229 163.093 837.422C166.721 836.89 170.833 836.842 174.535 836.711C176.585 821.114 180.606 811.917 196.162 806.828C199.515 805.73 201.994 804.985 204.153 802.181L207.333 798.874C211.572 795.243 215.245 792.992 220.089 790.299L223.69 789.077C226.204 788.062 228.533 787.592 231.161 786.95C235.493 786.557 241.228 786.626 245.871 786.363L247.43 786.218L250.787 786.95C252.577 787.523 255.261 788.283 256.932 788.939C258.261 789.339 259.875 789.705 261.043 790.354C265.36 792.591 267.186 793.834 271.144 796.72L273.782 798.867C276.013 801.422 277.855 803.431 279.713 806.283C299.127 807.18 310.663 817.157 312.993 836.711L333.362 836.745C334.367 806.683 344.871 781.026 367.222 760.299C372.195 755.763 377.497 751.592 383.083 747.836C370.691 733.883 363.452 719.701 364.515 700.361C365.367 684.3 372.755 669.284 384.961 658.805C398.717 646.784 417.262 640.603 435.199 638.642C416.17 629.448 387.428 613.346 399.884 586.27C405.272 574.557 422.325 565.405 433.946 560.141Z" fill="#13255D"/>
<path d="M139.456 837.719C146.536 837.049 155.926 837.229 163.093 837.422L159.911 839.776L159.753 840.922C162.574 842.22 166.206 841.447 169.911 842.276L333.427 842.414C333.762 856.25 335.793 870.653 342.784 882.867C304.349 897.242 326.331 909.705 352.412 916.809C382.787 925.088 412.586 928.809 443.781 932.11C563.861 944.393 684.67 948.018 805.269 942.957C875.292 940.319 946.669 935.051 1015.94 923.382C1033.7 919.302 1059.93 916.437 1072.96 902.662C1078.28 897.049 1068.56 889.136 1063.75 887.279C1060.53 886.043 1055.45 885.09 1052.36 883.123C1060.09 867.877 1061.23 859.04 1062.39 842.365L1225.13 842.241C1237.31 842.579 1251.49 841.192 1262.51 841.668C1261.07 844.906 1261.35 848.034 1260.08 850.844C1227.85 922.064 1164.29 973.771 1094.96 1006.81C1086.4 1010.89 1078.51 1015.58 1069.6 1019.3C1019.45 1040.33 967.486 1056.72 914.35 1068.25C768.918 1098.45 618.685 1096.88 473.921 1063.65C354.573 1035.46 214.883 980.973 153.567 866.283C149.564 858.791 145.97 849.691 142.668 841.772C140.198 840.246 140.262 839.942 139.456 837.719Z" fill="#E8E9F1"/>
<path d="M139.456 837.719C146.536 837.049 155.926 837.229 163.093 837.422L159.911 839.776L159.753 840.922C162.574 842.22 166.206 841.447 169.911 842.276C161.37 842.545 151.321 842.027 142.668 841.772C140.198 840.246 140.262 839.942 139.456 837.719Z" fill="#13255D"/>
<path d="M1099.65 882.536C1101.46 878.787 1105.99 875.183 1109.87 873.933C1115.91 871.979 1122.94 874.154 1129.05 871.786C1134.41 869.846 1140.4 869.148 1145.68 871.806C1149.52 873.871 1152.24 877.233 1156.81 877.537C1169.77 878.4 1171.1 889.295 1177.94 897.318C1183.39 903.691 1183.78 908.904 1179 916.237C1181.97 918.702 1184.45 921.878 1181.82 925.585C1177.18 932.152 1167.73 932.566 1161.27 934.865C1149.51 939.056 1140.88 940.975 1128.39 940.499C1121.87 940.25 1116.25 939.974 1109.73 938.221C1105.24 937.005 1099.86 936.211 1097.05 931.882C1094.39 927.312 1088.79 927.905 1085.32 923.825C1080.69 918.391 1084.63 914.469 1088.66 910.547C1079.65 897.098 1085.5 887.652 1099.65 882.536Z" fill="#13255D"/>
<path d="M1088.66 910.547C1092.76 914.351 1096.02 916.961 1100.83 919.895C1094.45 933.332 1106.62 932.897 1116.42 932.765C1117.33 933.338 1120.55 935.375 1121.49 935.361C1130.2 935.265 1139.01 937.744 1147.58 936.853C1151.71 936.418 1152.07 927.808 1153.76 927.249C1163.99 923.859 1170.78 924.176 1179 916.236C1181.97 918.701 1184.45 921.877 1181.82 925.585C1177.18 932.151 1167.73 932.565 1161.27 934.864C1149.51 939.055 1140.88 940.975 1128.39 940.498C1121.87 940.25 1116.25 939.974 1109.73 938.22C1105.24 937.005 1099.86 936.211 1097.05 931.882C1094.39 927.311 1088.79 927.905 1085.32 923.824C1080.69 918.39 1084.63 914.469 1088.66 910.547Z" fill="#C1C6DD"/>
<path d="M1101.77 887.21L1102.62 887.086C1109.78 873.733 1114.86 879.526 1124.1 878.041C1135.56 876.191 1141.09 869.362 1150.53 882.474C1155.88 880.133 1161.34 883.461 1165.34 887.01C1167.55 889.434 1169.7 891.533 1169.14 894.999L1170.31 896.642C1173.03 897.995 1175.84 900.046 1176.71 903.16C1181.38 920.027 1154.81 921.077 1144.42 924.211C1138.87 925.882 1124.81 933.367 1120.71 929.41C1113.21 922.161 1093.88 911.521 1089.57 902.884C1088.3 893.673 1092.94 888.992 1101.77 887.21Z" fill="#FBE2D7"/>
<path d="M1150.53 882.473C1155.88 880.133 1161.34 883.46 1165.33 887.009C1162.21 890.393 1153.56 896.503 1149.21 897.905C1147.36 896.254 1146.78 895.157 1145.24 893.624C1147.16 890.061 1149.14 886.761 1150.32 882.894L1150.53 882.473Z" fill="#FDF9F8"/>
<path d="M1169.14 894.998L1170.31 896.641C1160.28 904.222 1148.34 913.612 1137.41 919.578C1143.3 912.881 1161.27 898.63 1169.14 894.998Z" fill="#344272"/>
<path d="M1131.2 915.815C1133.31 909.235 1143.8 884.676 1150.33 882.895C1149.14 886.761 1147.16 890.061 1145.24 893.624C1141.2 900.563 1135.92 909.525 1131.2 915.815Z" fill="#525C8A"/>
<path d="M1089.57 902.883C1088.3 893.673 1092.94 888.991 1101.77 887.21C1101.55 888.246 1101.28 889.502 1100.97 890.973C1097.71 893.88 1092.67 900.467 1089.57 902.883Z" fill="#FDF9F8"/>
<path d="M1123.69 881.493C1125.86 884.566 1123.5 909.028 1122.97 913.999C1119.52 904.906 1120.89 890.766 1123.69 881.493Z" fill="#344272"/>
<path d="M1104.83 891.305C1107.34 894.646 1114.64 911.134 1115.18 915.643C1109.68 911.072 1104.09 898.72 1104.83 891.305Z" fill="#344272"/>
<path d="M1146.35 927.388L1147.05 927.588L1147.7 928.955C1147.32 931.751 1147.84 930.999 1146.09 932.525C1143.2 933.174 1140.31 932.29 1137.32 931.703L1135.96 931.309L1135.9 930.619C1138.55 929.148 1143.26 928.175 1146.35 927.388Z" fill="#E8E9F1"/>
<path d="M1104.92 921.229C1107.06 922.112 1112.41 925.516 1112.6 927.94C1109.18 927.898 1106.39 928.237 1103.81 926.179C1103.34 923.438 1103.52 924.246 1104.92 921.229Z" fill="#E8E9F1"/>
<path d="M1039.09 945.511C1048.4 928.961 1078.61 931.709 1078.29 949.032C1085.93 963.815 1045.34 964.657 1038.52 954.949C1037.83 951.953 1038.86 948.763 1039.09 945.511Z" fill="#13255D"/>
<path d="M1078.29 949.033C1085.93 963.815 1045.34 964.658 1038.52 954.95C1037.83 951.954 1038.86 948.764 1039.09 945.512C1039.66 949.337 1040.03 951.712 1043.55 954.039C1053.25 960.446 1072.24 960.163 1078.29 949.033Z" fill="#C1C6DD"/>
<path d="M1044.65 944.952C1050.7 937.157 1061.4 938.075 1069.5 941.534C1086.43 953.106 1048.4 958.064 1044 947.272C1044.1 946.878 1044.52 945.208 1044.65 944.952Z" fill="#C1C6DD"/>
<path d="M1044.65 944.952C1050.7 937.157 1061.4 938.075 1069.5 941.534C1067.74 943.33 1066.91 943.896 1064.23 943.323C1059.87 942.384 1048.07 946.74 1044.65 944.952Z" fill="#FDF9F8"/>
<path d="M244.079 896.344C244.465 892.071 244.597 889.903 248.188 886.948C258.119 878.78 282.493 879.801 282.649 896.282C283.841 898.243 284.084 898.402 283.966 900.584C279.173 909.767 247.922 910.022 242.708 900.991C242.677 898.036 242.529 899.12 244.079 896.344Z" fill="#13255D"/>
<path d="M244.079 896.344C251.311 907.833 275.275 907.606 282.649 896.282C283.841 898.243 284.084 898.402 283.966 900.584C279.173 909.767 247.922 910.022 242.708 900.991C242.677 898.036 242.529 899.12 244.079 896.344Z" fill="#C1C6DD"/>
<path d="M256.013 887.507C262.195 886.43 266.8 885.753 272.812 888.28C275.507 889.503 276.109 889.585 278.033 891.698C280.13 902.441 247.647 903.097 248.543 893.279C250.743 889.793 252.41 889.219 256.013 887.507Z" fill="#C1C6DD"/>
<path d="M256.013 887.507C262.195 886.43 266.799 885.753 272.812 888.28C267.922 895.206 262.21 889.233 258.17 891.94L256.013 887.507Z" fill="#E8E9F1"/>
<path d="M248.542 893.279C250.742 889.792 252.41 889.219 256.012 887.507L258.169 891.939C254.724 892.872 252.083 892.982 248.542 893.279Z" fill="#FDF9F8"/>
<path d="M514.047 641.329C525.373 641.371 539.445 642.462 551.023 643.02L621.47 646.371C628.572 646.705 666.778 647.564 671.324 649.022C673.887 651.006 676.505 653.179 679.287 654.804C684.79 653.676 690.823 652.655 695.649 649.725C721.216 651.183 750.193 652.769 775.746 653.311C782.202 664.222 789.286 663.421 797.37 654.447L855.808 656.962C864.135 657.333 872.862 657.367 881.12 658.346C885.442 658.858 887.63 663.133 889.432 666.63C888.825 677.245 888.404 690.375 887.437 700.783C872.738 718.431 863.631 733.669 860.931 757.268C859.281 762.371 857.576 765.077 857.824 770.725C858.211 779.687 864.805 788.366 873.58 790.755C874.45 790.99 875.313 791.204 876.19 791.397C874.022 795.049 873.18 796.9 872.4 801.236C868.312 806.973 870.57 809.694 874.284 815.19C869.23 818.739 865.474 822.902 864.411 829.282C863.555 834.432 864.853 839.708 867.995 843.878C869.306 845.611 871.55 847.454 873.325 848.773C870.887 851.563 873.042 859.33 872.503 863.997C874.74 866.421 875.244 866.669 878.171 868.258L878.261 871.164C875.879 875.079 874.222 876.564 870.183 878.987L860.434 878.821L857.031 878.511C833.666 878.007 809.729 875.97 786.185 875.383C783.389 871.068 779.406 868.547 775.201 865.537C770.478 868.485 767.143 869.908 763.76 874.257C757.332 874.126 750.587 873.719 744.131 873.429C739.512 873.436 736.93 873.415 732.394 872.801L725.731 872.718C723.757 872.663 721.547 872.476 719.559 872.352C708.443 871.724 694.973 872.159 683.914 870.384C682.817 870.211 681.262 868.762 680.441 867.933C676.774 865.199 667.302 864.812 662.81 866.49L658.873 869.362C646.095 868.499 633.309 867.781 620.514 867.201C593.025 865.544 560.595 865.157 533.791 862.499C527.526 862.596 526.223 861.505 521.556 857.569L521.289 857.176C519.714 856.741 518.289 857.942 516.459 858.881C518.933 855.015 519.692 853.006 520.097 848.573C519.752 848.407 516.816 847.841 516.346 847.855C512.154 847.986 510.544 844.789 507.382 841.261L506.808 841.537L505.433 840.923C504.839 839.328 505.299 840.053 503.6 839.017L502.446 838.831L498.3 838.996L498.406 833.397C498.504 829.862 499.001 825.415 499.311 821.818C510.404 818.318 518.766 814.845 523.195 803.473C523.437 797.57 523.003 796.472 520.141 791.321C522.222 790.278 525.237 789.802 527.557 788.718C540.374 782.732 541.71 760.934 536.881 749.459C536.097 747.595 534.632 747.464 532.954 746.994C528.636 728.843 520.985 715.337 508.716 701.57C515.98 696.316 516.729 694.016 518.911 685.502C518.638 684.339 518.334 683.184 517.997 682.039C515.719 674.393 512.773 671.863 506.026 668.265C506.071 664.101 506.244 661.36 506.686 657.216C506.554 655.177 506.765 650.558 506.807 648.336C509.782 644.538 510.173 644.127 514.047 641.329Z" fill="#FDE9DA"/>
<path d="M514.047 641.329C525.373 641.371 539.445 642.462 551.023 643.02L621.471 646.371C628.572 646.705 666.778 647.564 671.324 649.022C671.897 650.999 671.989 651.46 672.247 653.504C664.462 654.084 649.167 652.572 640.816 652.447C610.375 651.988 575.796 647.567 545.639 648.369L537.327 647.58L526.34 647.669L523.896 647.263C520.122 646.752 517.326 646.014 513.88 648.263C511.05 650.112 510.456 662.699 508.351 662.819C509.134 657.215 510.035 648.786 515.323 646.367C520.31 644.086 532.664 648.892 536.488 646.389C535.75 641.063 518.99 642.767 514.29 642.828C510.739 645.168 510.5 645.671 508.027 649.088L507.521 649.779C507.51 654.054 507.677 660.133 507.198 664.233L506.687 657.216C506.554 655.177 506.765 650.558 506.807 648.336C509.783 644.538 510.173 644.127 514.047 641.329Z" fill="#FDF9F8"/>
<path d="M499.311 821.818C510.405 818.317 518.766 814.844 523.195 803.473C529.68 816.902 519.412 822.833 509.751 829.061C505.656 831.56 503.056 832.188 498.406 833.397C498.504 829.862 499.001 825.415 499.311 821.818Z" fill="#EED2C0"/>
<path d="M620.514 867.201C621.237 861.623 631.359 862.693 635.386 862.934C641.835 863.321 645.926 866.918 652.097 863.514C652.269 860.214 652.634 859.344 655.26 857.335C657.539 857.128 668.672 855.616 669.675 855.933C669.742 857.086 669.775 858.143 669.794 859.303C667.276 862.375 664.814 863.017 662.809 866.49L658.873 869.362C646.095 868.499 633.308 867.781 620.514 867.201Z" fill="#FDE9DA"/>
<path d="M866.22 854.656L866.531 852.633L867.38 852.46C874.54 857.272 870.935 856.637 872.503 863.997C874.74 866.421 875.244 866.669 878.171 868.257L878.261 871.164C875.879 875.079 874.222 876.563 870.183 878.987L860.434 878.821L857.03 878.51C858.031 876.86 857.534 873.912 858.694 871.054C859.716 869.535 861.622 868.216 863.099 866.994C865.088 864.287 867.76 861.698 868.319 858.653C867.739 856.368 867.753 856.485 866.22 854.656Z" fill="#FBE2D7"/>
<path d="M870.065 871.847C870.466 871.35 871.563 870.349 872.067 869.845C874.436 869.169 875.886 870.17 878.261 871.164C875.879 875.079 874.222 876.563 870.183 878.987L869.989 873.001L870.065 871.847Z" fill="#FDF9F8"/>
<path d="M869.99 873.001L870.183 878.987L860.435 878.821C863.169 869.245 863.79 877.634 869.99 873.001Z" fill="#FDE9DA"/>
<path d="M526.34 647.67L537.327 647.581L545.639 648.369L545.176 650.358C541.166 654.064 537.464 660.334 532.593 661.722C531.505 660.783 530.899 660.177 529.916 659.164L528.98 659.391C525.533 667.343 532.741 670.285 530.24 674.964L529.487 674.751C526.428 668.043 524.173 669.405 523.615 666.24L525.405 664.562C525.149 660.151 523.244 662.686 522.653 658.634C523.458 657.716 524.268 656.802 525.082 655.894C524.379 652.463 524.163 650.74 523.896 647.264L526.34 647.67Z" fill="#EED2C0"/>
<path d="M526.34 647.669L537.327 647.58C537.115 650.555 537.365 654.452 534.006 655.219C530.496 652.979 529.76 650.198 526.34 647.669Z" fill="#FBE2D7"/>
<path d="M509.751 829.061C511.662 829.765 512.554 829.682 514.598 829.62L515.643 830.51C515.631 831.85 515.776 831.988 515.381 833.203C515.51 840.591 517.931 836.524 519.942 842.082C519.22 843.553 519.095 843.774 518.115 845.079C518.976 845.486 518.916 845.569 519.821 845.686L520.097 848.573C519.752 848.407 516.816 847.841 516.346 847.854C512.154 847.986 510.544 844.789 507.382 841.261L506.808 841.537L505.433 840.922C504.839 839.327 505.299 840.052 503.6 839.017L502.446 838.83L498.3 838.996L498.406 833.397C503.055 832.188 505.656 831.56 509.751 829.061Z" fill="#EED2C0"/>
<path d="M509.751 829.061C511.662 829.765 512.554 829.682 514.598 829.62L515.643 830.51C515.631 831.85 515.776 831.988 515.381 833.203L513.998 830.966L513.726 831.394C511.04 835.565 510.282 835.357 505.384 835.123C503.523 836.138 502.824 836.51 502.446 838.83L498.3 838.996L498.406 833.397C503.055 832.188 505.656 831.56 509.751 829.061Z" fill="#FBE2D7"/>
<path d="M737.759 867.705L736.578 866.179C738.698 863.818 739.775 862.347 742.627 860.828C744.532 860.821 744.581 861.035 746.189 862.016C749.034 859.454 747.259 858.992 750.214 857.776C754.461 865.337 752.99 860.856 761.427 863.286L762.483 862.34C762.311 863.693 762.483 863.031 761.938 864.315L762.546 865.537C756.332 870.287 745.319 860.476 744.132 873.429C739.513 873.436 736.931 873.415 732.395 872.8C734.804 872.745 738.208 873.028 739.996 871.703C739.741 869.369 739.589 869.887 737.759 867.705Z" fill="#EED2C0"/>
<path d="M866.22 854.655C867.752 856.485 867.739 856.368 868.319 858.653C867.759 861.698 865.087 864.287 863.099 866.994C861.621 868.216 859.716 869.534 858.694 871.053C854.607 870.287 850.14 869.666 846.156 871.309C846.639 871.109 843.691 874.34 843.367 874.609C843.035 872.51 843.166 871.758 843.332 869.61C846.625 865.219 852.542 866.994 860.144 863.424L861.076 862.975C861.166 862.554 865.64 855.574 866.22 854.655Z" fill="#EED2C0"/>
<path d="M519.821 845.687C522.944 845.707 523.841 847.786 524.748 850.561C524.388 852.412 524.497 851.832 522.865 853.399C524.199 854.082 523.632 853.917 525.223 853.82C527.558 852.149 527.902 851.666 530.629 851.3L528.524 853.123C528.683 853.986 528.779 854.69 529.033 855.525C531.237 858.191 533.082 859.406 533.79 862.499C527.525 862.596 526.222 861.505 521.556 857.569L521.289 857.176C519.714 856.741 518.289 857.942 516.459 858.881C518.932 855.014 519.692 853.005 520.096 848.573L519.821 845.687Z" fill="#EED2C0"/>
<path d="M728.949 858.322C730.902 860.007 732.311 860.822 732.953 863.259C731.745 868.493 726.594 866.276 724.875 869.894L725.558 872.166L725.731 872.718C723.756 872.663 721.547 872.476 719.559 872.352C719.89 870.93 720.014 870.716 719.897 869.218C719.469 863.887 725.338 860.953 728.949 858.322Z" fill="#EED2C0"/>
<path d="M669.795 859.302L674.636 856.796C680.05 861.926 674.555 860.372 681.665 861.878C681.473 866.428 679.927 862.423 680.44 867.933C676.774 865.199 667.302 864.812 662.81 866.49C664.814 863.017 667.276 862.375 669.795 859.302Z" fill="#EED2C0"/>
<path d="M530.63 851.3L532.375 850.126C534.664 850.816 533.906 850.526 535.73 852.432C536.235 854.856 536.468 853.813 535.348 855.719C533.259 856.664 531.361 856.078 529.033 855.525C528.779 854.69 528.683 853.986 528.524 853.122L530.63 851.3Z" fill="#EED2C0"/>
<path d="M814.479 706.472C820.299 705.602 839.445 705.43 845.148 707.784C847.122 708.599 850.505 711.333 851.106 714.481C853.095 724.811 850.913 739.703 850.305 750.447C850.381 751.766 845.748 753.692 845.555 754.127C844.25 757.116 846.825 761.142 842.579 762.253C840.536 761.294 840.294 760.81 838.734 759.084L836.821 753.063C831.339 752.732 825.443 752.649 819.926 752.47C818.608 755.963 816.35 760.493 812.228 761.142L811.123 759.996C809.791 755.812 812.442 754.99 811.545 752.38C809.28 750.868 808.534 750.578 807.001 748.424C805.614 742.431 807.381 724.237 808.293 717.526C809.031 712.051 809.984 709.579 814.479 706.472Z" fill="#A99A98"/>
<path d="M814.12 715.233C822.55 715.371 837.07 714.985 845.376 717.104C847.668 717.691 847.219 730.692 845.659 732.571C833.287 732.515 824.518 732.06 812.325 731.701C812.484 726.474 812.387 720.129 814.12 715.233Z" fill="#FDE9DA"/>
<path d="M815.314 741.767C816.757 741.526 818.131 742.465 818.442 743.894C818.746 745.323 817.869 746.745 816.453 747.111C815.48 747.367 814.444 747.063 813.761 746.331C813.077 745.592 812.849 744.536 813.174 743.583C813.498 742.63 814.32 741.933 815.314 741.767Z" fill="#FDE9DA"/>
<path d="M841.275 743.245C842.608 742.872 844.002 743.556 844.534 744.833C845.059 746.11 844.548 747.574 843.339 748.251C842.421 748.762 841.289 748.706 840.433 748.092C839.577 747.484 839.142 746.442 839.321 745.406C839.501 744.37 840.26 743.528 841.275 743.245Z" fill="#FDE9DA"/>
<path d="M564.699 801.512L565.28 799.855C567.814 799.295 577 799.109 580.134 798.95C590.128 798.467 600.118 797.914 610.104 797.293C623.54 796.485 754.357 789.629 757.491 790.975C758.589 792.812 758.341 791.804 757.912 794.172C755.399 796.996 752.824 796.761 748.965 796.83C737.628 797.038 711.433 798.584 701.173 798.777C687.009 799.047 574.045 806.4 568.439 804.632C568.568 803.762 568.679 802.886 568.771 802.002C565.868 802.672 566.953 802.872 564.699 801.512Z" fill="#DE9D8E"/>
<path d="M718.758 720.578C721.658 720.461 724.537 720.157 727.423 719.888C729.301 720.178 730.972 720.316 732.712 721.068L731.303 723.437C730.792 723.823 730.427 725.17 730.13 725.908C728.466 726.323 720.409 726.316 718.089 726.44L684.907 728.277L591.378 732.55C584.421 732.82 547.526 736.341 545.702 731.218C550.036 727.193 563.019 727.918 569.142 727.655L600.429 726.026C639.86 723.927 679.304 722.118 718.758 720.578Z" fill="#DE9D8E"/>
<path d="M718.758 720.578C721.658 720.461 724.537 720.157 727.423 719.888C723.901 721.386 724.53 722.656 721.43 724.265L719.911 723.761C719.172 722.263 719.069 722.194 718.758 720.578Z" fill="#FDB197"/>
<path d="M727.54 741.74C734.348 741.402 743.358 740.104 748.702 745.054C756.835 752.594 756.538 764.235 749.385 772.217C742.888 776.718 735.142 775.993 727.395 776.097C727.23 769.551 724.73 745.662 727.54 741.74Z" fill="#DE9D8E"/>
<path d="M732.532 747.347C746.983 746.235 753.176 756.316 744.815 768.039C740.824 770.787 738.353 770.228 733.299 770.394C733.25 763.027 732.774 754.776 732.532 747.347Z" fill="#FDE9DA"/>
<path d="M675.718 743.922C689.796 743.811 693.709 756.888 682.384 765.056C685.716 769.372 689.403 772.851 689.338 778.285L687.765 779.148C683.25 777.464 682.093 775.22 679.449 771.332C677.673 768.439 676.929 766.886 673.837 765.546C669.039 765.975 670.088 773.611 670.059 777.464C668.569 779.445 669.497 778.817 667.301 779.59L665.936 778.741C663.314 774.446 661.709 748.423 664.309 745.109C667.298 743.956 672.35 744.039 675.718 743.922Z" fill="#DE9D8E"/>
<path d="M669.381 749.949C676.712 749.397 684.907 748.541 681.291 758.794C677.64 760.658 673.659 760.32 669.56 760.382L669.381 749.949Z" fill="#FDE9DA"/>
<path d="M551.6 830.062L642.143 834.701C656.249 835.35 672.224 835.744 686.351 837.118C688.201 837.304 688.747 838.029 689.51 839.279L688.834 841.164C676.005 841.261 660.68 840.259 647.751 839.645C625.052 838.609 602.359 837.429 579.673 836.124C571.68 835.661 560.738 835.178 552.62 834.398C551.301 834.266 551.1 833.148 550.686 832.174L551.6 830.062Z" fill="#A99A98"/>
<path d="M617.213 746.414C623.78 746.276 632.545 744.964 638.124 748.755C643.93 752.704 642.968 760.216 638.592 764.884C634.773 768.95 631.55 768.702 626.397 768.902C620.217 768.985 625.76 776.635 622.544 780.764C620.173 781.599 621.255 781.662 619.203 781.095C617.046 776.711 615.568 750.826 617.213 746.414Z" fill="#DE9D8E"/>
<path d="M622.667 751.979C629.49 751.558 638.265 750.985 634.674 760.969C630.858 763.751 628.06 763.033 623.178 762.902C622.945 759.333 622.832 755.57 622.667 751.979Z" fill="#FDE9DA"/>
<path d="M553.559 749.355C560.477 748.913 571.051 747.505 577.171 750.598L577.046 752.103C572.837 754.554 564.987 754.61 560.015 754.879C560.02 757.765 560.191 760.34 560.379 763.199C565.553 762.923 570.57 761.928 574.702 764.966L574.793 766.14C571.108 769.503 565.754 768.992 560.685 769.213L560.607 778.175C565.301 777.871 575.126 776.476 578.688 779.452C578.449 781.295 578.453 780.771 576.928 782.435C572.147 783.898 560.189 783.898 554.738 784.078C554.075 772.513 553.681 760.941 553.559 749.355Z" fill="#DE9D8E"/>
<path d="M706.02 742.52C709.88 742.265 717.737 741.064 719.697 744.999C717.184 748.935 706.462 748.382 702.126 748.417L702.803 756.889C708.181 756.633 712.814 755.694 717.219 758.739L717.212 759.982C713.083 763.248 708.25 762.647 702.941 762.764L703.493 771.478C707.498 771.347 719.366 770.111 721.037 773.991C717.799 778.797 703.417 777.45 697.362 777.526C697.1 772.148 695.187 746.939 696.996 743.943C699.73 742.479 702.816 742.679 706.02 742.52Z" fill="#DE9D8E"/>
<path d="M604.996 746.953C606.143 747.112 608.933 747.526 608.834 748.99C608.523 753.595 603.056 760.5 600.484 764.401C603.237 768.343 611.429 776.484 610.107 780.951C604.988 783.878 600.14 773.763 596.955 770.152L596.588 769.745C593.89 774.191 591.359 777.996 588.438 782.269L585.016 782.428C580.722 779.922 590.352 768.019 592.623 764.573C589.621 759.782 585.811 756.15 583.198 751.241C583.259 748.845 582.911 749.922 584.387 747.927L586.027 747.809C590.219 749.77 593.856 755.639 596.597 759.526C599.462 754.79 601.796 751.407 604.996 746.953Z" fill="#DE9D8E"/>
<path d="M557.844 812.808C583.543 814.886 610.206 814.189 635.995 816.357C641.181 816.792 657.193 815.832 660.236 818.808L660.14 820.175C658.552 821.859 658.987 821.321 655.996 821.645C648.023 821.224 555.634 817.033 553.253 815.68C554.3 813.933 555.671 813.781 557.844 812.808Z" fill="#A99A98"/>
<path d="M755.095 659.041C757.747 658.67 763.325 658.703 766.232 658.645C765.031 660.625 764.63 661.405 763.774 663.554C764.754 665.61 765.493 665.086 768.49 666.29C768.531 668.946 767.627 668.772 766.508 671.203L767.04 673.581C765.631 675.902 760.695 677.153 758.568 678.908C757.705 680.673 757.022 682.072 756.518 683.106C754.874 682.601 752.52 678.968 751.174 677.276C745.588 677.755 745.913 678.266 742.806 682.593C741.377 679.388 739.83 677.003 740.569 673.682C743.586 671.66 746.396 673.638 751.422 671.883C753.314 667.841 753.687 668.436 757.892 668.756L758.52 667.758C753.645 666.184 754.757 663.653 755.095 659.041Z" fill="#EED2C0"/>
<path d="M657.502 677.438C662.117 677.34 672.716 676.997 675.994 679.651L676.053 681.052C670.972 685.45 665.435 679.333 661.684 683.298C661.504 685.149 661.178 686.518 661.798 688.251C665.193 690.068 669.033 688.639 673.461 690.585L673.87 691.669L672.741 693.457C670.418 694.693 665.095 693.844 661.436 694.017C661.229 696.081 660.627 698.795 661.57 700.486C666.673 702.848 672.519 698.781 675.124 704.007L674.52 705.264C671.974 706.7 659.628 705.616 655.8 705.492C655.792 700.604 656.365 680.824 657.502 677.438Z" fill="#A99A98"/>
<path d="M629.471 675.499C631.351 675.728 631.356 675.635 633.034 676.694C634.613 679.644 633.897 684.397 633.729 687.953C638.65 683.892 642.084 679.292 648.594 677.247L649.375 677.659C648.489 681.442 643.123 686.235 640.25 689.038C642.957 693.353 645.422 696.806 648.403 700.886C648.806 701.411 649.134 702.246 649.435 702.888L648.804 704.345L647.253 704.863C641.58 703.682 639.48 693.215 635.198 692.732C632.71 695.991 633.888 699.588 631.37 703.965L630.107 704.297L628.725 703.323C627.106 700.375 628.859 679.651 629.471 675.499Z" fill="#A99A98"/>
<path d="M609.87 674.701C614.082 674.548 621.497 675.447 621.624 680.908C617.962 682.572 597.909 673.862 604.94 694.728C606.056 698.042 612.249 699.851 615.385 697.759C617.664 696.412 618.057 695.991 620.467 696.896C621.477 699.747 619.411 701.998 616.79 702.82C597.469 708.861 590.75 680.961 609.87 674.701Z" fill="#A99A98"/>
<path d="M559.107 672.537C564.052 672.415 575.591 672.413 580.511 673.81C581.582 674.113 581.605 675.114 581.812 675.97L580.955 677.22C578.167 678.328 575.542 677.817 572.474 677.599C572.467 683.018 572.284 686.949 571.805 692.345C571.689 695.39 572.244 700.085 569.233 701.39L567.434 700.451C565.732 697.6 567.491 681.962 567.678 677.456C564.961 677.365 563.26 677.447 560.621 676.688C558.839 674.732 559.355 675.617 559.107 672.537Z" fill="#A99A98"/>
<path d="M681.31 678.551C685.658 678.634 699.957 678.375 703.092 680.312C703.589 682.641 703.838 681.674 702.788 683.394C700.047 684.475 697.534 683.962 694.524 683.728C694.572 688.207 694.165 693.347 693.916 697.869C693.895 701.225 694.475 704.663 691.873 706.99C689.62 706.569 690.623 707.039 688.853 705.375C688.422 700.914 689.48 689.159 689.741 683.687C687.028 683.658 684.167 683.944 681.848 682.763C680.607 680.543 680.904 681.476 681.31 678.551Z" fill="#A99A98"/>
<path d="M649.191 744.585C650.001 744.751 652.392 745.241 652.622 745.717C655.188 751.061 656.209 777.064 653.489 780.675C650.685 780.046 650.55 780.136 649.166 778.293C648.516 772.624 646.6 748.465 649.191 744.585Z" fill="#DE9D8E"/>
<path d="M805 776.214C805.394 776.138 806.643 775.903 807.002 775.931C814.342 776.456 844.596 775.427 849.098 779.252L849.029 781.178C843.65 782.104 813.81 780.301 806.768 778.969C805.463 778.72 805.338 777.305 805 776.214Z" fill="#A99A98"/>
<path d="M588.478 673.535C590.118 673.756 591.969 674.074 592.104 676.084C592.493 681.834 592.456 697.835 590.02 702.551C588.82 702.267 586.902 701.826 586.755 700.465C586.175 695.128 586.405 678.022 588.478 673.535Z" fill="#A99A98"/>
<path d="M731.676 695.839C734.597 697.71 737.828 702.488 737.262 706.092C732.152 709.689 732.539 703.634 727.824 703.151C725.29 704.249 724.641 705.719 723.053 708.018C722.162 710.014 722.625 711.415 722.328 713.604L720.871 714.612L721.768 714.412L720.926 714.73C717.336 711.374 721.948 702.999 723.999 699.857L731.676 695.839Z" fill="#EED2C0"/>
<path d="M794.353 863.583C803.446 865.855 811.117 861.933 819.057 868.195L818.09 869.003C810.164 870.184 799.739 868.582 791.647 867.684L791.509 866.807L794.353 863.583Z" fill="#EED2C0"/>
<path d="M568.438 804.633C563.69 805.448 551.829 807.07 548.491 802.955C551.432 799.227 561.246 798.55 564.699 801.512C566.953 802.872 565.868 802.672 568.771 802.002C568.679 802.886 568.568 803.763 568.438 804.633Z" fill="#FDB197"/>
<path d="M783.127 701.625C783.7 701.798 784.57 702.239 785.15 702.509C786.759 706.79 785.571 719.383 784.294 723.947C783.818 723.678 782.74 722.815 782.326 722.497C780.6 718.196 782.05 706.258 783.127 701.625Z" fill="#A99A98"/>
<path d="M780.303 757.689C780.78 757.917 781.56 758.525 782.029 758.856C783.901 763.047 782.727 773.314 781.166 777.374L779.316 776.338C777.245 772.154 778.985 762.019 780.303 757.689Z" fill="#A99A98"/>
<path d="M781.49 731.301C782.643 731.888 783.561 732.033 783.845 733.034C784.956 737.011 783.976 748.016 782.595 751.607L781.131 751.013C779.274 747.678 780.731 735.305 781.49 731.301Z" fill="#A99A98"/>
<path d="M778.75 784.527C783.265 787.11 780.835 798.578 779.475 802.803C775.208 800.442 777.666 788.594 778.75 784.527Z" fill="#A99A98"/>
<path d="M777.707 810.143C781.725 812.027 779.688 824.835 777.942 828.004C774.703 824.759 776.319 814.133 777.707 810.143Z" fill="#A99A98"/>
<path d="M776.077 845.493L777.72 846.812C778.797 850.955 777.886 853.274 776.595 857.203C773.164 855.021 773.978 848.324 776.077 845.493Z" fill="#A99A98"/>
<path d="M785.005 671.324C786.22 671.969 785.951 671.892 786.959 672.923C787.781 676.577 787.601 679.91 785.758 683.228L784.28 682.163C782.837 678.613 784.094 674.989 785.005 671.324Z" fill="#A99A98"/>
<path d="M742.785 657.471C745.105 657.493 746.258 657.27 748.233 658.324C748.702 660.302 747.943 661.13 747.107 663.322C746.493 663.936 746.279 663.87 745.367 664.227L744.159 663.522C742.764 661.061 742.868 660.339 742.785 657.471Z" fill="#EED2C0"/>
<path d="M783.852 684.324C785.164 684.666 785.136 684.793 786.199 685.675C787.373 688.97 786.717 691.303 785.454 694.527C784.066 693.933 784.591 694.237 783.576 692.891C782.706 689.737 783.341 687.576 783.852 684.324Z" fill="#A99A98"/>
<path d="M776.664 833.7L777.755 834.667C779.267 838.361 778.356 841.102 777.479 844.906C776.616 844.471 776.429 844.223 775.67 843.608C774.683 839.755 775.131 837.339 776.664 833.7Z" fill="#A99A98"/>
<path d="M732.711 721.068L733.775 720.475C735.611 722.125 737.42 723.195 738.138 725.239C736.502 726.053 734.741 725.763 732.849 725.701C731.655 724.804 731.745 724.866 731.303 723.437L732.711 721.068Z" fill="#DE9D8E"/>
<path d="M782.195 881.466C783.099 881.59 784.004 881.7 784.915 881.79C799.324 883.192 816.412 883.054 831.139 884.096C842.663 884.276 854.386 885.829 865.875 885.325C884.993 884.497 883.867 871.834 884.827 858.163L885.435 862.409C886.498 863.203 941.511 867.47 943.569 866.552C944.646 871.675 946.034 877.627 946.558 882.563C947.808 894.377 947.415 923.127 967.064 917.707C984.47 912.909 990.87 884.172 993.818 869.321L994.336 871.392C997.567 872.669 1018.58 875.769 1021.19 874.713L1021.55 873.595C1022.68 877.931 1023.31 881.12 1025.71 884.966C1033.63 897.608 1045.26 894.453 1052.36 883.123C1055.45 885.091 1060.53 886.043 1063.74 887.279C1068.56 889.136 1078.28 897.049 1072.96 902.662C1059.93 916.437 1033.7 919.302 1015.94 923.383C946.669 935.051 875.292 940.319 805.269 942.957C684.67 948.018 563.861 944.393 443.781 932.11C412.586 928.81 382.787 925.088 352.411 916.81C326.33 909.705 304.349 897.242 342.784 882.867C345.798 887.424 348.873 891.429 354.507 893.024C357.842 893.997 361.43 893.528 364.408 891.746C370.632 888.004 372.439 881.486 373.918 874.975C383.273 874.175 392.629 872.2 402.066 871.13C403.529 880.023 406.127 888.695 409.795 896.932C416.473 911.562 434.962 931.254 444.917 909.049C449.176 899.555 448.821 878.172 452.515 865.827L452.653 865.385L452.911 865.772C454.027 866.435 493.538 863.466 497.219 862.692L499.584 864.722C504.166 868.133 508.286 867.65 514.038 867.974L519.604 864.08C521.279 865.095 523.472 866.932 525.067 868.181C536.753 870.294 564.418 871.185 577.356 871.779C604.524 873.035 633.336 875.134 660.411 875.68C663.047 873.781 664.751 872.697 667.554 871.074L668.167 871.171C674.701 872.31 681.141 876.522 684.154 876.84C710.507 879.594 737.586 879.843 764.078 880.844C770.471 881.086 771.935 863.645 782.195 881.466Z" fill="#C1C6DD"/>
<path d="M884.827 858.163C885.42 851.417 887.243 848.351 880.325 845.949L879.455 844.581C882.728 840.929 921.088 842.414 928.703 842.462C933.267 847.965 937.354 852.611 942.602 857.534C942.698 861.38 942.843 862.782 943.568 866.552C941.511 867.47 886.497 863.203 885.434 862.409L884.827 858.163Z" fill="#E8E9F1"/>
<path d="M466.799 842.448L491.574 842.469C491.064 850.747 489.889 854.635 495.303 861.152L497.219 862.692C493.538 863.465 454.027 866.434 452.911 865.772L452.652 865.385C453.01 862.747 452.978 860.483 453.012 857.838C458.207 853.537 462.71 847.799 466.799 842.448Z" fill="#E8E9F1"/>
<path d="M993.335 842.394L1013.76 842.38C1017.86 855.043 1019.45 860.497 1021.55 873.595L1021.19 874.713C1018.58 875.77 997.567 872.67 994.336 871.392L993.818 869.321C995.054 857.86 994.716 853.786 993.335 842.394Z" fill="#E8E9F1"/>
<path d="M382.062 842.365L402.347 842.42C400.441 852.943 401.022 860.71 402.065 871.129C392.629 872.199 383.273 874.174 373.918 874.975C376.923 861 377.136 856.416 382.062 842.365Z" fill="#E8E9F1"/>
<path d="M532.953 746.994C534.631 747.464 536.097 747.595 536.88 749.459C541.709 760.934 540.373 782.732 527.556 788.718C525.236 789.802 522.221 790.278 520.14 791.321C515.503 787.137 512.54 784.727 507.445 781.033L507.815 773.107C533.396 792.564 536.01 766.368 532.953 746.994Z" fill="#EED2C0"/>
<path d="M860.931 757.269C860.945 773.038 865.15 786.454 883.529 776.083L883.184 785.342C880.822 787.331 878.44 789.291 876.19 791.397C875.313 791.204 874.45 790.99 873.58 790.755C864.804 788.366 858.211 779.687 857.824 770.725C857.576 765.077 859.281 762.371 860.931 757.269Z" fill="#EED2C0"/>
<path d="M503.6 839.017C505.298 840.052 504.838 839.327 505.432 840.922L506.808 841.537L507.381 841.261C510.543 844.789 512.154 847.985 516.345 847.854C516.815 847.84 519.752 848.407 520.096 848.572C519.692 853.005 518.932 855.014 516.459 858.881C514.302 859.716 514.326 859.737 512.466 861.145C509.212 861.049 505.298 861.47 503.089 859.716C503.399 857.88 503.878 840.77 503.6 839.017Z" fill="#FDE9DA"/>
<path d="M502.445 838.83L503.6 839.017C503.878 840.77 503.399 857.88 503.089 859.716C500.123 857.534 498.612 856.043 497.229 852.653C497.177 850.312 498.134 842.282 498.299 838.996L502.445 838.83Z" fill="#FDF9F8"/>
<path d="M872.503 863.998C873.042 859.33 870.888 851.563 873.325 848.773C875.148 849.609 878.034 850.472 878.489 852.281C879.677 856.969 878.158 862.941 878.172 868.258C875.244 866.67 874.74 866.421 872.503 863.998Z" fill="#FDF9F8"/>
<path d="M497.228 852.653C498.612 856.043 500.123 857.535 503.089 859.717C505.297 861.47 509.212 861.049 512.465 861.146C505.547 861.733 504.203 864.384 499.961 864.37L499.583 864.722L497.219 862.692L495.303 861.153C495.68 858.708 496.64 855.146 497.228 852.653Z" fill="#13255D"/>
<path d="M874.284 815.189C870.569 809.693 868.312 806.973 872.399 801.235L872.558 802.05C873.545 807.097 877.121 810.294 877.446 813.367C875.982 814.506 876.003 814.492 874.284 815.189Z" fill="#EED2C0"/>
<path d="M462.231 503.937C462.776 502.687 463.368 501.457 464.005 500.251C509.243 414.596 598.304 371.588 692.756 369.813C736.653 368.988 787.628 377.7 826.679 398.654C832.844 400.817 842.579 406.972 848.386 410.584C886.566 434.438 917.104 468.749 936.367 509.443C937.251 511.275 938.073 513.135 938.839 515.021C940.634 519.282 942.94 524.299 944.121 528.692C949.955 541.76 954.429 563.802 956.203 577.996L959.6 567.697C961.499 568.736 964.26 570.136 966 571.277C975.874 574.576 990.683 585.894 991.173 597.352C988.412 619.793 967.071 627.201 948.643 634.5C941.318 637.401 926.128 640.078 920.915 644.756C922.414 647.175 934.013 645.799 936.989 645.474C931.727 653.86 920.812 670.895 917.373 679.313C909.157 683.573 901.017 688.013 894.258 694.472C895.128 682.448 898.262 666.421 891.206 656.917C889.922 655.788 885.455 652.444 883.929 652.218C874.912 650.884 862.85 650.382 853.688 650.084C834.487 649.461 814.037 647.652 795.036 647.696C786.509 657.097 786.178 657.247 778.259 647.148C752.754 644.697 723.77 644.69 698.072 643.742C694.358 643.604 687.056 647.661 681.605 648.484L680.54 648.638C677.63 646.284 675.214 644.393 672.147 642.258C662.979 641.201 649.341 640.94 639.831 640.48L579.668 637.579L538.787 635.583C523.685 634.842 501.863 629.903 500.268 651.863C501.026 657.266 497.462 668.79 502.066 672.318C512.61 680.397 520.102 687.744 504.758 696.93C495.226 689.045 490.359 685.728 479.625 679.544C474.048 669.816 464.969 654.159 458.508 645.468C461.915 645.573 472.568 646.371 474.789 644.543C473.725 643.182 472.001 642.49 470.376 641.947C447.693 634.375 411.364 627.009 404.941 599.973C404.909 598.904 404.966 597.622 404.984 596.534C405.633 592.367 406.547 590.534 408.937 587.068C413.054 581.098 429.104 569.129 436.06 568.287C437.798 569.823 437.45 570.508 438.01 573.165C438.279 574.004 438.627 574.636 439.006 575.436C439.838 574.417 442.834 556.73 443.822 553.245C448.186 537.855 453.588 517.401 462.231 503.937Z" fill="#FDA77F"/>
<path d="M462.231 503.937C462.776 502.687 463.368 501.457 464.005 500.251C509.243 414.596 598.304 371.588 692.756 369.813C736.654 368.988 787.628 377.7 826.679 398.654C822.177 399.469 796.417 389.826 789.699 388.025C780.655 385.684 771.534 383.66 762.352 381.955C649.356 361.588 525.612 402.274 463.984 503.156C463.847 503.38 462.603 503.879 462.231 503.937Z" fill="#FBE2D7"/>
<path d="M404.941 599.973C408.414 601.4 409.366 603.308 412.034 605.515C427.146 618.015 451.099 629.069 470.697 630.768C477.525 638.854 487.026 651 498.386 652.401C499.693 652.563 499.246 652.633 500.268 651.863C501.026 657.266 497.462 668.79 502.066 672.318C512.61 680.397 520.102 687.744 504.758 696.93C495.226 689.045 490.359 685.727 479.624 679.544C474.048 669.816 464.969 654.159 458.508 645.468C461.915 645.573 472.568 646.371 474.789 644.543C473.725 643.181 472.001 642.49 470.376 641.947C447.693 634.375 411.364 627.009 404.941 599.973Z" fill="#F59066"/>
<path d="M991.174 597.352C988.413 619.792 967.071 627.201 948.644 634.5C941.318 637.401 926.129 640.078 920.916 644.756C922.414 647.175 934.014 645.799 936.989 645.474C931.728 653.86 920.813 670.894 917.374 679.313C909.158 683.573 901.018 688.013 894.259 694.472C895.129 682.448 898.263 666.42 891.207 656.917C904.298 654.305 914.875 641.858 922.594 631.951C940.98 628.277 959.504 622.454 975.191 611.843C981.094 607.851 985.823 601.012 991.174 597.352Z" fill="#F59066"/>
<path d="M944.121 528.692C949.956 541.76 954.43 563.802 956.204 577.996L959.601 567.697C961.5 568.736 964.261 570.136 966.001 571.277C964.158 571.633 962.604 570.926 960.747 570.371C959.539 572.293 957.198 577.751 955.831 580.358C950.018 591.413 945.199 599.244 936.775 608.505C945.247 581.102 945.199 569.727 944.543 541.734C945.627 535.391 942.333 531.331 943.217 528.848L944.121 528.692Z" fill="#F59066"/>
<path d="M404.984 596.533C405.634 592.366 406.548 590.533 408.938 587.068C413.055 581.098 429.105 569.129 436.061 568.287C437.799 569.823 437.451 570.508 438.01 573.165C429.099 576.211 412.018 589.171 406.281 596.637L404.984 596.533Z" fill="#FDF9F8"/>
<path d="M938.84 515.021C940.635 519.282 942.941 524.299 944.121 528.692L943.217 528.848C942.333 531.33 945.627 535.391 944.543 541.734C942.837 533.762 937.473 521.637 938.84 515.021Z" fill="#DE9D8E"/>
<path d="M821.715 591.331C834.226 590.263 849.871 593.274 853.827 607.288C855.09 611.669 854.414 616.381 851.97 620.23C847.855 626.738 839.977 629.446 832.838 630.918C820.762 631.509 805.262 629.61 800.961 615.953C799.559 611.642 800.056 606.938 802.335 603.019C806.622 595.58 814.044 593.27 821.715 591.331Z" fill="#FDB197"/>
<path d="M553.053 591.225C568.074 589.612 581.193 595.009 585.154 610.507C582.126 624.346 575.595 627.639 562.895 630.476C554.296 630.692 546.904 630.614 539.467 625.48C531.565 620.024 528.201 609.296 534.386 601.181C539.155 594.922 545.517 592.46 553.053 591.225Z" fill="#FDB197"/>
<path d="M599.334 539.797L601.685 539.948C603.618 541.369 603.083 540.452 603.449 542.722C602.74 545.512 602.029 545.925 599.852 547.888C615.346 568.841 605.012 607.029 579.174 593.097C565.622 580.51 573.153 570.532 568.607 565.741C566.923 565.633 566.188 565.7 564.626 564.992L564.343 563.255C566.498 557.988 593.655 542.932 599.334 539.797Z" fill="#13255D"/>
<path d="M783.23 539.537C789.451 539.785 806.919 549.966 810.834 555.072C820.472 567.636 817.759 584.07 805.807 593.897C787.67 602.081 778.901 585.628 778.473 569.868C778.121 556.708 783.237 556.992 785.605 547.637C782.512 543.931 781.953 544.218 783.23 539.537Z" fill="#13255D"/>
<path d="M687.625 591.906C689.426 591.781 691.231 591.694 693.033 591.647C703.265 591.432 713.732 595.471 721.092 602.622C724.786 606.212 731.372 615.248 726.381 619.706C721.582 619.335 717.011 609.575 711.709 606.09C706.966 602.97 705.958 602.568 700.379 600.992C673.341 595.181 669.175 618.412 659.985 619.721C656.652 617.695 658.763 611.213 660.558 608.703C667.374 599.174 676.319 594.315 687.625 591.906Z" fill="#13255D"/>
<path d="M585.009 408.077C586.769 407.854 587.193 407.59 588.73 408.416L588.93 409.468C585.976 413.045 570.134 420.02 564.725 423.08C550.789 430.963 540.33 438.83 527.925 448.766C525.898 450.116 526.96 449.833 524.705 449.878C523.655 445.284 536.735 434.484 540.36 431.586C553.973 420.706 568.709 413.813 585.009 408.077Z" fill="#FDF9F8"/>
<path d="M513.865 456.782L515.91 457.614C518.699 461.815 513.193 465.17 510.044 467.743C507.965 467.022 508.448 467.642 507.603 465.728C508.388 461.606 510.855 459.445 513.865 456.782Z" fill="#FDF9F8"/>
<path d="M870.183 749.991C870.397 748.948 870.639 747.906 870.908 746.87C876.942 723.022 892.373 702.626 913.687 690.329C931.617 679.903 950.149 676.619 970.261 681.911L975.833 683.768L976.378 684.421C993.031 689.02 1003.41 706.272 1006.94 722.152C1012.27 769.42 973.879 810.971 928.006 816.515C914.405 818.158 896.468 816.205 885.055 808.023C877.219 802.403 880.871 795.07 887.948 791.176C890.109 789.388 892.484 787.8 894.776 786.184C900.003 781.24 916.752 765.767 912.817 757.634C900.21 746.69 858.68 798.142 870.183 749.991Z" fill="#FDA77F"/>
<path d="M870.183 749.991C870.397 748.948 870.638 747.906 870.908 746.87C876.942 723.022 892.373 702.626 913.687 690.328C931.617 679.903 950.148 676.619 970.26 681.911L975.832 683.768L976.378 684.421C973.347 685.002 966.732 684.493 963.087 684.471C947.856 684.38 935.994 686.581 922.496 693.685L922.545 694.714C915.558 697.441 910.911 700.734 905.008 705.236C903.91 706.071 900.258 709.496 899.464 709.945C882.514 717.837 875.244 750.419 871.087 751.275L870.183 749.991Z" fill="#FBE2D7"/>
<path d="M922.545 694.714C925.473 694.169 926.867 693.713 929.836 694.162L930.368 695.101C928.773 696.343 921.068 700.417 918.182 702.254C907.231 709.227 900.141 715.552 891.158 724.714C893.727 718.175 895.121 715.476 899.464 709.945C900.258 709.496 903.91 706.072 905.008 705.236C910.911 700.735 915.558 697.441 922.545 694.714Z" fill="#FDF9F8"/>
<path d="M894.776 786.184C901.176 785.086 908.06 776.069 911.367 770.953L912.444 770.905L911.85 770.276L912.734 770.262L912.257 769.745L913.196 769.199C911.601 777.45 896.736 792.226 887.947 791.176C890.108 789.388 892.483 787.8 894.776 786.184Z" fill="#FBE2D7"/>
<path d="M416.741 685.353C455.192 667.496 502.351 692.829 518.212 729.63C521.679 734.939 532.204 764.981 523.723 770.635C518.782 773.929 505.186 762.046 499.773 759.996C496.054 758.587 484.016 752.131 481.858 759.947C483.385 769.386 497.081 783.022 504.794 788.47C511.724 793.372 521.716 801.132 510.11 808.665C496.385 817.572 476.398 818.684 460.586 815.466C436.519 810.44 415.441 796.044 402.004 775.455C390.765 758.401 385.503 739.793 389.564 719.604C390.911 715.199 392.341 709.842 395.102 706.141C397.334 701.487 401.205 697.31 404.748 693.616C407.429 690.923 410.764 689.009 413.972 686.953L416.741 685.353Z" fill="#FDA77F"/>
<path d="M416.741 685.353C455.193 667.496 502.351 692.829 518.213 729.63C514.726 731.77 503.577 713.487 497.926 711.706C498.896 713.252 499.419 714.191 500.25 715.821L499.466 716.408L497.726 715.835L496.935 713.687L496.086 713.605C489.906 705.816 485.468 700.134 475.989 696.247C473.245 695.121 468.163 693.112 465.922 691.579C463.612 688.804 450.022 686.363 446.087 685.974C433.508 684.731 418.479 687.725 407.923 694.886L404.748 693.616C407.429 690.923 410.764 689.009 413.972 686.953L416.741 685.353Z" fill="#FBE2D7"/>
<path d="M496.086 713.604C496.247 714.606 496.205 715.303 496.22 716.325L495.378 716.477C488.283 709.503 480.154 703.669 471.28 699.174C467.805 697.379 463.391 695.756 460.461 693.478L460.382 692.497C462.185 691.614 463.89 691.703 465.922 691.579C468.163 693.112 473.245 695.121 475.989 696.247C485.467 700.134 489.905 705.816 496.086 713.604Z" fill="#FDF9F8"/>
<path d="M404.748 693.616L407.922 694.887C403.942 698.221 398.779 704.18 395.102 706.141C397.334 701.487 401.205 697.31 404.748 693.616Z" fill="#FDB197"/>
<path d="M419.413 693.008L421.124 694.03L421.257 695.342C419.505 697.986 414.722 701.19 411.893 703.606L411.088 704.552C410.229 700.168 416.396 695.5 419.413 693.008Z" fill="#FDF9F8"/>
<path d="M384.051 756.619L386.383 762.667C392.014 776.276 398.339 785.59 408.47 796.258C400.911 803.632 393.377 811.303 385.545 818.359C382.73 820.9 380.513 818.842 378.512 821.107C380.173 828.357 378.962 829.199 376.025 836.38C372.007 847.137 369.338 857.079 367.417 868.43C366.526 873.691 364.384 883.116 358.872 885.256C357.566 885.774 356.104 885.691 354.86 885.049C349.985 882.508 347.092 873.871 345.283 869.086C339.5 853.779 339.999 818.525 347.572 804.053C348.391 803.314 348.542 802.582 349.021 801.505L348.926 799.565C351.52 791.459 362.716 774.736 369.404 769.751C371.092 767.425 373.279 765.498 375.36 763.489C377.264 761.611 381.742 758.38 384.051 756.619Z" fill="#FDA77F"/>
<path d="M384.05 756.619L386.382 762.667C392.013 776.276 398.338 785.59 408.47 796.258C400.911 803.632 393.376 811.303 385.545 818.359C382.73 820.9 380.513 818.842 378.512 821.107C380.172 828.357 378.961 829.199 376.024 836.38C363.173 822.198 383.683 808.403 388.523 793.399L388.819 792.467C386.049 785.093 378.727 774.322 377.028 767.411L375.359 763.489C377.263 761.611 381.742 758.38 384.05 756.619Z" fill="#F59066"/>
<path d="M384.051 756.619L386.382 762.667C382.813 764.193 380.205 765.153 377.028 767.411L375.359 763.489C377.264 761.611 381.742 758.38 384.051 756.619Z" fill="#DE9D8E"/>
<path d="M369.404 769.751C371.485 768.557 372.915 767.149 375.217 766.845C375.141 769.323 372.105 770.987 371.971 773.673L372.576 774.274L372.648 774.681C370.038 778.085 356.829 797.307 355.057 798.743C352.925 799.33 351.013 800.131 348.925 799.565C351.519 791.459 362.715 774.737 369.404 769.751Z" fill="#FDB197"/>
<path d="M355.058 798.744C354.235 792.392 366.229 775.779 372.649 774.682C370.039 778.086 356.829 797.308 355.058 798.744Z" fill="#FDF9F8"/>
<path d="M349.021 801.505C354.802 804.032 356.162 804.495 360.351 809.265L360.223 810.025C356.55 809.231 351.106 805.924 347.571 804.053C348.391 803.314 348.542 802.582 349.021 801.505Z" fill="#344272"/>
<path d="M349.033 808.147C350.101 808.879 350.786 809.977 350.538 811.282C348.189 823.593 346.408 834.833 345.687 847.351C340.184 841.897 346.523 814.962 349.033 808.147Z" fill="#FDF9F8"/>
<path d="M204.103 808.541C212.701 798.992 222.934 791.777 236.116 790.527C248.253 789.498 260.288 793.434 269.473 801.429C272.657 804.226 275.236 807.526 278.569 810.191C294.946 811.8 306.252 818.87 308.256 836.235C303.333 837.167 258.961 836.884 251.517 836.614C228.524 837.312 202.374 836.78 179.197 836.739C181.538 819.478 187.466 812.946 204.103 808.541Z" fill="#C1C6DD"/>
<path d="M251.518 836.614C254.146 834.936 276.573 836.221 282.458 835.654C284.343 831.912 280.857 828.066 282.335 823.682C284.323 822.778 283.27 822.902 285.623 823.668C288.249 826.824 287.546 831.429 287.416 835.53C293.545 836.524 301.342 835.199 308.256 836.234C303.334 837.166 258.962 836.883 251.518 836.614Z" fill="#A0A6C9"/>
<path d="M228.223 797.542C228.515 797.535 229.277 797.832 229.603 797.943C228.846 799.793 217.134 805.289 212.208 810.833L210.751 811.033C210.51 803.936 222.188 798.854 228.223 797.542Z" fill="#E8E9F1"/>
<path d="M1011.91 756.826C1023.79 764.476 1042.52 785.121 1046.41 798.785C1045.7 801.008 1044.37 801.671 1042.47 803.445L1043.96 805.275C1047.05 804.26 1046.4 803.901 1048.52 804.964C1051.26 808.713 1052.44 815.48 1052.66 820.071C1056.69 838.126 1054.62 866.904 1043.3 882.37C1041.88 884.31 1040.18 884.863 1037.91 884.966C1030.35 882.398 1029.62 872.504 1028.03 865.848C1027.26 861.339 1025.96 856.761 1025.12 852.287C1023.44 843.291 1014.8 830.835 1017.45 822.087L1017.73 821.196L1017.29 820.375L1014.9 821.473C1012.09 820.444 990.911 799.758 987.059 796.258C999.334 784.064 1005.83 772.52 1011.91 756.826Z" fill="#FDA77F"/>
<path d="M1043.96 805.275C1047.05 804.26 1046.4 803.901 1048.52 804.964C1051.26 808.713 1052.44 815.48 1052.66 820.071C1049.74 822.336 1050.45 823.192 1050.7 826.927C1049.92 820.727 1049.96 813.084 1044.42 809.335C1043.6 808.154 1043.49 807.319 1043.05 805.91L1043.96 805.275Z" fill="#FDB197"/>
<path d="M1044.42 809.335C1049.96 813.084 1049.92 820.727 1050.7 826.928C1050.61 832.382 1050.45 834.543 1049.44 839.887C1048.45 826.679 1047.79 822.005 1044.42 809.335Z" fill="#FDF9F8"/>
<path d="M1033.21 810.612C1035.94 807.671 1038.56 804.308 1042.47 803.445L1043.96 805.275L1043.05 805.91L1033.21 810.612Z" fill="#344272"/>
<path d="M1025.05 776.538C1031.75 778.63 1038.98 790.375 1040.63 797.12C1038.12 795.912 1028.84 781.178 1025.05 776.538Z" fill="#FDF9F8"/>
<path d="M425.322 809.756C441.428 819.477 452.993 823.13 471.521 824.925C464.983 833.107 453.773 848.179 446.085 854.262L445.421 854.794C446.876 864.653 441.187 874.478 441.169 882.646C441.038 940.575 411.745 896.959 409.943 868.347C408.307 860.331 409.173 850.299 410.472 842.297L411.193 840.087C412.867 829.951 419.628 818.165 425.322 809.756Z" fill="#FDA77F"/>
<path d="M410.472 842.297L412.598 842.449L414.66 845.549C410.422 850.189 411.826 863.908 413.064 869.88L409.943 868.347C408.307 860.331 409.173 850.299 410.472 842.297Z" fill="#FDB197"/>
<path d="M413.065 869.88C411.827 863.908 410.423 850.189 414.661 845.549C415.012 850.555 414.775 856.886 414.84 862.078C414.894 866.352 416.281 876.412 415.641 879.885L415.228 879.167L415.769 879.864L416.109 878.607L414.887 878.193C414.106 875.162 413.563 872.994 413.065 869.88Z" fill="#FDF9F8"/>
<path d="M411.194 840.087C416.554 842.11 420.907 843.256 425.707 846.398C421.187 845.127 417.049 843.933 412.599 842.448L410.473 842.296L411.194 840.087Z" fill="#A99A98"/>
<path d="M420.804 825.615L421.445 826.389C420.936 829.751 417.817 836.027 416.154 839.148C413.628 835.647 417.998 828.156 420.804 825.615Z" fill="#FDF9F8"/>
<path d="M970.364 809.479C972.974 812.966 974.265 815.113 976.433 818.918C979.361 824.476 984.608 833.044 983.842 839.245L981.902 842.234L984.201 842.386C987.501 846.191 986.859 858.101 986.452 863.051C985.354 876.563 981.618 890.276 974.438 901.882C968.825 910.941 959.062 915.318 956.418 901.454C955.21 895.109 955.306 888.411 954.278 882.011C953.166 873.65 950.384 862.547 950.156 854.289C949.272 853.054 949.203 853.164 947.794 852.515C941.691 846.922 929.608 831.56 923.981 824.725C942.119 823.889 955.099 818.649 970.364 809.479Z" fill="#FDA77F"/>
<path d="M970.364 809.479C972.974 812.966 974.265 815.113 976.433 818.918C972.919 819.16 972.015 818.669 969.999 821.887C963.108 826.941 956.287 829.758 949.928 834.218C948.146 840.957 945.205 845.976 947.794 852.515C941.691 846.922 929.608 831.56 923.981 824.725C942.119 823.889 955.099 818.649 970.364 809.479Z" fill="#F59066"/>
<path d="M976.433 818.918C979.36 824.476 984.607 833.045 983.841 839.245L981.901 842.234L980.12 842.421C978.822 837.726 979.36 825.802 972.698 823.882L972.159 825.008L971.22 822.198L969.998 821.887C972.014 818.669 972.919 819.16 976.433 818.918Z" fill="#DE9D8E"/>
<path d="M972.698 823.883C979.361 825.802 978.822 837.726 980.12 842.421C985.92 851.501 982.751 869.218 978.967 878.587C982.42 858.012 981.018 843.098 972.698 823.883Z" fill="#FDF9F8"/>
<path d="M945.253 645.552C954.381 645.353 959.345 645.824 968.148 647.107C976.392 649.179 982.336 650.843 990.173 654.596C1003.33 661.379 1015.9 671.22 1020.03 686.164C1027.2 700.934 1022.37 719.121 1015.01 732.764C1014.45 727.013 1013.96 722.884 1012.94 717.139C1010.39 718.665 1008.11 719.577 1006.94 722.152C1003.41 706.272 993.031 689.02 976.378 684.421L975.832 683.768L970.261 681.911L971.655 681.353C972.449 679.061 971.959 676.408 971.759 673.905L971.248 673.665L971.628 672.804C975.011 670.257 980.824 667.379 985.001 666.629C986.368 666.045 985.823 666.508 986.451 664.986L984.787 664.703C975.874 664.877 970.378 665.927 963.432 672.175C958.634 671.718 954.429 671.242 949.582 671.372C939.661 672.09 935.083 673.09 925.797 675.873C931.258 666.333 939.15 654.994 945.253 645.552Z" fill="#FDA77F"/>
<path d="M945.253 645.552C954.381 645.353 959.345 645.824 968.148 647.107C959.303 650.874 949.561 652.415 945.944 662.767C943.852 668.754 942.795 670.741 949.582 671.372C939.661 672.09 935.083 673.09 925.797 675.873C931.258 666.333 939.15 654.994 945.253 645.552Z" fill="#F59066"/>
<path d="M980.638 677.706C995.193 684.76 1003.63 694.679 1010.55 709.068C1011.2 711.215 1012.52 715.123 1012.94 717.14C1010.39 718.665 1008.11 719.577 1006.94 722.152C1003.41 706.272 993.032 689.02 976.378 684.421L975.833 683.768L977.414 683.469C979.32 681.943 979.727 680.05 980.638 677.706Z" fill="#13255D"/>
<path d="M1010.55 709.068C1011.41 710.179 1011.75 710.587 1012.75 711.574C1020.04 709.157 1018.35 691.517 1018.08 685.46L1019.14 686.322L1020.03 686.164C1027.2 700.934 1022.37 719.121 1015.01 732.764C1014.46 727.012 1013.97 722.884 1012.94 717.139C1012.52 715.123 1011.2 711.215 1010.55 709.068Z" fill="#F59066"/>
<path d="M971.759 673.905C974.783 675.307 977.552 676.459 980.638 677.706C979.726 680.05 979.319 681.943 977.414 683.469L975.832 683.768L970.261 681.911L971.655 681.353C972.449 679.062 971.959 676.408 971.759 673.905Z" fill="#13255D"/>
<path d="M986.452 664.986C989.504 663.6 992.811 662.328 995.075 665.533C993.114 668.778 988.295 667.181 985.002 666.629C986.369 666.046 985.824 666.508 986.452 664.986Z" fill="#DE9D8E"/>
<path d="M984.325 655.183C987.846 656.337 991.574 657.489 993.666 660.836L992.962 661.324C990.304 660.799 989.551 660.348 987.045 659.193C986.776 658.743 983.924 656.494 983.082 655.7L984.325 655.183Z" fill="#FDE9DA"/>
<path d="M407.5 654.078C420.164 647.47 435.876 645.594 450.036 645.381C456.418 654.952 463.549 664.66 468.816 674.844L469.013 675.236C454.541 671.6 448.23 670.666 432.882 672.046C423.904 665.442 419.878 665.206 408.765 665.322C416.746 668.404 419.26 668.695 426.422 673.587C420.834 675.36 418.047 676.452 412.748 678.955C413.99 681.004 415.374 683.427 416.742 685.354L413.972 686.953C410.765 689.009 407.429 690.923 404.748 693.616C401.206 697.31 397.335 701.487 395.102 706.141C392.342 709.842 390.912 715.2 389.564 719.605C385.118 720.882 385.429 720.999 382.456 717.809C381.557 723.837 381.179 727.11 380.999 733.303C372.101 717.133 369.137 701.618 376.54 684.149C381.423 671.188 393.494 659.568 406.376 654.647L407.5 654.078Z" fill="#FDA77F"/>
<path d="M404.037 684.686C407.086 686.222 410.561 686.464 413.972 686.953C410.764 689.009 407.429 690.923 404.748 693.616C401.205 697.31 397.335 701.487 395.102 706.14C392.342 709.841 390.912 715.199 389.564 719.604C385.118 720.882 385.429 720.999 382.456 717.809C387.384 702.909 391.963 694.693 404.037 684.686Z" fill="#13255D"/>
<path d="M376.54 684.149C381.423 671.188 393.494 659.568 406.376 654.646C409.344 654.741 410.725 654.548 413.214 656.279C401.057 662.743 390.552 668.31 382.51 680.205C379.965 683.968 378.744 688.983 376.633 691.552C375.87 689.375 376.354 686.555 376.54 684.149Z" fill="#FBE2D7"/>
<path d="M404.037 684.686C407.604 681.856 408.732 681.065 412.748 678.955C413.99 681.004 415.374 683.427 416.742 685.353L413.972 686.953C410.562 686.464 407.087 686.222 404.037 684.686Z" fill="#13255D"/>
<path d="M407.5 654.077L422.94 651.801L413.214 656.279C410.724 654.548 409.344 654.741 406.375 654.646L407.5 654.077Z" fill="#FDE9DA"/>
<path d="M981.481 801.836C990.629 809.41 999.211 819.47 1008.68 825.884C1009.3 828.549 1011.52 834.418 1010.74 836.489L1008.89 836.697L992.286 836.793C988.482 823.357 984.684 817.343 977.524 805.647C978.519 803.493 979.389 803.362 981.481 801.836Z" fill="#E8E9F1"/>
<path d="M414.188 802.078C415.744 802.734 417.586 804.502 418.967 805.655C411.691 815.528 406.915 824.959 403.455 836.739L389.229 836.69C387.404 836.759 387.091 836.939 385.44 836.131C384.804 833.266 386.238 831.367 386.584 827.252L386.641 826.506C395.408 821.038 405.408 809.321 414.188 802.078Z" fill="#E8E9F1"/>
<path d="M884.786 817.468C883.929 817.488 903.11 823.633 905.312 824.151C898.304 828.19 892.719 830.704 885.303 833.673C881.906 834.964 875.092 837.788 871.792 837.774C868.125 835.129 870.045 830.331 871.854 826.83C874.947 820.844 878.703 819.339 884.786 817.468Z" fill="#F59066"/>
<path d="M915.136 826.402C917.07 826.879 922.538 834.722 924.057 836.731L907.203 836.759L897.013 836.745C903.399 833.728 909.164 830.145 915.136 826.402Z" fill="#E8E9F1"/>
<path d="M481.134 826.168C484.532 827.956 493.34 831.353 491.091 835.841C488.728 837.326 486.755 836.884 483.871 836.773L471.845 836.725C474.791 833.169 478.048 829.62 481.134 826.168Z" fill="#E8E9F1"/>
<path d="M902.764 765.118L902.799 766.057C900.085 771.436 894.196 776.448 889.736 780.612C889.232 778.913 889.266 774.156 889.211 772.154C894.092 768.777 897.296 767.362 902.764 765.118Z" fill="#F59066"/>
<path d="M492.497 765.118C500.278 767.155 502.385 767.763 501.918 775.765C498.241 773.39 494.452 769.04 492.497 765.118Z" fill="#DE9D8E"/>
<path d="M240.782 649.899C240.936 642.606 244.334 635.494 242.675 624.511C238.528 597.063 222.276 580.264 222.075 551.37C221.946 532.668 226.329 513.963 239.143 499.143C240.726 497.313 241.964 496.915 244.065 496.96C245.373 497.994 246.522 499.626 246.383 501.351C244.86 520.313 244.012 533.975 248.464 552.815L251.53 549.581C254.356 559.357 256.555 564.759 261.351 573.767C263.522 577.846 270.491 590.499 271.51 594.55C279.73 617.18 280.776 637.847 270.007 659.664C258.562 682.85 236.911 701.963 248.202 731.127C256.926 753.671 261.808 762.287 250.787 786.95L247.429 786.218L245.87 786.363C241.228 786.626 235.493 786.557 231.161 786.95C231.988 783.443 232.729 777.774 233.333 774.073C234.373 735.332 194.974 724.789 226.585 674.538C227.897 673.511 230.225 672.25 231.722 671.376C235.441 666.046 238.942 656.198 240.782 649.899Z" fill="#C1C6DD"/>
<path d="M269.516 598.812C269.324 597.165 269.242 596.66 269.804 595.031L268.807 593.526C268.897 593.344 268.988 593.162 269.078 592.979L270.188 594.483L271.509 594.551C279.73 617.181 280.776 637.848 270.007 659.665C258.561 682.851 236.91 701.964 248.201 731.128C256.926 753.671 261.807 762.288 250.786 786.951L247.429 786.219C258.775 760.438 252.14 751.455 243.649 728.097C234.858 703.925 252.295 682.609 263.958 663.12C276.084 642.858 276.013 621.395 269.516 598.812Z" fill="#525C8A"/>
<path d="M231.722 671.376C224.663 684.527 218.98 694.431 218.49 709.786C217.648 736.168 242.341 751.828 236.175 779.01C236.201 777.174 236.247 776.718 235.351 775.02L236.017 775.31L235.925 774.122L234.782 774.978L233.333 774.074C234.373 735.333 194.974 724.79 226.585 674.538C227.897 673.511 230.225 672.25 231.722 671.376Z" fill="#525C8A"/>
<path d="M248.464 552.816L251.529 549.582C254.355 559.357 256.554 564.76 261.35 573.768C263.521 577.847 270.491 590.499 271.509 594.551L270.188 594.483L269.078 592.979C268.988 593.162 268.897 593.344 268.807 593.526L269.804 595.031C269.242 596.66 269.325 597.165 269.516 598.812C268.401 596.581 267.292 593.854 266.262 591.536C260.67 578.943 252.341 566.031 248.464 552.816Z" fill="#525C8A"/>
<path d="M233.333 774.073L234.782 774.978L235.926 774.122L236.018 775.309L235.351 775.019C236.247 776.718 236.201 777.173 236.175 779.01C235.828 781.282 235.487 783.443 235.05 785.7C238.578 785.742 242.49 785.604 245.871 786.363C241.228 786.626 235.493 786.557 231.161 786.95C231.988 783.443 232.73 777.774 233.333 774.073Z" fill="#525C8A"/>
<path d="M175.458 650.898C175.007 642.103 171.048 625.334 172.939 619.557C174.64 617.806 173.63 618.246 176.073 618.201C183.82 621.653 189.523 633.576 192.829 640.854C207.619 673.408 173.733 704.704 195.041 734.531C196.337 737.134 197.035 738.198 198.721 740.587C202.034 745.213 205.747 749.252 209.513 753.505C219.196 768.046 219.152 773.328 220.088 790.299C215.245 792.991 211.572 795.242 207.332 798.874C206.888 763.786 184.76 762.985 168.609 738.122C147.975 702.502 175.681 680.992 175.458 650.898Z" fill="#C1C6DD"/>
<path d="M293.631 686.562C297.465 682.22 301.834 671.084 306.297 669.801C307.963 671.292 307.68 672.09 307.975 674.345C310.192 691.337 293.631 703.151 289.316 716.366C281.536 740.186 302.731 761.086 281.041 783.463C281.708 785.058 281.506 784.92 282.565 786.26C278.175 790.934 276.592 793.068 273.782 798.867L271.143 796.72C267.185 793.834 265.36 792.591 261.043 790.354C259.874 789.705 258.261 789.339 256.932 788.939C257.856 788.207 261.792 781.247 262.876 779.542C265.251 776.773 266.464 774.267 268.205 771.07C277.373 746.062 254.226 727.427 275.044 700.782C277.679 697.254 287.191 689.098 291.243 684.924L293.631 686.562Z" fill="#C1C6DD"/>
<path d="M275.044 700.782L276.518 704.096C258.905 734.303 281.083 744.543 271.389 771.657L268.205 771.07C277.372 746.062 254.226 727.427 275.044 700.782Z" fill="#525C8A"/>
<path d="M291.243 684.924L293.63 686.562C288.955 691.717 279.626 699.913 276.518 704.097L275.044 700.783C277.679 697.255 287.191 689.098 291.243 684.924Z" fill="#525C8A"/>
<path d="M281.041 783.464C281.708 785.059 281.506 784.921 282.565 786.26C278.175 790.935 276.592 793.068 273.782 798.868L271.144 796.72C273.822 791.584 276.648 787.248 281.041 783.464Z" fill="#525C8A"/>
<path d="M262.876 779.542L265.628 781.199C263.458 784.865 262.606 786.412 261.043 790.354C259.874 789.705 258.261 789.339 256.932 788.939C257.856 788.207 261.792 781.247 262.876 779.542Z" fill="#525C8A"/>
<path d="M268.205 771.07L271.389 771.657C270.258 773.832 267.319 779.949 265.628 781.199L262.876 779.542C265.25 776.773 266.463 774.267 268.205 771.07Z" fill="#525C8A"/>
<path d="M237.04 649.685C246.448 623.669 228.815 597.764 222.135 574.774C218.429 562.429 217.415 549.432 219.161 536.661C220.619 526.329 230.814 491.054 245.104 493.214C253.96 498.476 247.903 516.796 248.662 526.835C249.403 536.645 248.821 539.451 251.53 549.582L248.465 552.816C244.013 533.975 244.861 520.313 246.384 501.351C246.522 499.626 245.374 497.994 244.065 496.961C241.964 496.915 240.726 497.313 239.143 499.143C226.329 513.963 221.946 532.668 222.076 551.37C222.277 580.264 238.529 597.063 242.675 624.511C244.334 635.494 240.936 642.606 240.782 649.899C239.332 651.129 238.624 652.623 237.64 654.267C237.402 652.745 237.202 651.217 237.04 649.685Z" fill="#525C8A"/>
<path d="M171.743 655.092C172.272 646.695 171.294 640.366 169.546 632.201C164.596 609.089 176.598 608.698 188.674 625.728C198.383 639.251 202.193 656.133 199.233 672.515C195.41 694.755 185.543 706.997 196.608 731.218L195.041 734.532C173.734 704.704 207.619 673.408 192.83 640.855C189.523 633.576 183.821 621.653 176.074 618.201C173.63 618.246 174.64 617.807 172.94 619.558C171.049 625.334 175.007 642.104 175.458 650.898C174.585 653.126 174.33 655.125 172.632 655.959L171.743 655.092Z" fill="#525C8A"/>
<path d="M291.244 684.924C293.088 681.954 306.418 653.24 311.195 671.897C315.795 689.863 296.8 704.214 292.632 717.547C284.407 743.86 308.403 761.57 282.565 786.26C281.506 784.921 281.708 785.059 281.041 783.464C302.731 761.086 281.536 740.187 289.316 716.366C293.632 703.151 310.192 691.338 307.975 674.346C307.681 672.091 307.963 671.292 306.298 669.801C301.834 671.085 297.465 682.22 293.631 686.562L291.244 684.924Z" fill="#525C8A"/>
<path d="M175.459 650.897C175.682 680.992 147.975 702.501 168.609 738.122L165.87 740.586C145.731 705.526 167.573 686.389 171.743 655.091L172.632 655.958C174.33 655.124 174.585 653.126 175.459 650.897Z" fill="#525C8A"/>
<path d="M168.609 738.122C184.76 762.985 206.888 763.786 207.332 798.874L204.152 802.182C201.39 760.209 184.052 768.688 165.869 740.587L168.609 738.122Z" fill="#525C8A"/>
<path d="M211.763 751.047C223.774 767.507 221.767 770.725 223.689 789.077L220.088 790.299C219.152 773.328 219.196 768.046 209.513 753.505L211.763 751.047Z" fill="#465385"/>
<path d="M1224.68 836.904C1231.15 836.752 1260.85 836.78 1266.3 837.933C1265.56 840.46 1265.16 840.854 1262.51 841.668C1251.49 841.192 1237.31 842.58 1225.13 842.242C1231.11 840.888 1236.45 842.345 1241.7 841.026L1241.86 839.39C1238.8 836.532 1229.66 837.678 1224.68 836.904Z" fill="#13255D"/>
<path d="M240.782 649.899C238.942 656.198 235.441 666.046 231.722 671.376C230.226 672.25 227.897 673.511 226.585 674.538C231.252 665.497 233.711 659.343 237.04 649.685C237.202 651.217 237.402 652.745 237.64 654.267C238.624 652.623 239.332 651.129 240.782 649.899Z" fill="#525C8A"/>
<path d="M201.932 739.523L211.763 751.047L209.513 753.505C205.747 749.252 202.034 745.213 198.722 740.587L201.932 739.523Z" fill="#525C8A"/>
<path d="M196.608 731.218L201.932 739.524L198.722 740.587C197.035 738.198 196.337 737.135 195.041 734.532L196.608 731.218Z" fill="#525C8A"/>
</svg>
