<svg width="24" height="24" viewBox="0 0 25 24" fill="none" xmlns="http://www.w3.org/2000/svg">
<path fill-rule="evenodd" clip-rule="evenodd" d="M24.5234 1.45141C24.5234 0.649344 23.8732 0 23.072 0L7.02156 0.00695376C3.43274 0.00720918 0.523438 2.91654 0.523438 6.5055L0.53012 22.5494C0.530304 23.3524 1.18166 24 1.98145 24H23.072C23.8715 24 24.5234 23.3526 24.5234 22.5491V1.45141ZM20.1511 4.10921C21.7177 3.37195 22.8123 2.43782 23.2875 1.09091L7.02204 1.09416C4.03548 1.09416 1.61436 3.51527 1.61436 6.50178L1.61544 9.06078C1.96385 8.78484 2.3136 8.53488 2.66354 8.31222L2.71457 8.27856C3.23031 7.92738 3.78326 7.63458 4.40475 7.38354C6.26516 6.63174 8.4114 6.40326 10.6834 6.16158L10.6903 6.16086C11.156 6.11136 11.6371 6.06018 12.1243 6.00318C14.2883 5.75044 17.4167 5.22739 20.0329 4.17053L20.1511 4.10921ZM10.9363 8.36016C11.4035 8.31048 11.8862 8.25918 12.3804 8.20134C14.679 7.93284 18.0157 7.37178 20.8596 6.22284C21.8206 5.8345 22.5583 5.41855 23.4327 4.78333V22.5478C23.4327 22.7469 23.2712 22.909 23.0721 22.909H1.98161C1.78248 22.909 1.62111 22.7469 1.62111 22.5478L1.61677 12.0485C2.1624 11.4835 2.95439 10.7478 3.85484 10.1761L3.93657 10.1224L3.95084 10.1128C4.33644 9.8496 4.75529 9.6282 5.23139 9.4359C6.80562 8.7996 8.80266 8.58714 10.9173 8.3622L10.9363 8.36016ZM18.8099 18.7536C18.6426 18.9334 18.4505 19.0231 18.2333 19.0231H17.5814V16.8419H18.2333C18.4505 16.8419 18.6426 16.9339 18.8099 17.1176C18.977 17.3015 19.0606 17.5688 19.0606 17.9199C19.0606 18.296 18.977 18.574 18.8099 18.7536ZM18.6971 14.9928C18.5717 15.1726 18.3878 15.2623 18.1456 15.2623H17.5814V13.4322H18.1456C18.3878 13.4322 18.5717 13.5242 18.6971 13.708C18.8226 13.8919 18.8852 14.1091 18.8852 14.3598C18.8852 14.6023 18.8226 14.8132 18.6971 14.9928ZM6.53772 17.3809L7.17708 13.5826H7.2021L7.8414 17.3809H6.53772ZM11.8967 20.4772C12.0511 20.5943 12.3393 20.7037 12.8792 20.7037L15.2056 20.7028H18.7724C19.2569 20.7028 19.6706 20.6381 20.0134 20.5086C20.3559 20.3791 20.6339 20.1972 20.847 19.9633C21.06 19.7293 21.2169 19.4493 21.317 19.1234C21.4173 18.7974 21.4675 18.4423 21.4675 18.0578C21.4675 17.824 21.4361 17.5921 21.3735 17.362C21.3108 17.1323 21.2126 16.9214 21.0789 16.7289C20.9452 16.5369 20.7737 16.3761 20.5649 16.2463C20.3559 16.1169 20.1052 16.0395 19.8128 16.0144V15.9894C20.0634 15.9393 20.2767 15.8515 20.4522 15.7262C20.6276 15.6008 20.7719 15.4484 20.8845 15.2686C20.9975 15.089 21.0808 14.8885 21.1354 14.6669C21.1895 14.4455 21.2169 14.2178 21.2169 13.9836C21.2169 13.3067 21.0183 12.7657 20.6213 12.3604C20.2243 11.9551 19.6078 11.7524 18.7724 11.7524H15.2592L15.2627 19.1985H14.2471C14.0632 19.1985 13.9274 19.159 13.8397 19.0795C13.7519 19.0001 13.7081 18.8645 13.7081 18.6721V15.4379H14.5981V13.921H13.7081V11.9279H11.4517V13.921H9.1875L8.6562 11.7524H5.72289L3.57946 20.7028H6.02361L6.26184 19.1357H8.11716L8.3553 20.7028H10.8373L9.55152 15.4379H11.4517V19.0481C11.4517 19.4243 11.4872 19.7271 11.558 19.9569C11.6292 20.1869 11.742 20.3603 11.8967 20.4772Z" fill="#37424A"/>
</svg>
